<svg width="72" height="72" viewBox="0 0 72 72" fill="none" xmlns="http://www.w3.org/2000/svg">
<g clip-path="url(#clip0_89_680)">
<path d="M18.3282 66.2597C34.8882 75.8207 56.0634 70.1468 65.6243 53.5868C75.1853 37.0268 69.5114 15.8515 52.9514 6.2906C36.3913 -3.27033 15.2161 2.40355 5.6552 18.9636C-3.90574 35.5236 1.76815 56.6988 18.3282 66.2597Z" fill="#FF4100" stroke="#463828" stroke-width="1.53881"/>
<path d="M47.8484 36.8091C50.1213 45.2918 45.1983 53.9812 36.8524 56.2174C28.5066 58.4537 19.8984 53.39 17.6255 44.9073" stroke="#463828" stroke-width="1.53881"/>
<path d="M33.7273 32.0506C32.6061 32.2147 31.4478 30.6434 31.1402 28.5412C30.8326 26.4389 31.4922 24.6017 32.6134 24.4376C33.7346 24.2736 34.8929 25.8449 35.2005 27.9471C35.5081 30.0494 34.8485 31.8866 33.7273 32.0506Z" fill="#463828"/>
<path d="M27.5725 32.0506C26.4513 32.2147 25.293 30.6434 24.9854 28.5412C24.6779 26.4389 25.3374 24.6017 26.4586 24.4376C27.5799 24.2736 28.7381 25.8449 29.0457 27.9471C29.3533 30.0494 28.6937 31.8866 27.5725 32.0506Z" fill="#463828"/>
</g>
<defs>
<clipPath id="clip0_89_680">
<rect width="72" height="72" fill="white"/>
</clipPath>
</defs>
</svg>
