<svg width="72" height="72" viewBox="0 0 72 72" fill="none" xmlns="http://www.w3.org/2000/svg">
<g clip-path="url(#clip0_90_685)">
<path d="M69.8168 27.4118C74.7659 45.8821 63.8048 64.8673 45.3345 69.8164C26.8642 74.7655 7.87899 63.8044 2.92989 45.3341C-2.01921 26.8638 8.94189 7.87859 27.4122 2.92948C45.8825 -2.01962 64.8677 8.94148 69.8168 27.4118Z" fill="#463828" stroke="white" stroke-width="1.53881"/>
<path d="M47.1685 25.0259C54.7738 29.4168 57.437 39.0423 53.1169 46.525C48.7968 54.0077 39.1293 56.514 31.5239 52.123" stroke="white" stroke-width="1.53881"/>
<path d="M33.8184 31.6464C33.1415 32.5552 31.2115 32.2632 29.5075 30.9942C27.8035 29.7251 26.9707 27.9596 27.6476 27.0508C28.3244 26.142 30.2544 26.434 31.9584 27.7031C33.6625 28.9721 34.4952 30.7376 33.8184 31.6464Z" fill="white"/>
<path d="M29.4663 35.9985C28.7895 36.9073 26.8594 36.6152 25.1554 35.3462C23.4514 34.0772 22.6187 32.3117 23.2955 31.4029C23.9723 30.4941 25.9024 30.7861 27.6064 32.0551C29.3104 33.3242 30.1431 35.0896 29.4663 35.9985Z" fill="white"/>
</g>
<defs>
<clipPath id="clip0_90_685">
<rect width="72" height="72" fill="white"/>
</clipPath>
</defs>
</svg>
