<svg width="72" height="72" viewBox="0 0 72 72" fill="none" xmlns="http://www.w3.org/2000/svg">
<g clip-path="url(#clip0_90_698)">
<path d="M53.3554 66.0283C36.7954 75.5892 15.6202 69.9153 6.05929 53.3553C-3.50165 36.7953 2.17223 15.6201 18.7322 6.05916C35.2923 -3.50177 56.4675 2.1721 66.0284 18.7321C75.5893 35.2921 69.9155 56.4673 53.3554 66.0283Z" fill="#73CEC0" stroke="#463828" stroke-width="1.53881"/>
<path d="M49.7982 43.5342C47.5253 52.0169 38.9171 57.0806 30.5713 54.8443C22.2254 52.6081 17.3024 43.9187 19.5753 35.436" stroke="#463828" stroke-width="1.53881"/>
<path d="M39.9478 32.3526C38.8947 31.934 38.6773 29.9942 39.462 28.0198C40.2468 26.0454 41.7366 24.7841 42.7896 25.2026C43.8427 25.6212 44.0601 27.561 43.2753 29.5354C42.4906 31.5098 41.0008 32.7711 39.9478 32.3526Z" fill="#463828"/>
<path d="M34.6177 29.2754C33.5647 28.8569 33.3472 26.917 34.132 24.9426C34.9167 22.9682 36.4065 21.7069 37.4596 22.1255C38.5126 22.544 38.73 24.4839 37.9453 26.4583C37.1605 28.4327 35.6707 29.694 34.6177 29.2754Z" fill="#463828"/>
</g>
<defs>
<clipPath id="clip0_90_698">
<rect width="72" height="72" fill="white"/>
</clipPath>
</defs>
</svg>
