<svg width="581" height="225" viewBox="0 0 581 225" fill="none" xmlns="http://www.w3.org/2000/svg">
<path d="M39.6852 124.705C51.2661 127.447 63.041 129.286 74.9045 130.206C75.2427 135.563 77.3782 140.921 83.8028 143.743C87.3091 145.291 91.065 146.192 94.89 146.403C96.8655 161.833 104.785 178.102 129.504 177.799C149.401 177.531 162.446 170.655 170.917 162.673C173.891 165.986 177.685 168.45 181.915 169.816C187.385 171.616 193.291 171.572 198.733 169.691C198.84 170.655 198.964 171.62 199.16 172.566C203.431 192.46 218.54 211.515 252.994 203.443C258.62 202.287 263.926 199.908 268.537 196.474C273.149 193.04 276.956 188.635 279.689 183.567C285.793 192.496 286.057 197.491 303.889 200.527C311.084 201.899 350.737 200.775 358.917 199.288C359.689 204.265 357.958 201.435 361.501 205.003C365.044 208.572 369.622 210.922 374.58 211.716C379.537 212.51 384.617 211.706 389.091 209.421C393.564 207.135 397.201 203.486 399.478 198.997C438.15 215.766 466.749 182.603 465.45 166.851C470.201 172.745 486.272 173.102 495.544 168.78C498.355 167.436 500.839 165.492 502.822 163.083C510.933 167.011 519.893 168.847 528.889 168.424C537.885 168.002 546.634 165.335 554.345 160.665C562.055 155.994 568.483 149.468 573.046 141.677C577.61 133.885 580.165 125.075 580.48 116.043C580.795 107.011 578.861 98.0427 574.852 89.95C570.843 81.8574 564.886 74.8958 557.52 69.6954C550.154 64.4951 541.613 61.2202 532.668 60.1673C523.723 59.1143 514.658 60.3166 506.293 63.6652C501.167 55.1824 490.276 42.7886 468.92 38.9848C466.388 38.5257 463.822 38.2808 461.25 38.2526C458.414 27.6342 452.274 18.2017 443.724 11.3292C435.174 4.4567 424.66 0.503298 413.715 0.0449075C402.769 -0.413483 391.964 2.64709 382.873 8.78076C373.782 14.9144 366.88 23.8007 363.173 34.1451C359.869 32.2921 356.246 31.0803 352.495 30.5734C349.128 30.0625 345.697 30.1714 342.369 30.8949C338.971 25.164 333.624 20.8577 327.313 18.769C322.89 17.5374 318.234 17.4078 313.749 18.3912C309.265 19.3746 305.087 21.4414 301.579 24.4123C298.779 17.2124 293.799 11.0749 287.341 6.86356C280.883 2.65223 273.271 0.579103 265.578 0.935951C257.884 1.2928 250.495 4.06165 244.452 8.85283C238.408 13.644 234.014 20.2163 231.888 27.6446C216.423 21.2156 179.767 14.921 157.089 44.8602C148.191 53.3965 143.653 71.1836 147.55 82.7201C136.409 79.6306 127.511 86.6847 129.504 98.132C104.589 83.4166 121.229 84.631 108.273 94.4532L107.704 93.7031C95.246 82.988 78.8554 89.5599 76.4706 98.132C51.5555 88.167 26.9784 92.4173 1.54719 107.258L1.12009 107.543C-5.17988 112.062 16.1048 119.241 39.6852 124.705Z" fill="white"/>
<path fill-rule="evenodd" clip-rule="evenodd" d="M326.963 180C325.055 191.511 315.052 200.288 303 200.288C316.416 200.288 327.291 211.164 327.291 224.58C327.291 211.164 338.167 200.288 351.583 200.288V200.28C351.365 200.286 351.146 200.288 350.926 200.288C338.874 200.288 328.872 191.511 326.963 180Z" fill="#463828"/>
</svg>
