<svg width="72" height="72" viewBox="0 0 72 72" fill="none" xmlns="http://www.w3.org/2000/svg">
<g clip-path="url(#clip0_90_693)">
<path d="M27.4118 69.8168C45.8821 74.7659 64.8673 63.8048 69.8164 45.3345C74.7655 26.8642 63.8044 7.879 45.3341 2.92989C26.8638 -2.01921 7.87858 8.94189 2.92948 27.4122C-2.01962 45.8825 8.94148 64.8677 27.4118 69.8168Z" fill="#FF4100" stroke="#463828" stroke-width="1.53881"/>
<path d="M25.0264 47.1689C29.4173 54.7743 39.0428 57.4374 46.5255 53.1173C54.0081 48.7972 56.5145 39.1297 52.1235 31.5244" stroke="#463828" stroke-width="1.53881"/>
<path d="M31.6464 33.8189C32.5552 33.142 32.2632 31.212 30.9942 29.508C29.7251 27.8039 27.9596 26.9712 27.0508 27.648C26.142 28.3249 26.434 30.2549 27.7031 31.9589C28.9721 33.663 30.7376 34.4957 31.6464 33.8189Z" fill="#463828"/>
<path d="M35.9989 29.4668C36.9078 28.79 36.6157 26.8599 35.3467 25.1559C34.0777 23.4519 32.3122 22.6192 31.4034 23.296C30.4945 23.9728 30.7866 25.9029 32.0556 27.6069C33.3246 29.3109 35.0901 30.1436 35.9989 29.4668Z" fill="#463828"/>
</g>
<defs>
<clipPath id="clip0_90_693">
<rect width="72" height="72" fill="white"/>
</clipPath>
</defs>
</svg>
