<svg width="70" height="70" viewBox="0 0 70 70" fill="none" xmlns="http://www.w3.org/2000/svg">
<path d="M68.5 35C68.5 16.4985 53.5015 1.5 35 1.5C16.4985 1.5 1.5 16.4985 1.5 35C1.5 53.5015 16.4985 68.5 35 68.5C53.5015 68.5 68.5 53.5015 68.5 35Z" fill="white" stroke="black" stroke-width="3"/>
<path d="M23.544 42.6C22.904 41.2347 22.2853 40.04 21.688 39.016C21.048 37.992 20.4293 37.1387 19.832 36.456H57.144V33.768H19.832C20.4293 33.0427 21.048 32.168 21.688 31.144C22.2853 30.12 22.904 28.9467 23.544 27.624H21.304C18.616 30.7387 15.8 33.0427 12.856 34.536V35.688C15.8 37.1387 18.616 39.4427 21.304 42.6H23.544Z" fill="black"/>
</svg>
