<svg width="72" height="72" viewBox="0 0 72 72" fill="none" xmlns="http://www.w3.org/2000/svg">
<g clip-path="url(#clip0_88_675)">
<path d="M18.732 66.0283C35.292 75.5892 56.4672 69.9154 66.0282 53.3553C75.5891 36.7953 69.9152 15.6201 53.3552 6.05916C36.7952 -3.50177 15.6199 2.17211 6.05901 18.7321C-3.50193 35.2921 2.17195 56.4674 18.732 66.0283Z" fill="#FF4100" stroke="#463828" stroke-width="1.53881"/>
<path d="M48.2522 36.5771C50.5251 45.0597 45.6021 53.7492 37.2562 55.9855C28.9104 58.2217 20.3022 53.158 18.0293 44.6754" stroke="#463828" stroke-width="1.53881"/>
<path d="M34.1311 31.8187C33.0099 31.9827 31.8516 30.4115 31.544 28.3092C31.2365 26.207 31.896 24.3698 33.0172 24.2057C34.1384 24.0417 35.2967 25.6129 35.6043 27.7152C35.9119 29.8175 35.2523 31.6547 34.1311 31.8187Z" fill="#463828"/>
<path d="M27.9763 31.8187C26.8551 31.9827 25.6968 30.4115 25.3892 28.3092C25.0817 26.207 25.7412 24.3698 26.8625 24.2057C27.9837 24.0417 29.1419 25.6129 29.4495 27.7152C29.7571 29.8175 29.0975 31.6547 27.9763 31.8187Z" fill="#463828"/>
</g>
<defs>
<clipPath id="clip0_88_675">
<rect width="72" height="72" fill="white"/>
</clipPath>
</defs>
</svg>
