<svg width="1018" height="446" viewBox="0 0 1018 446" fill="none" xmlns="http://www.w3.org/2000/svg">
<path d="M0.049891 264.884C0.049891 268.27 0.483908 271.774 0.961367 275.317C2.61077 286.931 22.6641 311.457 69.6287 327.874C125.839 347.558 195.504 355.826 243.554 322.835C239.908 351.219 250.797 401.454 287 432C319 459 388 440.869 400.769 403.619C434.191 405.076 469.185 419.105 488.5 394.5C516.019 437.805 587.195 428.736 633.465 401.454C647.794 420.019 668.393 433.854 692.153 440.869C715.912 447.885 741.542 447.701 765.176 440.346C788.81 432.99 809.165 418.862 823.169 400.093C837.173 381.324 844.067 358.933 842.809 336.299C868.852 349.212 906.355 327.086 903.837 300.198C929.359 321.26 973.286 316.339 996.768 293.348C1020.25 270.356 1023.51 234.295 1010.22 205.359C1000.84 186.05 986.023 169.321 967.252 156.857C967.892 149.699 967.262 142.495 965.386 135.519C963.493 128.632 960.275 122.101 955.88 116.228C946.878 104.968 934.092 96.659 919.441 92.549C904.79 88.439 889.065 88.7496 874.625 93.434C886.084 60.9943 857.871 22.3344 820.499 19.2636C784.342 16.2716 750.052 47.4122 752.222 80.0487C750.442 65.128 736.987 53.7111 723.401 44.8925C691.585 24.3028 664.717 43.0816 658.51 45.3256C658.51 45.3256 608.115 -1.64817 547 0.0446803C485.885 1.73753 443.74 50.9553 443.74 50.9553C436.318 41.4896 425.186 34.9562 412.624 32.6935C400.063 30.4308 387.023 32.61 376.176 38.7848C365.329 44.9595 357.496 54.6624 354.28 65.9058C351.065 77.1493 352.711 89.0824 358.882 99.2605C340.595 83.5048 317.779 72.7455 293.055 68.2178C268.331 63.6901 242.7 65.5775 219.105 73.6634C195.51 81.7492 174.907 95.7058 159.662 113.931C144.416 132.156 135.145 153.911 132.914 176.699C90.9407 165.045 -2.46762 188.234 0.049891 264.884Z" fill="white"/>
</svg>
