<svg width="64" height="63" viewBox="0 0 64 63" fill="none" xmlns="http://www.w3.org/2000/svg">
<path d="M31.9998 62.6667C49.3048 62.6667 63.3332 48.6383 63.3332 31.3333C63.3332 14.0284 49.3048 0 31.9998 0C14.6949 0 0.666504 14.0284 0.666504 31.3333C0.666504 48.6383 14.6949 62.6667 31.9998 62.6667Z" fill="#F1F7ED"/>
<path d="M25.4868 19.6333L29.1135 25.1C30.0602 26.52 30.8468 27.8333 31.6868 29.2533H31.8468C32.6868 27.7267 33.5268 26.4133 34.3735 25.0467L37.9468 19.6333H42.9401L34.2668 31.9333L43.2068 45.0733H37.9468L34.2134 39.34C33.2134 37.8667 32.3734 36.4467 31.4801 34.9267H31.3735C30.5335 36.4533 29.6401 37.82 28.6935 39.34L25.0135 45.0733H19.9135L28.9535 32.0867L20.3335 19.6267H25.4868V19.6333Z" fill="#54494B"/>
</svg>
