<svg width="458" height="218" viewBox="0 0 458 218" fill="none" xmlns="http://www.w3.org/2000/svg">
<path d="M19.8229 217.9C27.0229 217.9 31.3429 212.5 31.3429 206.92C31.3429 205.3 29.1829 205.21 28.6429 206.56C28.2829 209.62 25.9429 211.96 21.9829 211.96C18.6529 211.96 16.3129 209.35 16.3129 204.4V177.4H28.7329C29.4529 177.4 30.0829 176.86 30.0829 176.05V175.15C30.0829 174.43 29.4529 173.8 28.7329 173.8H16.3129L16.2229 165.25C16.2229 164.08 15.8629 163.45 14.7829 163.45H13.8829C13.0729 163.45 12.4429 164.08 12.3529 165.25C11.9029 170.38 9.83285 173.8 5.51285 173.8H2.27285C1.37285 173.8 0.922852 174.34 0.922852 175.15V176.05C0.922852 176.86 1.46285 177.4 2.27285 177.4H8.21285V204.31C8.21285 213.49 12.8929 217.9 19.8229 217.9ZM77.103 210.52L76.113 192.43C75.303 178.84 67.923 172.9 59.1029 172.9C53.343 172.9 48.4829 175.69 45.6929 180.01L45.8729 150.85C45.8729 149.5 44.8829 148.87 43.2629 149.68L35.8829 152.92C35.0729 153.28 34.6229 153.73 34.6229 154.45V154.72C34.6229 156.16 38.0429 156.34 38.0429 159.85V210.7C38.0429 213.85 34.7129 213.76 34.7129 215.56V215.83C34.7129 216.55 35.3429 217 36.4229 217H47.6729C48.7529 217 49.5629 216.55 49.5629 215.83V215.56C49.5629 213.76 45.963 213.85 45.963 210.7V188.83C45.963 181.72 50.553 176.41 57.213 176.41C63.423 176.41 67.833 181.63 68.2829 192.25L69.183 210.61C69.363 213.76 65.943 213.85 65.943 215.56V215.92C65.943 216.64 66.663 217 67.743 217H78.5429C79.623 217 80.343 216.64 80.343 215.92V215.56C80.343 213.85 77.373 213.76 77.103 210.52ZM121.325 204.31C119.345 208.63 115.115 212.14 108.455 212.14C101.165 212.14 95.6753 207.46 93.6053 199.72L118.535 191.53C121.235 190.63 122.765 189.1 122.765 186.22C122.765 180.01 116.825 172.9 106.025 172.9C94.0553 172.9 84.7853 182.35 84.7853 195.04C84.7853 209.08 94.0553 217.9 105.665 217.9C116.915 217.9 122.855 210.43 123.935 205.03C124.205 203.32 122.135 203.05 121.325 204.31ZM104.675 175.78C110.885 175.78 115.205 182.35 115.205 186.4C115.205 187.93 114.575 188.92 113.045 189.55L92.9753 196.75C92.7053 195.31 92.6153 193.78 92.6153 192.16C92.6153 182.98 97.3853 175.78 104.675 175.78ZM155.501 165.25C159.011 165.25 161.351 163 161.351 159.67C161.351 156.34 159.011 154 155.501 154C151.811 154 149.471 156.34 149.471 159.67C149.471 163 151.811 165.25 155.501 165.25ZM150.281 217H161.351C162.431 217 163.241 216.55 163.241 215.83V215.47C163.241 213.76 159.641 213.76 159.641 210.61V174.52C159.641 173.26 158.741 172.36 156.851 173.26L149.921 176.68C149.111 177.13 148.571 177.4 148.571 178.03V178.21C148.571 179.56 151.811 180.28 151.811 183.79V210.61C151.811 213.76 148.571 213.76 148.571 215.47V215.83C148.571 216.55 149.201 217 150.281 217ZM211.945 210.52L210.955 192.79C210.055 178.84 202.675 172.9 193.855 172.9C187.645 172.9 182.425 176.14 179.815 181.18V174.61C179.815 173.26 179.005 172.36 177.295 173.26L170.545 176.5C169.645 176.86 169.105 177.22 169.105 177.85V178.12C169.105 179.74 172.885 179.56 172.885 183.43V210.7C172.885 213.85 169.375 213.85 169.375 215.56V215.92C169.375 216.64 170.095 217.09 171.175 217.09H182.425C183.595 217.09 184.315 216.64 184.315 215.92V215.56C184.315 213.85 180.715 213.85 180.715 210.7V188.83C180.715 181.72 185.305 176.41 191.965 176.41C198.175 176.41 202.585 181.63 203.035 192.61L203.935 210.61C204.115 213.85 200.695 213.85 200.695 215.56V215.92C200.695 216.64 201.415 217.09 202.585 217.09H213.295C214.465 217.09 215.185 216.64 215.185 215.92V215.56C215.185 213.85 212.125 213.85 211.945 210.52ZM259.36 173.8H250.27C249.46 173.8 248.92 174.16 248.92 174.88V175.15C248.92 176.77 253.6 176.86 252.07 181L239.74 211.33L227.05 180.19C225.97 177.31 229.48 176.5 229.48 175.15V174.88C229.48 174.25 228.94 173.8 228.22 173.8H215.71C214.9 173.8 214.36 174.16 214.36 174.79V175.06C214.36 176.77 216.79 177.13 218.23 180.1L234.34 215.2C234.88 216.37 235.51 217 236.77 217H239.56C240.73 217 241.45 216.37 241.9 215.2L256.12 180.1C257.29 177.13 260.71 176.77 260.71 175.06V174.79C260.71 174.16 260.17 173.8 259.36 173.8ZM297.792 204.31C295.812 208.63 291.582 212.14 284.922 212.14C277.632 212.14 272.142 207.46 270.072 199.72L295.002 191.53C297.702 190.63 299.232 189.1 299.232 186.22C299.232 180.01 293.292 172.9 282.492 172.9C270.522 172.9 261.252 182.35 261.252 195.04C261.252 209.08 270.522 217.9 282.132 217.9C293.382 217.9 299.322 210.43 300.402 205.03C300.672 203.32 298.602 203.05 297.792 204.31ZM281.142 175.78C287.352 175.78 291.672 182.35 291.672 186.4C291.672 187.93 291.042 188.92 289.512 189.55L269.442 196.75C269.172 195.31 269.082 193.78 269.082 192.16C269.082 182.98 273.852 175.78 281.142 175.78ZM322.913 217.81C334.073 217.81 341.093 212.41 341.093 205.66C341.093 187.66 313.643 196.48 313.643 183.52C313.643 179.02 317.693 175.69 322.913 175.69C333.983 175.69 331.733 186.67 336.863 186.67C338.663 186.67 340.103 185.32 340.103 183.52C340.103 178.66 333.713 172.9 322.553 172.9C312.653 172.9 305.633 178.3 305.633 185.23C305.633 202.96 333.173 194.05 333.173 207.28C333.173 212.41 328.673 215.2 322.913 215.2C310.853 215.2 313.733 204.22 308.153 204.22C306.083 204.22 304.643 205.39 304.643 207.55C304.643 211.78 310.943 217.81 322.913 217.81ZM362.143 217.9C369.343 217.9 373.663 212.5 373.663 206.92C373.663 205.3 371.503 205.21 370.963 206.56C370.603 209.62 368.263 211.96 364.303 211.96C360.973 211.96 358.633 209.35 358.633 204.4V177.4H371.053C371.773 177.4 372.403 176.86 372.403 176.05V175.15C372.403 174.43 371.773 173.8 371.053 173.8H358.633L358.543 165.25C358.543 164.08 358.183 163.45 357.103 163.45H356.203C355.393 163.45 354.763 164.08 354.673 165.25C354.223 170.38 352.153 173.8 347.833 173.8H344.593C343.693 173.8 343.243 174.34 343.243 175.15V176.05C343.243 176.86 343.783 177.4 344.593 177.4H350.533V204.31C350.533 213.49 355.213 217.9 362.143 217.9ZM399.901 217.9C412.591 217.9 421.141 208.18 421.141 195.76C421.141 183.16 411.781 172.9 398.281 172.9C385.951 172.9 376.411 182.26 376.411 194.77C376.411 207.01 385.591 217.9 399.901 217.9ZM400.981 214.93C391.081 214.93 384.421 203.77 384.421 192.25C384.421 182.17 389.731 175.87 397.381 175.87C406.561 175.87 413.221 185.86 413.221 198.46C413.221 208.54 408.001 214.93 400.981 214.93ZM449.17 172.9C443.59 172.9 439.45 175.96 437.47 181.72V174.52C437.47 173.17 436.84 172.45 435.13 173.26L428.29 176.32C427.48 176.77 426.94 177.31 426.94 177.94V178.12C426.94 179.83 430.54 179.92 430.54 183.34V210.7C430.54 213.85 427.21 213.94 427.21 215.56V215.92C427.21 216.64 427.84 217 429.01 217H440.17C441.34 217 441.97 216.64 441.97 215.92V215.56C441.97 213.94 438.19 213.85 438.19 210.7V190.18C438.19 183.43 440.89 177.76 445.84 177.76C451.42 177.76 449.17 184.06 453.85 184.06C456.37 184.06 457.45 182.17 457.45 179.83C457.45 176.05 454.57 172.9 449.17 172.9Z" fill="#463828"/>
<path d="M56.3998 128.76C82.4478 128.76 104.8 115.56 104.8 92.328C104.8 43.048 35.9838 65.048 35.9838 27.384C35.9838 18.76 41.2638 11.896 52.3518 11.896C74.1758 11.896 68.7198 44.808 90.0158 44.808C98.9918 44.808 103.392 39.704 103.392 31.96C103.568 15.944 82.0958 0.456027 52.8798 0.456027C23.8398 0.456027 5.18377 16.12 5.18377 38.472C5.35977 90.04 74.3518 68.216 74.3518 102.536C74.3518 111.688 67.8398 117.144 57.6318 117.144C31.2318 117.144 34.7518 84.408 15.7438 84.232C6.94377 84.232 3.07177 89.336 3.07177 96.728C3.07177 112.392 24.1918 128.76 56.3998 128.76ZM143.176 127H181.72C184.36 127 185.944 125.768 185.944 123.656V122.952C185.944 118.024 178.376 115.912 178.376 107.816V15.24H187.528C199.496 15.24 201.784 36.536 210.056 36.536H213.048C216.04 36.536 217.976 34.6 217.448 31.608L213.752 7.49603C213.224 3.62402 211.64 2.04002 207.768 2.04002H117.304C113.432 2.04002 111.672 3.62402 111.32 7.49603L107.8 31.432C107.448 34.6 109.208 36.536 112.2 36.536H115.192C123.464 36.536 125.576 15.24 137.368 15.24H146.696V107.816C146.696 115.912 139.128 118.024 139.128 122.952V123.656C139.128 125.768 140.712 127 143.176 127ZM281.336 128.76C315.656 128.76 343.288 103.592 343.288 65.4C343.288 27.56 314.952 0.280029 281.16 0.280029C244.024 0.280029 219.032 26.68 219.032 65.224C219.032 102.888 247.896 128.76 281.336 128.76ZM290.488 115.56C269.368 115.56 250.008 72.616 250.008 39.176C250.008 22.808 257.224 13.48 269.72 13.48C290.84 13.48 310.552 60.296 310.552 90.392C310.552 105.88 303.336 115.56 290.488 115.56ZM356.652 127H395.372C397.836 127 399.596 125.768 399.596 123.656V122.952C399.596 118.024 391.676 115.912 391.676 107.816V87.4H406.284C436.732 87.4 456.62 70.152 456.62 43.752C456.62 14.008 432.332 2.04002 400.476 2.04002H356.652C354.012 2.04002 352.428 3.27203 352.428 5.38402V6.08802C352.428 11.016 359.468 13.304 359.468 21.224V107.816C359.468 115.912 352.428 118.024 352.428 122.952V123.656C352.428 125.768 354.012 127 356.652 127ZM399.772 75.08C393.964 75.08 391.676 72.088 391.676 66.632V22.632C391.676 17.352 393.964 14.184 398.012 14.184H400.476C411.388 14.184 423.532 28.088 423.532 51.144C423.532 63.816 417.9 75.08 406.284 75.08H399.772Z" fill="#463828"/>
</svg>
