<svg width="227" height="109" viewBox="0 0 227 109" fill="none" xmlns="http://www.w3.org/2000/svg">
<path d="M9.71033 108.339C13.2796 108.339 15.4212 105.662 15.4212 102.896C15.4212 102.093 14.3504 102.048 14.0827 102.717C13.9043 104.234 12.7442 105.394 10.7811 105.394C9.13031 105.394 7.97028 104.1 7.97028 101.646V88.2615H14.1274C14.4843 88.2615 14.7966 87.9938 14.7966 87.5922V87.146C14.7966 86.7891 14.4843 86.4768 14.1274 86.4768H7.97028L7.92566 82.2382C7.92566 81.6582 7.7472 81.3459 7.21179 81.3459H6.76563C6.36408 81.3459 6.05176 81.6582 6.00714 82.2382C5.78406 84.7814 4.75787 86.4768 2.61627 86.4768H1.01007C0.563904 86.4768 0.34082 86.7445 0.34082 87.146V87.5922C0.34082 87.9938 0.60852 88.2615 1.01007 88.2615H3.95477V101.602C3.95477 106.153 6.27484 108.339 9.71033 108.339ZM38.1064 104.68L37.6156 95.7125C37.2141 88.9753 33.5555 86.0306 29.1831 86.0306C26.3276 86.0306 23.9183 87.4137 22.5352 89.5553L22.6244 75.0995C22.6244 74.4303 22.1336 74.118 21.3305 74.5195L17.6719 76.1257C17.2704 76.3042 17.0473 76.5273 17.0473 76.8842V77.018C17.0473 77.7319 18.7427 77.8212 18.7427 79.5612V104.77C18.7427 106.331 17.0919 106.287 17.0919 107.179V107.313C17.0919 107.67 17.4042 107.893 17.9396 107.893H23.5167C24.0521 107.893 24.4537 107.67 24.4537 107.313V107.179C24.4537 106.287 22.669 106.331 22.669 104.77V93.9278C22.669 90.4031 24.9445 87.7707 28.2461 87.7707C31.3247 87.7707 33.5109 90.3585 33.734 95.6232L34.1801 104.725C34.2694 106.287 32.5739 106.331 32.5739 107.179V107.357C32.5739 107.714 32.9309 107.893 33.4663 107.893H38.8203C39.3557 107.893 39.7126 107.714 39.7126 107.357V107.179C39.7126 106.331 38.2403 106.287 38.1064 104.68ZM60.0293 101.602C59.0477 103.743 56.9507 105.484 53.6491 105.484C50.0351 105.484 47.3135 103.163 46.2873 99.3264L58.6461 95.2663C59.9846 94.8201 60.7431 94.0616 60.7431 92.6339C60.7431 89.5553 57.7984 86.0306 52.4444 86.0306C46.5104 86.0306 41.9149 90.7154 41.9149 97.0063C41.9149 103.967 46.5104 108.339 52.2659 108.339C57.843 108.339 60.7877 104.636 61.3231 101.959C61.457 101.111 60.4308 100.977 60.0293 101.602ZM51.7752 87.4584C54.8537 87.4584 56.9953 90.7154 56.9953 92.7231C56.9953 93.4816 56.683 93.9724 55.9245 94.2847L45.975 97.8541C45.8411 97.1402 45.7965 96.3817 45.7965 95.5786C45.7965 91.0277 48.1612 87.4584 51.7752 87.4584ZM76.9714 82.2382C78.7115 82.2382 79.8715 81.1228 79.8715 79.472C79.8715 77.8212 78.7115 76.6611 76.9714 76.6611C75.1421 76.6611 73.9821 77.8212 73.9821 79.472C73.9821 81.1228 75.1421 82.2382 76.9714 82.2382ZM74.3836 107.893H79.8715C80.4069 107.893 80.8084 107.67 80.8084 107.313V107.134C80.8084 106.287 79.0238 106.287 79.0238 104.725V86.8337C79.0238 86.2091 78.5776 85.7629 77.6407 86.2091L74.2052 87.9045C73.8036 88.1276 73.5359 88.2615 73.5359 88.5738V88.663C73.5359 89.3323 75.1421 89.6892 75.1421 91.4293V104.725C75.1421 106.287 73.5359 106.287 73.5359 107.134V107.313C73.5359 107.67 73.8482 107.893 74.3836 107.893ZM104.954 104.68L104.463 95.8909C104.017 88.9753 100.358 86.0306 95.9854 86.0306C92.9069 86.0306 90.3191 87.6368 89.0252 90.1354V86.8783C89.0252 86.2091 88.6237 85.7629 87.776 86.2091L84.4297 87.8153C83.9835 87.9938 83.7158 88.1722 83.7158 88.4845V88.6184C83.7158 89.4215 85.5897 89.3323 85.5897 91.2508V104.77C85.5897 106.331 83.8497 106.331 83.8497 107.179V107.357C83.8497 107.714 84.2066 107.937 84.742 107.937H90.3191C90.8991 107.937 91.2561 107.714 91.2561 107.357V107.179C91.2561 106.331 89.4714 106.331 89.4714 104.77V93.9278C89.4714 90.4031 91.7469 87.7707 95.0485 87.7707C98.127 87.7707 100.313 90.3585 100.536 95.8017L100.983 104.725C101.072 106.331 99.3763 106.331 99.3763 107.179V107.357C99.3763 107.714 99.7332 107.937 100.313 107.937H105.623C106.203 107.937 106.56 107.714 106.56 107.357V107.179C106.56 106.331 105.043 106.331 104.954 104.68ZM128.459 86.4768H123.953C123.551 86.4768 123.283 86.6553 123.283 87.0122V87.146C123.283 87.9491 125.603 87.9938 124.845 90.0461L118.732 105.082L112.441 89.6446C111.906 88.2168 113.646 87.8153 113.646 87.146V87.0122C113.646 86.6999 113.378 86.4768 113.021 86.4768H106.82C106.418 86.4768 106.15 86.6553 106.15 86.9676V87.1014C106.15 87.9491 107.355 88.1276 108.069 89.6L116.055 107C116.323 107.581 116.635 107.893 117.26 107.893H118.643C119.223 107.893 119.58 107.581 119.803 107L126.853 89.6C127.433 88.1276 129.128 87.9491 129.128 87.1014V86.9676C129.128 86.6553 128.86 86.4768 128.459 86.4768ZM147.511 101.602C146.53 103.743 144.433 105.484 141.131 105.484C137.517 105.484 134.795 103.163 133.769 99.3264L146.128 95.2663C147.467 94.8201 148.225 94.0616 148.225 92.6339C148.225 89.5553 145.28 86.0306 139.926 86.0306C133.992 86.0306 129.397 90.7154 129.397 97.0063C129.397 103.967 133.992 108.339 139.748 108.339C145.325 108.339 148.27 104.636 148.805 101.959C148.939 101.111 147.913 100.977 147.511 101.602ZM139.257 87.4584C142.336 87.4584 144.477 90.7154 144.477 92.7231C144.477 93.4816 144.165 93.9724 143.406 94.2847L133.457 97.8541C133.323 97.1402 133.278 96.3817 133.278 95.5786C133.278 91.0277 135.643 87.4584 139.257 87.4584ZM159.965 108.294C165.497 108.294 168.977 105.617 168.977 102.271C168.977 93.3478 155.369 97.7202 155.369 91.2954C155.369 89.0646 157.377 87.4137 159.965 87.4137C165.452 87.4137 164.337 92.857 166.88 92.857C167.772 92.857 168.486 92.1877 168.486 91.2954C168.486 88.8861 165.319 86.0306 159.786 86.0306C154.878 86.0306 151.398 88.7076 151.398 92.1431C151.398 100.933 165.051 96.5156 165.051 103.074C165.051 105.617 162.82 107 159.965 107C153.986 107 155.414 101.557 152.647 101.557C151.621 101.557 150.907 102.137 150.907 103.208C150.907 105.305 154.031 108.294 159.965 108.294ZM179.413 108.339C182.982 108.339 185.123 105.662 185.123 102.896C185.123 102.093 184.053 102.048 183.785 102.717C183.607 104.234 182.446 105.394 180.483 105.394C178.833 105.394 177.672 104.1 177.672 101.646V88.2615H183.83C184.187 88.2615 184.499 87.9938 184.499 87.5922V87.146C184.499 86.7891 184.187 86.4768 183.83 86.4768H177.672L177.628 82.2382C177.628 81.6582 177.449 81.3459 176.914 81.3459H176.468C176.066 81.3459 175.754 81.6582 175.709 82.2382C175.486 84.7814 174.46 86.4768 172.318 86.4768H170.712C170.266 86.4768 170.043 86.7445 170.043 87.146V87.5922C170.043 87.9938 170.311 88.2615 170.712 88.2615H173.657V101.602C173.657 106.153 175.977 108.339 179.413 108.339ZM198.131 108.339C204.422 108.339 208.661 103.52 208.661 97.3633C208.661 91.1169 204.02 86.0306 197.328 86.0306C191.215 86.0306 186.486 90.6708 186.486 96.8725C186.486 102.94 191.037 108.339 198.131 108.339ZM198.666 106.867C193.759 106.867 190.457 101.334 190.457 95.6232C190.457 90.6261 193.089 87.503 196.882 87.503C201.433 87.503 204.734 92.4554 204.734 98.7018C204.734 103.699 202.146 106.867 198.666 106.867ZM222.556 86.0306C219.789 86.0306 217.737 87.5476 216.755 90.4031V86.8337C216.755 86.1645 216.443 85.8075 215.595 86.2091L212.204 87.7261C211.803 87.9491 211.535 88.2168 211.535 88.5292V88.6184C211.535 89.4661 213.32 89.5107 213.32 91.2062V104.77C213.32 106.331 211.669 106.376 211.669 107.179V107.357C211.669 107.714 211.981 107.893 212.561 107.893H218.094C218.674 107.893 218.986 107.714 218.986 107.357V107.179C218.986 106.376 217.112 106.331 217.112 104.77V94.597C217.112 91.2508 218.451 88.4399 220.905 88.4399C223.671 88.4399 222.556 91.5631 224.876 91.5631C226.125 91.5631 226.66 90.6261 226.66 89.4661C226.66 87.5922 225.233 86.0306 222.556 86.0306Z" fill="#463828"/>
<path d="M27.8515 63.9084C40.7646 63.9084 51.8454 57.3646 51.8454 45.8475C51.8454 21.4174 17.7304 32.3237 17.7304 13.6521C17.7304 9.37688 20.3479 5.97411 25.8447 5.97411C36.6638 5.97411 33.959 22.2899 44.5163 22.2899C48.9661 22.2899 51.1474 19.7596 51.1474 15.9206C51.2346 7.98087 40.5901 0.302825 26.1065 0.302825C11.7102 0.302825 2.46156 8.06812 2.46156 19.1489C2.54881 44.7133 36.751 33.8942 36.751 50.9081C36.751 55.4451 33.5228 58.1499 28.4622 58.1499C15.3747 58.1499 17.1197 41.9213 7.69659 41.834C3.33406 41.834 1.41455 44.3643 1.41455 48.0288C1.41455 55.7941 11.8847 63.9084 27.8515 63.9084ZM70.8701 63.0359H89.9779C91.2867 63.0359 92.0719 62.4251 92.0719 61.3781V61.0291C92.0719 58.5861 88.3202 57.5391 88.3202 53.5256V7.63187H92.8572C98.7902 7.63187 99.9245 18.1891 104.025 18.1891H105.508C106.992 18.1891 107.951 17.2294 107.69 15.7461L105.857 3.79285C105.596 1.87334 104.81 1.08808 102.891 1.08808H58.0442C56.1247 1.08808 55.2522 1.87334 55.0777 3.79285L53.3327 15.6589C53.1582 17.2294 54.0307 18.1891 55.514 18.1891H56.9972C61.098 18.1891 62.145 7.63187 67.9908 7.63187H72.6151V53.5256C72.6151 57.5391 68.8633 58.5861 68.8633 61.0291V61.3781C68.8633 62.4251 69.6486 63.0359 70.8701 63.0359ZM139.362 63.9084C156.375 63.9084 170.074 51.4316 170.074 32.4982C170.074 13.7394 156.026 0.215576 139.274 0.215576C120.864 0.215576 108.475 13.3031 108.475 32.411C108.475 51.0826 122.784 63.9084 139.362 63.9084ZM143.899 57.3646C133.429 57.3646 123.831 36.0755 123.831 19.4979C123.831 11.3836 127.408 6.75937 133.603 6.75937C144.073 6.75937 153.845 29.968 153.845 44.8878C153.845 52.5658 150.268 57.3646 143.899 57.3646ZM176.699 63.0359H195.894C197.115 63.0359 197.988 62.4251 197.988 61.3781V61.0291C197.988 58.5861 194.062 57.5391 194.062 53.5256V43.4045H201.303C216.398 43.4045 226.257 34.854 226.257 21.7664C226.257 7.02112 214.216 1.08808 198.424 1.08808H176.699C175.39 1.08808 174.605 1.69884 174.605 2.74584V3.09485C174.605 5.53786 178.095 6.67212 178.095 10.5983V53.5256C178.095 57.5391 174.605 58.5861 174.605 61.0291V61.3781C174.605 62.4251 175.39 63.0359 176.699 63.0359ZM198.075 37.297C195.196 37.297 194.062 35.8137 194.062 33.109V11.2963C194.062 8.67888 195.196 7.10837 197.203 7.10837H198.424C203.834 7.10837 209.854 14.0011 209.854 25.4309C209.854 31.713 207.062 37.297 201.303 37.297H198.075Z" fill="#463828"/>
</svg>
