<svg width="120" height="120" viewBox="0 0 120 120" fill="none" xmlns="http://www.w3.org/2000/svg">
<g clip-path="url(#clip0_91_727)">
<path d="M52.8946 117.514C84.8109 121.285 113.742 98.4698 117.514 66.5534C121.285 34.6371 98.4697 5.70613 66.5533 1.93437C34.637 -1.8374 5.70605 20.9783 1.93429 52.8946C-1.83748 84.811 20.9782 113.742 52.8946 117.514Z" fill="#F89094" stroke="#191432" stroke-width="2.5863"/>
<path d="M95.916 82.0969C90.544 68.3493 75.2243 61.4893 61.6985 66.7747C48.1726 72.0601 45.5129 87.4381 48.6709 94.7886" stroke="#191432" stroke-width="2.5863"/>
<path d="M52.1836 55.3492C49.9346 56.2167 46.8776 54.2806 45.3556 51.0249C43.8335 47.7693 44.4229 44.4268 46.6719 43.5594C48.9209 42.692 51.978 44.628 53.5 47.8837C55.022 51.1394 54.4327 54.4818 52.1836 55.3492Z" fill="#191432"/>
<path d="M39.8516 59.5665C37.6026 60.4339 34.5455 58.4979 33.0235 55.2422C31.5015 51.9866 32.0909 48.6441 34.3399 47.7767C36.5889 46.9092 39.6459 48.8453 41.168 52.101C42.69 55.3566 42.1006 58.6991 39.8516 59.5665Z" fill="#191432"/>
</g>
<defs>
<clipPath id="clip0_91_727">
<rect width="120" height="120" fill="white"/>
</clipPath>
</defs>
</svg>
