<svg width="103" height="105" viewBox="0 0 103 105" fill="none" xmlns="http://www.w3.org/2000/svg">
<path d="M51.5001 0L55.9624 32.9496L74.279 5.19913L64.0031 36.8218L92.5463 19.7668L69.5674 43.7992L102.684 40.8176L71.5533 52.5L102.684 64.1824L69.5674 61.2008L92.5463 85.2332L64.0031 68.1782L74.279 99.8009L55.9624 72.0504L51.5001 105L47.0378 72.0504L28.7212 99.8009L38.9971 68.1782L10.4539 85.2332L33.4328 61.2008L0.316406 64.1824L31.4469 52.5L0.316406 40.8176L33.4328 43.7992L10.4539 19.7668L38.9971 36.8218L28.7212 5.19913L47.0378 32.9496L51.5001 0Z" fill="#FF4100"/>
<path d="M58.5662 45.8545L44.396 60.0246" stroke="black" stroke-width="1.70871" stroke-linecap="round"/>
<path d="M58.0246 60.0246L43.8545 45.8545" stroke="black" stroke-width="1.70871" stroke-linecap="round"/>
</svg>
