<svg width="1920" height="92" viewBox="0 0 1920 92" fill="none" xmlns="http://www.w3.org/2000/svg">
<g clip-path="url(#clip0_91_747)">
<path d="M1919.5 142.5H0.5L0.50001 26.8654L0.884532 26.834C1.443 26.7884 2.27455 26.7207 3.36732 26.6323C5.55287 26.4555 8.78285 26.1959 12.9605 25.8648C21.3157 25.2025 33.4616 24.254 48.6237 23.1091C78.9479 20.8192 121.337 17.7436 169.595 14.6008C266.114 8.31486 386.103 1.76064 480.006 0.684752C573.515 -0.386635 693.17 3.37851 789.454 7.41197C837.595 9.42865 879.891 11.5123 910.152 13.0918C925.283 13.8816 937.404 14.5452 945.743 15.0115C949.912 15.2446 953.136 15.4284 955.317 15.5539C956.408 15.6166 957.238 15.6648 957.795 15.6973L958.425 15.7341L958.584 15.7434L958.624 15.7457L958.634 15.7463C958.635 15.7464 958.635 15.7464 958.636 15.7326C958.636 15.7465 958.637 15.7465 958.637 15.7465L958.647 15.7472L958.688 15.7499L958.849 15.7604L959.489 15.8022C960.055 15.839 960.898 15.8936 962.005 15.9647C964.22 16.1071 967.493 16.3157 971.726 16.5809C980.192 17.1112 992.497 17.8675 1007.86 18.7719C1038.58 20.5805 1081.52 22.9811 1130.4 25.3485C1228.15 30.0833 1349.66 34.6863 1444.67 34.1572C1537.65 33.6393 1656.49 27.9205 1752.09 22.3317C1799.88 19.5372 1841.87 16.7751 1871.91 14.7116C1886.93 13.6798 1898.96 12.8227 1907.24 12.2235C1911.38 11.9239 1914.58 11.6888 1916.74 11.5286C1917.82 11.4485 1918.65 11.3871 1919.2 11.3458L1919.5 11.3234V142.5Z" fill="#63CDC7" stroke="#191432"/>
</g>
<defs>
<clipPath id="clip0_91_747">
<rect width="1920" height="92" fill="white"/>
</clipPath>
</defs>
</svg>
