<svg width="187" height="209" viewBox="0 0 187 209" fill="none" xmlns="http://www.w3.org/2000/svg">
<g clip-path="url(#clip0_91_739)">
<path d="M156.096 110.396C128.263 126.465 92.6738 116.929 76.6046 89.0961C60.5354 61.2634 70.0716 25.6739 97.9043 9.60469C125.737 -6.46453 161.326 3.07165 177.396 30.9043C193.465 58.737 183.929 94.3266 156.096 110.396Z" fill="#798BC5" stroke="#191432" stroke-width="2.5863"/>
<path d="M102.585 94.8474C102.092 80.0958 113.457 67.7435 127.971 67.2578C142.485 66.7722 151.001 79.8499 151.002 87.8501" stroke="#191432" stroke-width="2.5863"/>
<path d="M112.201 53.0031C114.61 52.9119 116.654 49.926 116.766 46.3339C116.879 42.7418 115.017 39.9037 112.609 39.995C110.2 40.0862 108.156 43.0721 108.043 46.6642C107.931 50.2563 109.792 53.0944 112.201 53.0031Z" fill="#191432"/>
<path d="M125.197 52.007C127.606 51.9158 129.65 48.9299 129.762 45.3378C129.875 41.7457 128.013 38.9077 125.605 38.9989C123.196 39.0901 121.152 42.076 121.039 45.6681C120.927 49.2603 122.788 52.0983 125.197 52.007Z" fill="#191432"/>
<path d="M152.002 44.0245C152.001 44.0228 152.001 44.0212 152 44.0195C152.218 43.9988 152.539 43.97 152.95 43.938C153.771 43.8741 154.951 43.7972 156.381 43.7461C159.242 43.6438 163.105 43.6442 167.114 44.0544C171.126 44.4648 175.27 45.2841 178.703 46.8122C182.136 48.3402 184.83 50.5639 185.994 53.7698C188.28 60.0638 183.707 67.0192 177.492 68.409C174.177 69.1505 170.924 68.0171 167.887 65.854C164.851 63.6905 162.056 60.5149 159.677 57.2301C157.3 53.9476 155.346 50.5681 153.985 48.008C153.305 46.7284 152.774 45.6542 152.413 44.9004C152.233 44.5235 152.095 44.2268 152.002 44.0245Z" fill="#63CDC7" stroke="black" stroke-width="0.483165"/>
<path d="M31.4736 112.424C31.4754 112.424 31.4772 112.424 31.479 112.423C31.479 112.423 31.479 112.423 31.4789 112.424C31.4391 112.639 31.3786 112.956 31.2968 113.359C31.133 114.167 30.8834 115.322 30.5402 116.711C29.8537 119.491 28.7937 123.205 27.2995 126.948C25.8044 130.693 23.8796 134.454 21.4686 137.336C19.0575 140.218 16.1802 142.199 12.7779 142.439C6.09837 142.911 0.664114 136.605 1.03232 130.248C1.22877 126.856 3.21091 124.039 6.12402 121.712C9.03752 119.385 12.8578 117.569 16.6691 116.183C20.4779 114.797 24.2638 113.845 27.0988 113.239C28.516 112.936 29.6946 112.72 30.5185 112.579C30.9304 112.509 31.2536 112.458 31.4736 112.424Z" fill="#63CDC7" stroke="black" stroke-width="0.483165"/>
<path d="M137.966 171.341C137.967 171.339 137.968 171.337 137.968 171.336C138.138 171.475 138.385 171.681 138.699 171.948C139.326 172.483 140.216 173.26 141.265 174.234C143.365 176.18 146.102 178.906 148.653 182.026C151.206 185.148 153.564 188.653 154.918 192.158C156.272 195.663 156.611 199.14 155.174 202.233C152.352 208.305 144.204 210.007 138.82 206.606C135.947 204.791 134.442 201.693 133.817 198.018C133.192 194.342 133.454 190.12 134.086 186.114C134.718 182.11 135.718 178.337 136.561 175.563C136.982 174.176 137.363 173.04 137.64 172.252C137.778 171.857 137.889 171.55 137.966 171.341Z" fill="#63CDC7" stroke="black" stroke-width="0.483165"/>
</g>
<defs>
<clipPath id="clip0_91_739">
<rect width="187" height="209" fill="white"/>
</clipPath>
</defs>
</svg>
