<svg width="298" height="272" viewBox="0 0 298 272" fill="none" xmlns="http://www.w3.org/2000/svg">
<g clip-path="url(#clip0_91_732)">
<path d="M244.554 117.514C212.637 121.285 183.706 98.4697 179.935 66.5534C176.163 34.6371 198.979 5.70614 230.895 1.93437C262.811 -1.8374 291.742 20.9783 295.514 52.8946C299.286 84.811 276.47 113.742 244.554 117.514Z" fill="#E95A29" stroke="#191432" stroke-width="2.5863"/>
<path d="M201.532 82.0969C206.904 68.3493 222.224 61.4893 235.75 66.7747C249.276 72.0601 251.935 87.4381 248.777 94.7886" stroke="#191432" stroke-width="2.5863"/>
<path d="M245.266 55.3492C247.515 56.2167 250.572 54.2806 252.094 51.0249C253.616 47.7693 253.026 44.4268 250.777 43.5594C248.528 42.692 245.471 44.628 243.949 47.8837C242.427 51.1394 243.017 54.4818 245.266 55.3492Z" fill="#191432"/>
<path d="M257.596 59.5665C259.845 60.4339 262.902 58.4979 264.424 55.2422C265.946 51.9866 265.356 48.6441 263.107 47.7767C260.858 46.9092 257.801 48.8453 256.279 52.101C254.757 55.3566 255.347 58.6991 257.596 59.5665Z" fill="#191432"/>
<path d="M32.9548 243.081C32.9566 243.081 32.9584 243.081 32.9602 243.081C32.9602 243.081 32.9602 243.081 32.9601 243.081C32.8992 243.291 32.8078 243.6 32.6865 243.994C32.4439 244.781 32.0816 245.906 31.603 247.255C30.6456 249.954 29.2243 253.545 27.3682 257.122C25.5109 260.702 23.2245 264.255 20.5409 266.885C17.8573 269.515 14.7987 271.202 11.3892 271.105C4.69576 270.915 -0.0899485 264.105 0.903635 257.814C1.43373 254.459 3.68411 251.851 6.81255 249.823C9.94139 247.795 13.9222 246.365 17.8517 245.361C21.7786 244.357 25.64 243.783 28.521 243.46C29.9611 243.298 31.1553 243.199 31.989 243.141C32.4059 243.112 32.7326 243.093 32.9548 243.081Z" fill="#63CDC7" stroke="black" stroke-width="0.483165"/>
<path d="M191.355 71.3035C191.357 71.3032 191.359 71.3029 191.361 71.3027V71.3028C191.323 71.5187 191.265 71.8358 191.187 72.2402C191.03 73.049 190.791 74.2063 190.46 75.5989C189.799 78.3847 188.772 82.1083 187.311 85.8644C185.85 89.6228 183.959 93.4007 181.574 96.3042C179.188 99.2077 176.329 101.214 172.929 101.484C166.254 102.016 160.763 95.759 161.075 89.3986C161.241 86.0051 163.198 83.1704 166.09 80.8178C168.983 78.4648 172.786 76.615 176.585 75.1942C180.381 73.7745 184.159 72.7883 186.988 72.157C188.403 71.8415 189.579 71.6148 190.402 71.4671C190.813 71.3932 191.136 71.3391 191.355 71.3035Z" fill="#63CDC7" stroke="black" stroke-width="0.483165"/>
</g>
<defs>
<clipPath id="clip0_91_732">
<rect width="298" height="272" fill="white"/>
</clipPath>
</defs>
</svg>
