<svg width="1171" height="428" viewBox="0 0 1171 428" fill="none" xmlns="http://www.w3.org/2000/svg">
<path d="M80.0522 251.553C103.413 257.084 127.165 260.794 151.096 262.649C151.778 273.456 156.086 284.263 169.045 289.955C176.118 293.078 183.695 294.896 191.41 295.322C195.395 326.447 211.37 359.264 261.234 358.652C301.369 358.112 327.682 344.242 344.77 328.14C350.769 334.823 358.423 339.794 366.956 342.549C377.989 346.18 389.902 346.091 400.88 342.297C401.096 344.243 401.347 346.188 401.742 348.097C410.357 388.228 440.836 426.665 510.336 410.382C521.684 408.049 532.385 403.251 541.688 396.324C550.991 389.397 558.67 380.51 564.184 370.288C576.497 388.3 597.785 403.79 633.756 409.914C648.269 412.681 663.223 412.054 677.456 408.081C691.689 404.107 704.817 396.894 715.821 387.003C717.378 397.043 722.066 406.33 729.212 413.529C736.359 420.728 745.595 425.468 755.595 427.069C765.594 428.67 775.842 427.049 784.866 422.439C793.89 417.83 801.226 410.468 805.819 401.412C883.827 435.238 941.517 368.342 938.896 336.569C948.481 348.457 980.898 349.178 999.601 340.46C1005.27 337.749 1010.28 333.827 1014.28 328.968C1030.65 336.891 1048.72 340.594 1066.86 339.743C1085.01 338.891 1102.66 333.511 1118.21 324.09C1133.77 314.669 1146.73 301.504 1155.94 285.787C1165.14 270.071 1170.3 252.298 1170.93 234.079C1171.57 215.86 1167.67 197.77 1159.58 181.446C1151.49 165.121 1139.48 151.078 1124.62 140.588C1109.76 130.098 1092.53 123.492 1074.49 121.368C1056.44 119.244 1038.16 121.669 1021.28 128.424C1010.94 111.313 988.975 86.3124 945.896 78.6393C940.789 77.7133 935.613 77.2193 930.424 77.1623C924.704 55.7431 912.319 36.7161 895.071 22.853C877.824 8.98997 856.616 1.01524 834.538 0.0905865C812.459 -0.83407 790.663 5.33965 772.324 17.7124C753.986 30.0851 740.064 48.0104 732.585 68.8769C725.92 65.1389 718.613 62.6947 711.046 61.6721C704.255 60.6414 697.333 60.8611 690.62 62.3205C683.765 50.7603 672.98 42.0739 660.249 37.8604C651.327 35.3762 641.935 35.1146 632.889 37.0984C623.843 39.0821 615.416 43.2512 608.339 49.2439C602.691 34.7205 592.646 22.34 579.619 13.845C566.592 5.35003 551.238 1.16816 535.718 1.88798C520.198 2.60781 505.294 8.19309 493.104 17.8577C480.913 27.5224 472.049 40.7798 467.76 55.7642C436.564 42.7957 362.623 30.0984 316.877 90.4911C298.927 107.71 289.773 143.59 297.635 166.861C275.162 160.629 257.213 174.859 261.234 197.95C210.975 168.266 244.541 170.716 218.406 190.529L217.258 189.016C192.128 167.402 159.066 180.659 154.255 197.95C103.997 177.849 54.4204 186.422 3.12097 216.358L2.25943 216.935C-10.4488 226.049 32.4862 240.53 80.0522 251.553Z" fill="white"/>
</svg>
