<svg width="144" height="144" viewBox="0 0 144 144" fill="none" xmlns="http://www.w3.org/2000/svg">
<g clip-path="url(#clip0_85_2)">
<path d="M37.301 132.706C70.7055 151.992 113.42 140.547 132.706 107.142C151.992 73.7376 140.547 31.0234 107.142 11.7373C73.7377 -7.54886 31.0235 3.89637 11.7374 37.3009C-7.54875 70.7054 3.89648 113.42 37.301 132.706Z" fill="#FF4100" stroke="#191432" stroke-width="3.10405"/>
<path d="M96.8494 73.2982C101.434 90.4093 91.5036 107.937 74.6685 112.448C57.8335 116.959 40.4692 106.745 35.8843 89.6338" stroke="#191432" stroke-width="3.10405"/>
<path d="M68.3646 63.6998C66.1029 64.0307 63.7665 60.8612 63.146 56.6206C62.5256 52.3799 63.8561 48.674 66.1177 48.343C68.3794 48.0121 70.7159 51.1816 71.3363 55.4223C71.9567 59.6629 70.6263 63.3689 68.3646 63.6998Z" fill="#191432"/>
<path d="M55.949 63.6998C53.6874 64.0307 51.3509 60.8612 50.7305 56.6206C50.11 52.3799 51.4405 48.674 53.7022 48.343C55.9639 48.0121 58.3003 51.1816 58.9208 55.4223C59.5412 59.6629 58.2107 63.3689 55.949 63.6998Z" fill="#191432"/>
</g>
<defs>
<clipPath id="clip0_85_2">
<rect width="144" height="144" fill="white"/>
</clipPath>
</defs>
</svg>
