<svg width="322" height="532" viewBox="0 0 322 532" fill="none" xmlns="http://www.w3.org/2000/svg">
<g opacity="0.8">
<path d="M61.4104 254.58C60.9704 254.27 60.5304 253.96 60.0904 253.65C60.0904 251.86 60.0904 250.07 60.0904 248.28C60.0904 210.79 60.0304 173.29 60.1304 135.8C60.1604 126.6 57.1704 119 50.4104 112.62C41.1304 103.87 29.7504 101.29 18.4204 105.94C7.16044 110.56 0.100368 121.1 0.100368 133.47C0.0803682 200.76 0.160432 268.05 0.0404317 335.35C0.0204317 349.61 2.02044 363.5 6.30044 377.02C21.2604 424.26 51.3604 457.9 96.4104 478.84C124.56 491.93 154.14 493.75 183.82 490.32C217.24 486.47 246.23 471.63 270.82 448.06C305.39 414.93 322.1 374.66 321.82 327.03C321.74 312.9 321.81 298.77 321.81 284.64C321.81 257.78 321.9 230.92 321.78 204.06C321.69 183.7 301.97 169.22 282.53 175.04C269.34 179 260.64 191 260.63 205.45C260.61 243.78 260.64 282.12 260.64 320.45C260.64 322.06 260.46 323.67 260.35 325.57C253.81 325.87 247.7 326.27 241.58 326.39C224.38 326.72 207.91 330.02 193.25 339.4C184.06 345.28 176.79 352.94 176.09 364.75C175.68 371.64 174.75 372.41 167.78 370.81C167.73 369.92 167.58 368.96 167.63 368.01C168.42 352 176.38 340.24 189.81 332.24C205.75 322.75 223.35 318.82 241.75 318.17C245.46 318.04 249.18 318.15 252.97 318.15C253.1 316.31 253.23 315.35 253.23 314.39C253.24 231.15 253.17 147.91 253.3 64.67C253.32 50.18 239.75 34.27 222.83 34.17C208.56 34.09 192.68 50.25 192.86 64.23C193.61 120.46 193.17 176.71 193.17 232.95C193.17 234.21 193.4 235.54 193.08 236.71C192.81 237.69 191.88 238.49 191.25 239.37C190.52 238.43 189.57 237.58 189.13 236.53C188.78 235.69 189.06 234.6 189.06 233.62C189.06 166.89 188.94 100.16 189.17 33.42C189.21 21.24 183.96 12.41 174.53 5.83002C165.4 -0.549977 155.13 -1.10999 145.55 4.25001C135.97 9.61001 128.78 17.6 128.46 29.45C128.23 37.96 129.01 46.49 129.02 55.01C129.08 116.42 129.05 177.85 129.05 239.26C129.05 240.38 129.02 241.5 129.04 242.62C129.11 245.66 127.82 247.04 124.18 246.18C124.18 244.45 124.18 242.67 124.18 240.89C124.18 180.59 124.21 120.29 124.15 60C124.13 43.42 110.26 29.83 93.8004 29.95C77.5004 30.06 63.8304 43.64 64.0104 60.02C64.2404 82.22 65.0905 104.42 65.2005 126.62C65.4005 166.91 65.2604 207.2 65.2204 247.5C65.2204 249 64.9504 250.64 64.2904 251.95C63.7104 253.01 62.3904 253.71 61.4104 254.58Z" fill="#56CED0"/>
<path d="M61.4104 254.58C62.3904 253.71 63.7103 253.01 64.2703 251.92C64.9403 250.61 65.2004 248.97 65.2004 247.47C65.2504 207.18 65.3904 166.89 65.1804 126.59C65.0704 104.39 64.2203 82.19 63.9903 59.99C63.8203 43.61 77.4904 30.03 93.7804 29.92C110.24 29.81 124.11 43.4 124.13 59.97C124.2 120.27 124.16 180.56 124.16 240.86C124.16 242.64 124.16 244.42 124.16 246.15C127.8 247.01 129.09 245.63 129.02 242.59C129 241.47 129.03 240.35 129.03 239.23C129.03 177.82 129.06 116.39 129 54.98C128.99 46.46 128.21 37.93 128.44 29.42C128.76 17.57 135.95 9.57998 145.53 4.21998C155.11 -1.14002 165.38 -0.580007 174.51 5.79999C183.93 12.38 189.19 21.21 189.14 33.39C188.91 100.12 189.03 166.86 189.03 233.59C189.03 234.57 188.75 235.66 189.1 236.5C189.54 237.56 190.49 238.41 191.22 239.35C191.85 238.47 192.78 237.67 193.05 236.69C193.37 235.52 193.13 234.19 193.13 232.93C193.13 176.69 193.57 120.44 192.82 64.21C192.64 50.23 208.53 34.07 222.79 34.15C239.72 34.25 253.29 50.16 253.26 64.65C253.13 147.89 253.2 231.13 253.19 314.37C253.19 315.33 253.06 316.29 252.93 318.13C249.14 318.13 245.42 318.02 241.71 318.15C223.31 318.8 205.7 322.73 189.77 332.22C176.34 340.22 168.38 351.98 167.59 367.99C167.54 368.94 167.69 369.89 167.74 370.79C174.7 372.39 175.64 371.61 176.05 364.73C176.75 352.92 184.01 345.26 193.21 339.38C207.87 330 224.34 326.71 241.54 326.37C247.66 326.25 253.77 325.84 260.31 325.55C260.42 323.66 260.6 322.04 260.6 320.43C260.61 282.1 260.57 243.76 260.59 205.43C260.6 190.97 269.3 178.97 282.49 175.02C301.92 169.2 321.65 183.67 321.74 204.03C321.86 230.89 321.77 257.75 321.77 284.61C321.77 298.74 321.7 312.87 321.78 327C322.06 374.63 305.35 414.91 270.78 448.03C246.18 471.6 217.2 486.43 183.78 490.29C154.11 493.71 124.53 491.9 96.3703 478.81C51.3303 457.86 21.2203 424.23 6.26034 376.99C1.98034 363.47 -0.0296692 349.58 0.000330789 335.32C0.120331 268.03 0.0403894 200.73 0.0603894 133.44C0.0603894 121.06 7.12033 110.53 18.3803 105.91C29.7103 101.26 41.1003 103.83 50.3703 112.59C57.1303 118.97 60.1203 126.57 60.0903 135.77C59.9903 173.26 60.0504 210.76 60.0504 248.25C60.0504 250.04 60.0504 251.83 60.0504 253.63C60.5304 253.96 60.9704 254.27 61.4104 254.58Z" fill="#56CED0"/>
<path d="M226.27 473H84.2704V532H226.27V473Z" fill="#56CED0"/>
</g>
</svg>
