<svg width="606" height="259" viewBox="0 0 606 259" fill="none" xmlns="http://www.w3.org/2000/svg">
<g opacity="0.8">
<path d="M203.727 208.904C203.027 208.114 202.467 207.054 201.597 206.614C200.547 206.084 199.227 205.864 198.027 205.864C165.707 205.824 133.387 205.714 101.067 205.874C83.2569 205.964 65.447 206.644 47.647 206.834C34.507 206.974 23.617 196.004 23.527 182.934C23.437 169.734 34.337 158.604 47.637 158.594C96.007 158.544 144.367 158.574 192.737 158.564C194.167 158.564 195.597 158.564 196.977 158.564C197.667 155.644 196.557 154.614 194.127 154.664C193.227 154.684 192.327 154.654 191.427 154.654C142.167 154.654 92.897 154.634 43.637 154.674C36.797 154.684 29.957 155.304 23.137 155.124C13.637 154.864 7.22693 149.094 2.92693 141.414C-1.37307 133.734 -0.923055 125.494 4.19695 118.164C9.47695 110.604 16.5569 106.394 26.3269 106.424C79.8569 106.614 133.387 106.514 186.917 106.514C187.707 106.514 188.577 106.734 189.247 106.454C190.097 106.104 190.777 105.344 191.527 104.754C190.817 104.244 190.177 103.504 189.397 103.284C188.457 103.024 187.397 103.214 186.377 103.214C141.267 103.214 96.147 102.864 51.047 103.464C39.837 103.614 26.8669 90.8638 26.9369 79.4238C27.0169 65.8438 39.777 54.9638 51.407 54.9738C118.177 55.0838 184.947 55.0238 251.727 55.0338C252.497 55.0338 253.267 55.1338 254.747 55.2438C254.747 58.2838 254.657 61.2638 254.767 64.2438C255.287 79.0038 258.437 93.1238 266.057 105.904C272.477 116.674 281.907 123.064 294.747 123.694C295.507 123.734 296.277 123.614 296.987 123.574C298.267 117.984 297.647 117.234 292.127 116.904C282.647 116.344 276.507 110.514 271.787 103.134C264.267 91.3738 261.627 78.1638 261.357 64.3638C261.257 59.4538 260.937 54.5538 260.697 49.3138C259.177 49.2238 257.887 49.0838 256.587 49.0838C225.837 49.0838 195.087 49.1038 164.337 49.0938C152.737 49.0838 143.117 42.1038 139.947 31.5338C135.277 15.9438 146.887 0.123807 163.217 0.0538074C184.767 -0.0461926 206.307 0.0238394 227.857 0.0238394C239.197 0.0238394 250.527 0.0838294 261.857 0.0138294C300.067 -0.206171 332.367 13.1938 358.947 40.9238C377.857 60.6538 389.757 83.9038 392.847 110.714C395.587 134.514 394.137 158.244 383.637 180.834C366.837 216.964 339.857 241.114 301.957 253.114C291.117 256.544 279.967 258.154 268.537 258.134C214.557 258.044 160.577 258.104 106.597 258.084C96.6669 258.084 88.217 252.414 84.517 243.384C80.787 234.294 82.847 225.164 89.867 217.724C94.987 212.294 101.077 209.904 108.457 209.924C138.527 210.004 168.607 209.954 198.677 209.954C200.117 209.954 201.557 209.954 202.987 209.954C203.227 209.604 203.477 209.254 203.727 208.904Z" fill="#1E2B63"/>
<path d="M605.987 77.4336H378.987V191.433H605.987V77.4336Z" fill="#1E2B63"/>
</g>
</svg>
