<svg width="255" height="390" viewBox="0 0 255 390" fill="none" xmlns="http://www.w3.org/2000/svg">
<path d="M48.6425 201.287C48.3079 201.055 47.9475 200.798 47.5872 200.541C47.5872 199.125 47.5872 197.709 47.5872 196.294C47.5872 166.594 47.5357 136.894 47.6129 107.194C47.6387 99.9105 45.2709 93.8881 39.9177 88.818C32.5571 81.8949 23.5493 79.836 14.5673 83.542C5.66244 87.1966 0.0518297 95.5609 0.0518297 105.341C0.0518297 158.641 0.103253 211.967 0.000306272 265.268C-0.0254303 276.566 1.57037 287.582 4.9676 298.288C16.8322 335.709 40.6642 362.372 76.3608 378.946C98.6744 389.318 122.094 390.759 145.618 388.057C172.101 384.994 195.058 373.259 214.54 354.574C241.924 328.323 255.153 296.435 254.947 258.679C254.87 247.484 254.947 236.289 254.947 225.093C254.947 203.809 255.024 182.525 254.921 161.241C254.844 145.104 239.222 133.651 223.831 138.258C213.382 141.398 206.485 150.895 206.485 162.347C206.459 192.717 206.485 223.086 206.485 253.455C206.485 254.742 206.356 256.003 206.253 257.521C201.08 257.753 196.242 258.087 191.377 258.165C177.737 258.422 164.714 261.047 153.081 268.459C145.798 273.118 140.033 279.191 139.492 288.534C139.183 293.99 138.437 294.608 132.904 293.347C132.852 292.626 132.749 291.879 132.775 291.133C133.393 278.445 139.698 269.128 150.353 262.797C162.964 255.282 176.914 252.168 191.506 251.653C194.44 251.55 197.4 251.628 200.385 251.628C200.488 250.161 200.591 249.414 200.591 248.642C200.591 182.705 200.539 116.742 200.642 50.805C200.668 39.3265 189.91 26.7157 176.502 26.6385C165.203 26.5613 152.618 39.3781 152.747 50.4448C153.339 94.9948 152.979 139.545 152.979 184.095C152.979 185.099 153.159 186.154 152.901 187.08C152.695 187.852 151.949 188.496 151.46 189.191C150.894 188.444 150.122 187.775 149.787 186.926C149.504 186.257 149.736 185.407 149.736 184.61C149.736 131.747 149.633 78.8837 149.813 25.9951C149.838 16.3439 145.669 9.3434 138.206 4.14461C130.974 -0.899758 122.841 -1.36299 115.249 2.88354C107.656 7.13008 101.969 13.4613 101.711 22.8551C101.531 29.5981 102.149 36.3411 102.149 43.1098C102.2 91.7519 102.174 140.42 102.174 189.062C102.174 189.937 102.149 190.838 102.174 191.713C102.226 194.132 101.196 195.213 98.3138 194.518C98.3138 193.154 98.3138 191.739 98.3138 190.323C98.3138 142.556 98.3399 94.7889 98.2884 47.0218C98.2627 33.8962 87.2729 23.1126 74.2502 23.2155C61.3305 23.2927 50.5213 34.0506 50.65 47.0218C50.8302 64.5999 51.4993 82.2037 51.6022 99.7818C51.7567 131.695 51.6537 163.609 51.628 195.548C51.628 196.732 51.422 198.044 50.8815 199.074C50.4698 200.052 49.4146 200.592 48.6425 201.287Z" fill="#54494B"/>
<path d="M48.6416 201.287C49.4137 200.592 50.4689 200.052 50.9064 199.177C51.4212 198.147 51.6529 196.835 51.6529 195.651C51.7044 163.737 51.8073 131.824 51.6529 99.8849C51.55 82.3068 50.9062 64.703 50.7004 47.125C50.5717 34.1537 61.4069 23.3958 74.3009 23.3186C87.3236 23.2157 98.3388 33.9993 98.3388 47.125C98.3902 94.892 98.3645 142.659 98.3645 190.426C98.3645 191.842 98.3645 193.257 98.3645 194.621C101.247 195.316 102.276 194.21 102.225 191.816C102.199 190.941 102.225 190.04 102.225 189.165C102.225 140.523 102.251 91.8552 102.199 43.2131C102.199 36.4701 101.582 29.7014 101.762 22.9584C102.019 13.5646 107.707 7.23337 115.299 2.98684C122.892 -1.2597 131.024 -0.8222 138.256 4.2479C145.72 9.47243 149.889 16.447 149.863 26.0982C149.683 78.9611 149.761 131.824 149.761 184.713C149.761 185.485 149.529 186.36 149.812 187.003C150.172 187.853 150.919 188.522 151.485 189.268C152 188.573 152.72 187.93 152.952 187.158C153.209 186.231 153.029 185.176 153.029 184.172C153.029 139.622 153.364 95.0465 152.797 50.5222C152.643 39.4555 165.228 26.6387 176.552 26.7159C189.961 26.7931 200.719 39.404 200.693 50.8825C200.59 116.82 200.642 182.782 200.642 248.72C200.642 249.492 200.539 250.238 200.436 251.705C197.425 251.705 194.491 251.628 191.531 251.731C176.964 252.245 163.015 255.36 150.378 262.875C139.749 269.206 133.443 278.522 132.8 291.211C132.774 291.957 132.877 292.729 132.929 293.424C138.436 294.685 139.183 294.067 139.517 288.611C140.058 279.243 145.823 273.195 153.106 268.537C164.713 261.099 177.762 258.499 191.402 258.242C196.241 258.139 201.079 257.83 206.278 257.599C206.381 256.106 206.51 254.819 206.51 253.532C206.51 223.163 206.484 192.794 206.51 162.425C206.51 150.972 213.407 141.475 223.856 138.335C239.247 133.729 254.869 145.181 254.946 161.318C255.049 182.602 254.972 203.886 254.972 225.145C254.972 236.34 254.92 247.536 254.972 258.731C255.178 296.461 241.949 328.374 214.565 354.626C195.083 373.285 172.126 385.046 145.643 388.109C122.145 390.811 98.6993 389.396 76.3857 379.024C40.7148 362.424 16.8571 335.786 4.9925 298.365C1.59528 287.659 -0.00052795 276.644 0.0252086 265.345C0.128155 212.045 0.0509954 158.719 0.076732 105.418C0.076732 95.6127 5.6616 87.274 14.5922 83.6194C23.5743 79.9391 32.582 81.9722 39.9426 88.9211C45.2959 93.9655 47.6636 99.9879 47.6379 107.297C47.5606 136.997 47.6121 166.697 47.6121 196.397C47.6121 197.813 47.6121 199.228 47.6121 200.644C47.9467 200.798 48.2813 201.055 48.6416 201.287Z" fill="#54494B"/>
</svg>
