<svg width="181" height="182" viewBox="0 0 181 182" fill="none" xmlns="http://www.w3.org/2000/svg">
<path d="M90.51 181.16C140.431 181.16 180.9 140.691 180.9 90.77C180.9 40.849 140.431 0.380005 90.51 0.380005C40.589 0.380005 0.119995 40.849 0.119995 90.77C0.119995 140.691 40.589 181.16 90.51 181.16Z" fill="#F1F7ED"/>
<path d="M62.89 93.32C62.76 93.23 62.62 93.13 62.48 93.03C62.48 92.48 62.48 91.93 62.48 91.38C62.48 79.84 62.46 68.3 62.49 56.76C62.5 53.93 61.58 51.59 59.5 49.62C56.64 46.93 53.14 46.13 49.65 47.57C46.19 48.99 44.01 52.24 44.01 56.04C44.01 76.75 44.03 97.47 43.99 118.18C43.98 122.57 44.6 126.85 45.92 131.01C50.53 145.55 59.79 155.91 73.66 162.35C82.33 166.38 91.43 166.94 100.57 165.89C110.86 164.7 119.78 160.14 127.35 152.88C137.99 142.68 143.13 130.29 143.05 115.62C143.02 111.27 143.05 106.92 143.05 102.57C143.05 94.3 143.08 86.03 143.04 77.76C143.01 71.49 136.94 67.04 130.96 68.83C126.9 70.05 124.22 73.74 124.22 78.19C124.21 89.99 124.22 101.79 124.22 113.59C124.22 114.09 124.17 114.58 124.13 115.17C122.12 115.26 120.24 115.39 118.35 115.42C113.05 115.52 107.99 116.54 103.47 119.42C100.64 121.23 98.4 123.59 98.19 127.22C98.07 129.34 97.78 129.58 95.63 129.09C95.61 128.81 95.57 128.52 95.58 128.23C95.82 123.3 98.27 119.68 102.41 117.22C107.31 114.3 112.73 113.09 118.4 112.89C119.54 112.85 120.69 112.88 121.85 112.88C121.89 112.31 121.93 112.02 121.93 111.72C121.93 86.1 121.91 60.47 121.95 34.85C121.96 30.39 117.78 25.49 112.57 25.46C108.18 25.43 103.29 30.41 103.34 34.71C103.57 52.02 103.43 69.33 103.43 86.64C103.43 87.03 103.5 87.44 103.4 87.8C103.32 88.1 103.03 88.35 102.84 88.62C102.62 88.33 102.32 88.07 102.19 87.74C102.08 87.48 102.17 87.15 102.17 86.84C102.17 66.3 102.13 45.76 102.2 25.21C102.21 21.46 100.59 18.74 97.69 16.72C94.88 14.76 91.72 14.58 88.77 16.23C85.82 17.88 83.61 20.34 83.51 23.99C83.44 26.61 83.68 29.23 83.68 31.86C83.7 50.76 83.69 69.67 83.69 88.57C83.69 88.91 83.68 89.26 83.69 89.6C83.71 90.54 83.31 90.96 82.19 90.69C82.19 90.16 82.19 89.61 82.19 89.06C82.19 70.5 82.2 51.94 82.18 33.38C82.17 28.28 77.9 24.09 72.84 24.13C67.82 24.16 63.62 28.34 63.67 33.38C63.74 40.21 64 47.05 64.04 53.88C64.1 66.28 64.06 78.68 64.05 91.09C64.05 91.55 63.97 92.06 63.76 92.46C63.6 92.84 63.19 93.05 62.89 93.32Z" fill="#54494B"/>
<path d="M62.89 93.32C63.19 93.05 63.6 92.84 63.77 92.5C63.97 92.1 64.06 91.59 64.06 91.13C64.08 78.73 64.12 66.33 64.06 53.92C64.02 47.09 63.77 40.25 63.69 33.42C63.64 28.38 67.85 24.2 72.86 24.17C77.92 24.13 82.2 28.32 82.2 33.42C82.22 51.98 82.21 70.54 82.21 89.1C82.21 89.65 82.21 90.2 82.21 90.73C83.33 91 83.73 90.57 83.71 89.64C83.7 89.3 83.71 88.95 83.71 88.61C83.71 69.71 83.72 50.8 83.7 31.9C83.7 29.28 83.46 26.65 83.53 24.03C83.63 20.38 85.84 17.92 88.79 16.27C91.74 14.62 94.9 14.79 97.71 16.76C100.61 18.79 102.23 21.5 102.22 25.25C102.15 45.79 102.18 66.33 102.18 86.88C102.18 87.18 102.09 87.52 102.2 87.77C102.34 88.1 102.63 88.36 102.85 88.65C103.05 88.38 103.33 88.13 103.42 87.83C103.52 87.47 103.45 87.06 103.45 86.67C103.45 69.36 103.58 52.04 103.36 34.74C103.3 30.44 108.19 25.46 112.59 25.49C117.8 25.52 121.98 30.42 121.97 34.88C121.93 60.5 121.95 86.13 121.95 111.75C121.95 112.05 121.91 112.34 121.87 112.91C120.7 112.91 119.56 112.88 118.41 112.92C112.75 113.12 107.33 114.33 102.42 117.25C98.29 119.71 95.84 123.33 95.59 128.26C95.58 128.55 95.62 128.85 95.64 129.12C97.78 129.61 98.07 129.37 98.2 127.25C98.41 123.61 100.65 121.26 103.48 119.45C107.99 116.56 113.06 115.55 118.36 115.45C120.24 115.41 122.12 115.29 124.14 115.2C124.18 114.62 124.23 114.12 124.23 113.62C124.23 101.82 124.22 90.02 124.23 78.22C124.23 73.77 126.91 70.08 130.97 68.86C136.95 67.07 143.02 71.52 143.05 77.79C143.09 86.06 143.06 94.33 143.06 102.59C143.06 106.94 143.04 111.29 143.06 115.64C143.14 130.3 138 142.7 127.36 152.9C119.79 160.15 110.87 164.72 100.58 165.91C91.45 166.96 82.34 166.41 73.67 162.38C59.81 155.93 50.54 145.58 45.93 131.04C44.61 126.88 43.99 122.6 44 118.21C44.04 97.5 44.01 76.78 44.02 56.07C44.02 52.26 46.19 49.02 49.66 47.6C53.15 46.17 56.65 46.96 59.51 49.66C61.59 51.62 62.51 53.96 62.5 56.8C62.47 68.34 62.49 79.88 62.49 91.42C62.49 91.97 62.49 92.52 62.49 93.07C62.62 93.13 62.75 93.23 62.89 93.32Z" fill="#54494B"/>
</svg>
