<svg width="249" height="373" viewBox="0 0 249 373" fill="none" xmlns="http://www.w3.org/2000/svg">
<g opacity="0.8" clip-path="url(#clip0_191_54)">
<path d="M231.733 419.197C218.588 415.979 205.542 411.023 192.602 404.305C180.016 397.771 168.773 389.371 158.711 379.266C111.214 331.6 63.5696 284.069 16.0025 236.473C7.24847 227.719 4.79483 215.281 9.49002 204.052C14.2135 192.753 24.0848 186.516 36.8339 186.155C46.1253 185.887 53.6135 189.147 60.0977 195.673C86.5364 222.253 113.095 248.727 139.605 275.237C140.87 276.503 142.136 277.768 143.409 279.041C143.946 278.942 144.484 278.857 145.007 278.758C145.085 277.45 145.523 276.022 145.148 274.855C144.696 273.455 143.72 272.111 142.659 271.051C114.205 242.526 85.8151 213.938 57.1844 185.59C41.4088 169.97 25.11 154.873 9.24959 139.338C-2.45303 127.876 -2.38937 108.607 9.05162 97.0105C20.6129 85.2937 40.03 85.0958 51.7609 96.7984C94.449 139.387 137.052 182.047 179.69 224.686C180.949 225.944 182.208 227.203 183.431 228.426C186.613 226.461 186.542 224.58 184.35 222.472C183.544 221.695 182.774 220.881 181.982 220.09C138.558 176.666 95.149 133.214 51.6761 89.8263C45.6445 83.8088 39.0612 78.3288 33.2064 72.1487C25.0534 63.5432 24.4878 52.8093 27.4718 42.2451C30.4558 31.6809 38.1137 24.8149 49.081 22.8703C60.3947 20.8622 70.3578 23.3865 78.9421 32.0274C125.957 79.3823 173.242 126.483 220.427 173.668C221.12 174.361 221.693 175.33 222.534 175.676C223.595 176.115 224.868 176.044 226.048 176.192C225.872 175.125 225.963 173.901 225.461 173.017C224.86 171.964 223.75 171.193 222.859 170.302C183.092 130.534 143.628 90.4486 103.337 51.2183C93.3246 41.4602 93.1266 18.8046 103.273 8.77073C115.315 -3.12987 136.161 -1.47531 146.386 8.79188C205.153 67.7434 264.062 126.553 322.915 185.42C323.594 186.099 324.181 186.87 325.39 188.263C322.717 190.936 320.002 193.495 317.47 196.211C304.919 209.681 295.253 224.905 290.692 242.887C286.853 258.04 289.532 271.977 300.302 283.864C300.938 284.571 301.716 285.136 302.388 285.737C308.44 281.947 308.554 280.731 303.979 275.576C296.123 266.73 295.847 256.173 298.187 245.517C301.921 228.518 311.241 214.546 323.162 202.143C327.405 197.731 331.436 193.12 335.855 188.291C334.596 186.877 333.578 185.604 332.44 184.465C305.343 157.355 278.205 130.273 251.115 103.155C240.898 92.9234 238.564 78.2863 245.098 66.1665C254.722 48.3121 278.912 44.5998 293.365 58.9258C312.443 77.8338 331.372 96.8903 350.365 115.883C360.356 125.875 370.298 135.916 380.346 145.85C403.73 168.966 418.912 195.32 425.735 225.167" fill="#56CED0"/>
</g>
<defs>
<clipPath id="clip0_191_54">
<rect width="249" height="373" fill="white"/>
</clipPath>
</defs>
</svg>
