<svg width="606" height="259" viewBox="0 0 606 259" fill="none" xmlns="http://www.w3.org/2000/svg">
<g opacity="0.8">
<path d="M402.08 208.97C402.33 209.32 402.58 209.68 402.83 210.03C404.27 210.03 405.7 210.03 407.14 210.03C437.22 210.03 467.29 210.08 497.37 210C504.75 209.98 510.84 212.38 515.96 217.8C522.98 225.24 525.04 234.37 521.32 243.46C517.61 252.49 509.16 258.15 499.23 258.16C445.25 258.17 391.27 258.11 337.29 258.2C325.85 258.22 314.71 256.61 303.86 253.18C265.96 241.18 238.98 217.03 222.18 180.9C211.68 158.32 210.22 134.59 212.97 110.78C216.06 83.97 227.96 60.72 246.87 41C273.44 13.27 305.75 -0.130009 343.95 0.0899913C355.28 0.149991 366.62 0.0999915 377.95 0.0999915C399.49 0.0999915 421.04 0.0299912 442.59 0.129991C458.92 0.199991 470.53 16.02 465.86 31.61C462.69 42.19 453.06 49.17 441.46 49.17C410.71 49.19 379.96 49.16 349.21 49.16C347.92 49.16 346.62 49.3 345.1 49.39C344.86 54.64 344.54 59.54 344.44 64.44C344.17 78.24 341.53 91.45 334.01 103.21C329.29 110.58 323.15 116.42 313.68 116.97C308.15 117.3 307.53 118.05 308.82 123.64C309.54 123.68 310.3 123.8 311.06 123.76C323.9 123.13 333.33 116.74 339.75 105.97C347.36 93.19 350.51 79.07 351.04 64.3C351.15 61.32 351.06 58.34 351.06 55.3C352.54 55.19 353.31 55.09 354.08 55.09C420.85 55.08 487.63 55.14 554.4 55.03C566.03 55.01 578.79 65.9 578.87 79.47C578.94 90.91 565.97 103.66 554.76 103.51C509.65 102.91 464.54 103.26 419.42 103.26C418.41 103.26 417.34 103.07 416.4 103.33C415.61 103.55 414.97 104.29 414.27 104.8C415.02 105.39 415.7 106.15 416.55 106.5C417.22 106.78 418.1 106.56 418.89 106.56C472.42 106.56 525.95 106.66 579.48 106.47C589.25 106.44 596.33 110.65 601.61 118.21C606.73 125.54 607.18 133.77 602.88 141.45C598.58 149.14 592.17 154.9 582.67 155.16C575.84 155.34 569 154.72 562.17 154.71C512.91 154.66 463.64 154.68 414.37 154.69C413.47 154.69 412.58 154.72 411.68 154.7C409.24 154.64 408.13 155.68 408.83 158.6C410.22 158.6 411.64 158.6 413.07 158.6C461.44 158.6 509.81 158.58 558.17 158.63C571.47 158.65 582.37 169.77 582.28 182.97C582.19 196.04 571.3 207.01 558.16 206.87C540.35 206.68 522.54 206 504.74 205.91C472.42 205.75 440.1 205.86 407.78 205.9C406.58 205.9 405.26 206.12 404.21 206.65C403.33 207.12 402.77 208.18 402.08 208.97Z" fill="#56CED0"/>
<path d="M402.08 208.97C402.78 208.18 403.34 207.12 404.21 206.68C405.26 206.15 406.58 205.93 407.78 205.93C440.1 205.89 472.42 205.78 504.74 205.94C522.55 206.03 540.36 206.71 558.16 206.9C571.3 207.04 582.19 196.07 582.28 183C582.37 169.8 571.47 158.67 558.17 158.66C509.8 158.61 461.44 158.64 413.07 158.63C411.64 158.63 410.21 158.63 408.83 158.63C408.14 155.71 409.25 154.68 411.68 154.73C412.58 154.75 413.48 154.72 414.38 154.72C463.64 154.72 512.91 154.7 562.17 154.74C569.01 154.75 575.85 155.37 582.67 155.19C592.17 154.93 598.58 149.16 602.88 141.48C607.18 133.8 606.73 125.56 601.61 118.23C596.33 110.67 589.25 106.46 579.48 106.49C525.95 106.68 472.42 106.58 418.89 106.58C418.1 106.58 417.23 106.8 416.56 106.52C415.71 106.17 415.03 105.41 414.28 104.82C414.99 104.31 415.63 103.57 416.41 103.35C417.35 103.09 418.41 103.28 419.43 103.28C464.54 103.28 509.66 102.93 554.76 103.53C565.97 103.68 578.94 90.93 578.87 79.49C578.79 65.91 566.03 55.03 554.4 55.04C487.63 55.15 420.86 55.09 354.08 55.1C353.31 55.1 352.54 55.2 351.06 55.31C351.06 58.35 351.15 61.33 351.04 64.31C350.52 79.07 347.37 93.19 339.75 105.97C333.33 116.74 323.9 123.13 311.06 123.76C310.3 123.8 309.53 123.68 308.82 123.64C307.54 118.05 308.16 117.3 313.68 116.97C323.16 116.41 329.3 110.58 334.02 103.2C341.54 91.44 344.18 78.23 344.45 64.43C344.55 59.52 344.87 54.62 345.11 49.38C346.63 49.29 347.92 49.15 349.22 49.15C379.97 49.15 410.72 49.17 441.47 49.16C453.07 49.15 462.69 42.17 465.86 31.6C470.53 16.01 458.92 0.189998 442.59 0.119998C421.04 0.0199978 399.5 0.0999983 377.95 0.0999983C366.61 0.0999983 355.28 0.159998 343.95 0.0899981C305.74 -0.130002 273.44 13.27 246.86 41C227.95 60.73 216.05 83.98 212.96 110.79C210.22 134.59 211.67 158.32 222.17 180.91C238.97 217.04 265.95 241.19 303.85 253.19C314.69 256.62 325.84 258.23 337.27 258.21C391.25 258.12 445.23 258.18 499.21 258.16C509.14 258.16 517.59 252.49 521.29 243.46C525.02 234.37 522.96 225.24 515.94 217.8C510.82 212.37 504.73 209.98 497.35 210C467.28 210.08 437.2 210.03 407.13 210.03C405.69 210.03 404.25 210.03 402.82 210.03C402.57 209.67 402.33 209.32 402.08 208.97Z" fill="#56CED0"/>
<path d="M227 77.5H0V191.5H227V77.5Z" fill="#56CED0"/>
</g>
</svg>
