<svg width="580" height="259" viewBox="0 0 580 259" fill="none" xmlns="http://www.w3.org/2000/svg">
<g opacity="0.8">
<path d="M120.29 258.481C136.87 239.391 135.68 222.851 115.45 208.211C125.52 202.861 131.63 194.421 131.51 182.441C131.39 170.531 125.13 162.281 114.64 156.881C134.53 147.111 137.88 121.271 119.55 107.371C129.55 101.861 135.39 93.6817 135.69 82.0417C135.8 77.7817 135.71 73.5117 135.71 69.2517C135.71 68.1517 135.71 67.0617 135.71 65.7417C138.46 65.7417 140.88 65.7417 143.49 65.7417C144.47 72.2517 145.27 78.7817 146.46 85.2517C148.64 97.1017 151.63 108.801 158.07 119.101C161.22 124.141 165.45 128.651 169.85 132.701C173.88 136.411 179.25 137.711 184.93 137.731C185.6 135.831 185.83 134.371 183.21 134.151C174.96 133.471 169.08 128.861 164.38 122.501C157.3 112.911 153.64 101.821 151.23 90.3617C149.29 81.1717 148.05 71.8217 146.44 62.1517C143.32 62.1517 139.77 62.1517 135.72 62.1517C135.72 60.6317 135.72 59.4417 135.72 58.2617C135.72 47.5917 135.59 36.9317 135.75 26.2717C135.91 16.3917 132.41 8.34175 124.72 2.12175C124.24 1.73175 123.87 1.20175 123.21 0.471754C124.06 0.271755 124.57 0.0417554 125.07 0.0417554C137.97 0.141755 150.91 -0.328249 163.77 0.521754C182.58 1.77175 200.23 7.47176 216.59 16.9317C246.13 34.0117 266.14 58.9217 276.3 91.4117C282.5 111.251 283.86 131.541 279.94 152.181C274.13 182.781 259.43 208.151 235.8 228.211C218.93 242.531 199.45 251.571 177.65 256.061C162.38 259.211 147.05 258.141 131.72 258.461C128.19 258.541 124.66 258.481 120.29 258.481Z" fill="#54494B"/>
<path d="M64.23 158.262C77.47 158.262 90.71 158.162 103.96 158.292C116.5 158.412 126.52 167.702 128.02 180.292C129.39 191.842 121.66 203.152 110.11 206.282C107.97 206.862 105.69 207.182 103.47 207.182C77.32 207.242 51.1701 207.252 25.0201 207.202C14.3001 207.182 4.11007 200.262 1.63007 190.242C-2.70993 172.702 7.23007 159.142 24.5101 158.382C37.7201 157.792 50.99 158.262 64.23 158.262Z" fill="#54494B"/>
<path d="M64.25 155.311C51.24 155.311 38.22 155.491 25.21 155.251C15.14 155.071 6.75008 150.811 2.78008 141.371C-4.33992 124.401 5.76999 107.261 23.57 106.581C46.42 105.711 69.33 106.351 92.21 106.401C93.39 106.401 94.63 106.791 95.72 107.291C101.2 109.791 106.87 110.331 112.81 109.471C114.18 109.281 115.91 109.751 117.1 110.511C126.05 116.221 130.1 127.311 127.15 137.571C124.12 148.081 114.78 155.211 103.62 155.291C90.5 155.381 77.38 155.311 64.25 155.311Z" fill="#54494B"/>
<path d="M63.86 258.472C51.07 258.472 38.25 257.892 25.51 258.642C12.94 259.372 0 246.472 0 235.012C0 221.352 10.38 210.052 24.51 209.912C51.2 209.652 77.9 209.662 104.6 209.942C118.06 210.092 128.38 221.402 128.13 234.782C127.9 247.412 116.52 258.382 103.57 258.472C103.35 258.482 103.12 258.482 102.9 258.482C89.88 258.472 76.87 258.472 63.86 258.472Z" fill="#54494B"/>
<path d="M83.1899 52.8218C83.1899 43.2918 83.1499 33.7618 83.1999 24.2318C83.2799 7.34185 100.58 -4.44816 116.33 1.61184C126.16 5.39184 132.18 13.8118 132.23 24.3418C132.32 43.5318 132.37 62.7218 132.22 81.9018C132.12 95.6218 121.32 106.312 107.86 106.412C94.15 106.522 83.25 95.9818 83 82.1118C82.82 72.3518 82.9599 62.5918 82.9599 52.8318C83.0399 52.8218 83.1099 52.8218 83.1899 52.8218Z" fill="#54494B"/>
<path d="M79.4201 55.2318C79.4201 61.5618 79.6201 67.7218 79.3801 73.8618C78.9401 84.9418 80.06 95.4118 89.84 103.551C88.06 103.631 87.0901 103.711 86.1201 103.711C65.8101 103.721 45.5 103.651 25.19 103.741C14.67 103.791 6.59 98.5318 2.82 89.7018C-3.66 74.5218 3.22008 56.5318 23.4001 55.3718C36.8201 54.6018 50.3201 55.2218 63.7901 55.2218C68.8001 55.2318 73.8301 55.2318 79.4201 55.2318Z" fill="#54494B"/>
<path d="M580 70.2419H254V182.242H580V70.2419Z" fill="#54494B"/>
</g>
</svg>
