<svg width="257" height="280" viewBox="0 0 257 280" fill="none" xmlns="http://www.w3.org/2000/svg">
<path d="M206.65 114.49C201.35 124.47 192.99 130.52 181.12 130.4C169.32 130.28 161.15 124.08 155.79 113.68C146.11 133.38 120.51 136.71 106.74 118.54C101.28 128.46 93.18 134.24 81.64 134.53C77.42 134.64 73.19 134.55 68.97 134.56C67.89 134.56 66.8 134.56 65.5 134.56C65.5 137.28 65.5 139.68 65.5 142.27C71.95 143.24 78.42 144.03 84.82 145.22C96.56 147.38 108.16 150.35 118.36 156.72C123.35 159.84 127.82 164.04 131.83 168.39C135.5 172.38 136.79 177.7 136.81 183.33C134.93 183.99 133.48 184.23 133.27 181.63C132.6 173.45 128.03 167.63 121.72 162.97C112.22 155.96 101.24 152.33 89.88 149.94C80.77 148.02 71.51 146.79 61.92 145.19C61.92 142.1 61.92 138.58 61.92 134.56C60.41 134.56 59.24 134.56 58.06 134.56C47.5 134.56 36.93 134.43 26.37 134.6C16.58 134.76 8.61 131.29 2.45 123.67C2.06 123.19 1.54 122.83 0.820003 122.17C0.620003 123.01 0.390003 123.51 0.390003 124.02C0.490003 136.8 0.0200043 149.62 0.860004 162.36C2.09 181 7.74001 198.49 17.12 214.69C34.05 243.96 58.72 263.79 90.92 273.86C110.58 280.01 130.68 281.34 151.13 277.46C181.45 271.7 206.59 257.14 226.46 233.73C240.65 217.02 249.6 197.71 254.05 176.12C257.16 160.99 256.11 145.8 256.43 130.61C256.51 127.11 256.44 123.61 256.44 119.29C237.54 135.72 221.16 134.53 206.65 114.49ZM157.2 103.11C157.32 115.53 166.52 125.46 179 126.95C190.45 128.31 201.65 120.65 204.75 109.2C205.33 107.08 205.64 104.82 205.64 102.62C205.7 76.71 205.71 50.8 205.66 24.89C205.64 14.27 198.78 4.16999 188.85 1.71999C171.47 -2.58001 158.03 7.26999 157.28 24.39C156.7 37.49 157.16 50.63 157.16 63.75C157.17 76.87 157.07 89.99 157.2 103.11ZM154.19 25.09C154.01 15.11 149.79 6.79999 140.44 2.86999C123.63 -4.19001 106.64 5.82999 105.96 23.47C105.09 46.11 105.73 68.81 105.78 91.48C105.78 92.64 106.16 93.88 106.66 94.95C109.14 100.38 109.67 106 108.82 111.88C108.63 113.23 109.1 114.95 109.85 116.13C115.51 125 126.5 129.01 136.66 126.09C147.07 123.09 154.14 113.84 154.22 102.78C154.31 89.78 154.24 76.77 154.24 63.77C154.25 50.87 154.42 37.98 154.19 25.09ZM256.62 25.38C257.35 12.93 244.56 0.0999912 233.2 0.109991C219.67 0.109991 208.47 10.4 208.33 24.39C208.07 50.84 208.08 77.29 208.36 103.74C208.5 117.08 219.71 127.3 232.97 127.05C245.48 126.82 256.36 115.55 256.44 102.72C256.44 102.5 256.44 102.27 256.44 102.05C256.44 89.16 256.44 76.26 256.44 63.37C256.46 50.71 255.88 38 256.62 25.38ZM24.36 82.53C7.62 82.61 -4.06 99.74 1.95 115.36C5.69 125.1 14.04 131.07 24.47 131.12C43.48 131.21 62.49 131.25 81.5 131.11C95.09 131.01 105.68 120.31 105.79 106.97C105.9 93.39 95.45 82.59 81.71 82.34C72.04 82.16 62.37 82.31 52.7 82.31C52.7 82.38 52.7 82.46 52.7 82.53C43.25 82.52 33.8 82.49 24.36 82.53ZM73.55 78.75C84.53 78.31 94.91 79.42 102.97 89.11C103.05 87.35 103.13 86.39 103.13 85.43C103.14 65.31 103.07 45.18 103.16 25.06C103.21 14.64 98 6.62999 89.25 2.88999C74.21 -3.53001 56.38 3.28999 55.24 23.28C54.48 36.58 55.09 49.95 55.09 63.3C55.09 68.28 55.09 73.26 55.09 78.79C61.36 78.79 67.46 78.98 73.55 78.75Z" fill="#54494B"/>
<path d="M256.46 119.29C237.54 135.72 221.16 134.54 206.65 114.49C201.35 124.47 192.99 130.52 181.12 130.4C169.32 130.28 161.15 124.07 155.79 113.68C146.11 133.38 120.51 136.71 106.74 118.54C101.28 128.45 93.18 134.24 81.64 134.53C77.42 134.64 73.19 134.55 68.97 134.55C67.89 134.55 66.8 134.55 65.5 134.55C65.5 137.27 65.5 139.67 65.5 142.26C71.94 143.23 78.42 144.02 84.82 145.21C96.56 147.37 108.16 150.34 118.36 156.71C123.35 159.83 127.83 164.03 131.83 168.38C135.5 172.37 136.79 177.69 136.81 183.32C134.93 183.99 133.48 184.22 133.27 181.62C132.6 173.44 128.03 167.62 121.72 162.96C112.22 155.95 101.24 152.32 89.88 149.92C80.77 148 71.51 146.77 61.93 145.17C61.93 142.08 61.93 138.56 61.93 134.54C60.42 134.54 59.25 134.54 58.07 134.54C47.5 134.54 36.94 134.41 26.38 134.58C16.59 134.74 8.62001 131.27 2.46001 123.65C2.08001 123.17 1.55002 122.81 0.830015 122.15C0.630015 122.99 0.400015 123.49 0.400015 123.99C0.500015 136.77 0.0300121 149.59 0.870012 162.33C2.10001 180.96 7.75001 198.46 17.13 214.66C34.06 243.93 58.73 263.76 90.93 273.83C110.59 279.98 130.69 281.31 151.14 277.43C181.46 271.68 206.59 257.11 226.47 233.7C240.66 216.99 249.61 197.68 254.06 176.09C257.18 160.96 256.12 145.77 256.44 130.58C256.52 127.11 256.46 123.61 256.46 119.29Z" fill="#54494B"/>
<path d="M157.17 63.74C157.17 76.86 157.07 89.99 157.2 103.11C157.32 115.53 166.52 125.46 179 126.95C190.45 128.31 201.65 120.65 204.75 109.2C205.32 107.08 205.64 104.82 205.64 102.62C205.7 76.71 205.71 50.8 205.66 24.89C205.64 14.27 198.78 4.16997 188.85 1.71997C171.47 -2.58003 158.04 7.26997 157.28 24.39C156.7 37.48 157.16 50.62 157.17 63.74Z" fill="#54494B"/>
<path d="M154.24 63.77C154.24 50.88 154.42 37.98 154.19 25.09C154.01 15.11 149.79 6.79997 140.44 2.86997C123.63 -4.19003 106.64 5.82998 105.96 23.47C105.09 46.11 105.73 68.81 105.78 91.48C105.78 92.64 106.16 93.88 106.66 94.95C109.14 100.38 109.68 106 108.82 111.88C108.63 113.23 109.1 114.95 109.85 116.13C115.51 125 126.5 129.01 136.66 126.09C147.07 123.09 154.14 113.84 154.22 102.78C154.31 89.77 154.24 76.77 154.24 63.77Z" fill="#54494B"/>
<path d="M256.46 63.38C256.46 50.71 255.88 38.01 256.62 25.38C257.35 12.93 244.56 0.0999912 233.2 0.109991C219.67 0.109991 208.47 10.4 208.33 24.39C208.07 50.84 208.08 77.29 208.36 103.74C208.5 117.08 219.71 127.3 232.97 127.05C245.48 126.82 256.36 115.55 256.44 102.72C256.44 102.5 256.44 102.27 256.44 102.05C256.46 89.16 256.46 76.27 256.46 63.38Z" fill="#54494B"/>
<path d="M52.69 82.52C43.25 82.52 33.8 82.48 24.36 82.53C7.63 82.61 -4.05001 99.75 1.94999 115.36C5.68999 125.1 14.04 131.07 24.47 131.12C43.48 131.21 62.49 131.25 81.5 131.11C95.09 131.01 105.68 120.31 105.79 106.97C105.9 93.39 95.45 82.59 81.71 82.34C72.04 82.16 62.37 82.3 52.7 82.3C52.69 82.38 52.69 82.45 52.69 82.52Z" fill="#54494B"/>
<path d="M55.08 78.79C61.35 78.79 67.46 78.99 73.54 78.75C84.52 78.31 94.9 79.42 102.96 89.11C103.04 87.34 103.12 86.39 103.12 85.43C103.13 65.31 103.06 45.18 103.15 25.06C103.2 14.64 97.99 6.62996 89.24 2.88996C74.2 -3.53004 56.37 3.28996 55.23 23.28C54.47 36.58 55.08 49.95 55.08 63.3C55.08 68.27 55.08 73.25 55.08 78.79Z" fill="#54494B"/>
</svg>
