<svg width="390" height="164" viewBox="0 0 390 164" fill="none" xmlns="http://www.w3.org/2000/svg">
<g opacity="0.8" clip-path="url(#clip0_191_48)">
<path d="M151.392 97.7931C151.392 117.762 151.549 137.73 151.344 157.686C151.163 176.591 137.165 191.7 118.176 193.961C100.758 196.04 83.7148 184.375 79.0007 166.957C78.1304 163.73 77.6468 160.285 77.6468 156.949C77.5501 117.52 77.5381 78.1027 77.6106 38.6735C77.6348 22.5126 88.0783 7.14947 103.188 3.41445C129.635 -3.12485 150.075 11.8636 151.223 37.8999C152.093 57.8321 151.392 77.8368 151.392 97.7931Z" fill="#E7B96D"/>
<path d="M155.84 97.8299C155.84 78.212 155.562 58.5941 155.925 38.9762C156.203 23.7823 162.621 11.1389 176.848 5.16772C202.425 -5.56592 228.28 9.66423 229.308 36.5104C230.625 70.9596 229.646 105.493 229.573 140.003C229.573 141.768 228.993 143.653 228.244 145.285C224.46 153.553 223.651 162.099 224.956 171.056C225.246 173.11 224.521 175.721 223.385 177.522C214.778 191.012 198.049 197.128 182.59 192.668C166.743 188.099 155.997 174.029 155.876 157.191C155.731 137.404 155.84 117.617 155.84 97.8299Z" fill="#E7B96D"/>
<path d="M0.299305 97.2375C0.299305 77.958 1.16965 58.6303 0.0455163 39.4233C-1.06653 20.4823 18.4063 0.961063 35.6671 0.97315C56.2641 0.985238 73.2953 16.6264 73.5129 37.9244C73.9118 78.1635 73.8997 118.415 73.4645 158.666C73.247 178.961 56.1916 194.517 36.0056 194.142C16.9679 193.792 0.420167 176.64 0.287206 157.119C0.287206 156.78 0.287206 156.442 0.287206 156.103C0.299293 136.473 0.299305 116.855 0.299305 97.2375Z" fill="#E7B96D"/>
<path d="M310.354 126.368C324.726 126.368 339.098 126.308 353.47 126.38C378.938 126.501 396.707 152.574 387.569 176.326C381.876 191.145 369.172 200.234 353.301 200.307C324.376 200.452 295.45 200.512 266.525 200.295C245.856 200.138 229.731 183.856 229.574 163.573C229.417 142.904 245.3 126.477 266.211 126.09C280.921 125.824 295.644 126.042 310.354 126.042C310.354 126.151 310.354 126.259 310.354 126.368Z" fill="#E7B96D"/>
<path d="M306.716 120.687C297.179 120.687 287.884 120.989 278.625 120.627C261.92 119.962 246.122 121.642 233.865 136.389C233.744 133.705 233.623 132.243 233.623 130.792C233.611 100.175 233.708 69.5451 233.575 38.9276C233.502 23.0689 241.432 10.8848 254.752 5.20367C277.633 -4.56297 304.77 5.8081 306.498 36.2322C307.659 56.4665 306.716 76.8218 306.716 97.1286C306.716 104.683 306.716 112.262 306.716 120.687Z" fill="#E7B96D"/>
</g>
<defs>
<clipPath id="clip0_191_48">
<rect width="390" height="164" fill="white"/>
</clipPath>
</defs>
</svg>
