<svg width="434" height="369" viewBox="0 0 434 369" fill="none" xmlns="http://www.w3.org/2000/svg">
<g opacity="0.2" clip-path="url(#clip0_140_27)">
<path d="M388.147 377.397C396.547 372.784 402.585 367.822 405.635 362.549C421.465 335.169 431.024 305.616 433.098 274.134C434.517 252.615 433.735 230.958 433.901 209.361C433.901 208.513 433.519 207.664 433.181 206.245C431.961 207.354 431.074 207.969 430.419 208.779C420.012 221.654 406.533 227.514 389.999 227.248C372.156 226.965 354.308 227.182 336.46 227.187H329.945V245.141C313.743 247.841 298.102 249.915 282.715 253.158C263.525 257.206 244.973 263.338 228.916 275.182C218.253 283.044 210.546 292.891 209.404 306.709C209.044 311.094 206.598 310.706 203.421 309.581C203.455 300.066 205.639 291.084 211.838 284.342C218.608 276.978 226.177 269.887 234.599 264.619C251.837 253.846 271.426 248.845 291.265 245.191C302.083 243.195 313.022 241.853 323.912 240.217V227.193H318.046C310.91 227.187 303.763 227.331 296.632 227.148C277.149 226.649 263.453 216.885 254.238 200.129C230.973 230.819 187.713 225.197 171.362 191.912C162.319 209.466 148.507 219.957 128.574 220.151C108.519 220.345 94.3912 210.126 85.4366 193.265C60.9292 227.132 33.2503 229.133 1.29089 201.371C1.29089 208.674 1.18553 214.595 1.31306 220.5C1.85643 246.161 0.071054 271.822 5.33293 297.388C11.3711 326.697 22.3384 353.511 38.8448 377.569C38.9169 377.564 38.989 377.558 39.0666 377.558C48.8307 377.536 58.5949 377.259 68.359 377.22C73.0775 377.198 77.8127 377.686 82.5256 377.558C86.8449 377.442 91.0866 377.12 95.4169 377.142C95.8328 377.142 96.1987 377.22 96.5148 377.353C96.5425 377.353 96.5647 377.348 96.5924 377.348C97.779 377.325 98.96 377.364 100.147 377.342C102.936 377.292 105.724 377.159 108.513 377.142C109.062 377.137 109.523 377.264 109.905 377.486C111.208 377.47 112.472 377.519 113.753 377.586C116.237 377.148 118.937 377.431 121.444 377.42C124.044 377.414 126.644 377.342 129.239 377.348C135.222 377.364 141.205 377.519 147.193 377.486C147.426 377.486 147.648 377.508 147.853 377.553C166.139 377.403 184.425 377.242 202.712 377.242C202.978 377.242 203.227 377.275 203.455 377.336C211.6 376.555 220.127 377.126 228.284 377.381C228.943 377.403 229.603 377.425 230.257 377.453C230.357 377.453 230.463 377.458 230.568 377.464C231.466 377.503 232.37 377.542 233.268 377.58C235.392 377.514 237.543 377.176 239.656 377.309C241.036 377.392 242.411 377.503 243.792 377.597C244.624 377.553 245.455 377.492 246.287 377.409C247.673 377.27 248.71 377.492 249.958 377.675C250.019 377.664 250.074 377.653 250.141 377.647C253.562 377.287 257.127 377.603 260.57 377.497C264.152 377.386 267.739 377.414 271.327 377.414C271.432 377.414 271.537 377.42 271.637 377.431C277.564 377.109 283.675 377.442 289.613 377.503C295.213 377.558 300.813 377.575 306.38 377.575C306.491 377.575 306.602 377.58 306.707 377.591C307.594 377.492 308.476 377.503 309.363 377.542C311.731 377.486 314.148 377.331 316.51 377.514C317.591 377.469 318.672 377.442 319.759 377.464C324.533 377.558 329.307 377.53 334.081 377.53C334.087 377.53 334.092 377.53 334.092 377.53C334.098 377.53 334.098 377.53 334.103 377.53C336.604 377.481 339.105 377.619 341.611 377.569C343.03 377.542 344.605 377.725 346.119 377.769C348.237 377.42 350.283 377.475 352.423 377.508C352.506 377.508 352.584 377.519 352.667 377.525C352.767 377.514 352.872 377.508 352.977 377.508C359.248 377.497 365.525 377.408 371.796 377.375C377.202 377.342 382.741 377.043 388.147 377.397Z" fill="#54494B"/>
<path d="M24.9944 354.248C15.9788 336.527 9.49711 317.542 5.34417 297.376C0.0767446 271.81 1.86212 246.149 1.32429 220.489C1.19677 214.578 1.30211 208.667 1.30211 201.36C33.2615 229.127 60.9404 227.12 85.4478 193.259C94.4024 210.12 108.53 220.344 128.585 220.145C148.513 219.951 162.33 209.46 171.373 191.9C187.724 225.185 230.984 230.807 254.249 200.118C263.47 216.868 277.154 226.638 296.644 227.131C303.774 227.314 310.921 227.164 318.057 227.17C319.887 227.17 321.722 227.17 323.923 227.17C323.923 231.772 323.923 235.82 323.923 240.194C313.039 241.836 302.1 243.172 291.276 245.168C271.443 248.822 251.854 253.829 234.616 264.596C226.188 269.864 218.625 276.955 211.855 284.319C205.65 291.067 203.471 300.049 203.438 309.558C206.61 310.684 209.055 311.072 209.421 306.686C210.557 292.874 218.27 283.027 228.927 275.164C244.984 263.321 263.531 257.189 282.727 253.141C298.113 249.897 313.754 247.829 329.956 245.124C329.956 239.9 329.956 233.957 329.956 227.17C332.501 227.17 334.486 227.17 336.471 227.17C354.325 227.17 372.167 226.948 390.01 227.231C406.544 227.497 420.018 221.642 430.431 208.762C431.079 207.958 431.972 207.337 433.192 206.233C433.53 207.647 433.913 208.501 433.913 209.349C433.746 230.946 434.534 252.609 433.114 274.128C431.484 298.818 425.258 322.322 415.005 344.523" fill="#54494B"/>
<path d="M169.055 107.522C169.055 129.689 169.222 151.862 169.005 174.03C168.8 195.016 153.259 211.789 132.183 214.301C112.844 216.602 93.9197 203.661 88.68 184.321C87.7097 180.739 87.1829 176.919 87.1719 173.209C87.072 129.434 87.0499 85.6593 87.1386 41.8842C87.1719 23.9362 98.7602 6.8808 115.533 2.7334C144.897 -4.5301 167.597 12.1149 168.872 41.0303C169.843 63.148 169.061 85.3543 169.055 107.522Z" fill="#54494B"/>
<path d="M173.996 107.555C173.99 85.77 173.685 63.9851 174.09 42.2112C174.401 25.3444 181.531 11.3053 197.322 4.66835C225.727 -7.25266 254.427 9.66409 255.569 39.4666C257.027 77.7136 255.951 116.06 255.868 154.374C255.868 156.342 255.219 158.433 254.388 160.24C250.185 169.422 249.292 178.915 250.734 188.851C251.061 191.135 250.257 194.035 248.987 196.025C239.434 211.007 220.865 217.788 203.693 212.848C186.1 207.78 174.168 192.15 174.035 173.459C173.879 151.496 173.996 129.528 173.996 107.555Z" fill="#54494B"/>
<path d="M1.30209 106.901C1.30209 85.4986 2.27241 64.0352 1.02486 42.6994C-0.206054 21.663 21.407 -0.00554359 40.586 1.06387e-06C63.4466 0.0110904 82.3705 17.377 82.6034 41.0249C83.0414 85.7037 83.0303 130.399 82.5479 175.084C82.304 197.623 63.369 214.883 40.963 214.473C19.8268 214.085 1.4518 195.039 1.30764 173.37C1.3021 172.993 1.30209 172.616 1.30209 172.245C1.30209 150.46 1.30209 128.68 1.30209 106.901Z" fill="#54494B"/>
<path d="M345.564 139.248C361.516 139.248 377.474 139.187 393.431 139.259C421.704 139.392 441.437 168.346 431.296 194.717C424.969 211.173 410.875 221.259 393.248 221.342C361.134 221.497 329.008 221.569 296.899 221.32C273.944 221.148 256.046 203.067 255.869 180.539C255.691 157.59 273.329 139.348 296.544 138.926C312.884 138.627 329.224 138.865 345.564 138.865C345.564 138.998 345.564 139.126 345.564 139.248Z" fill="#54494B"/>
<path d="M341.516 132.939C330.926 132.939 320.607 133.271 310.322 132.867C291.775 132.129 274.238 133.998 260.62 150.371C260.481 147.388 260.354 145.769 260.354 144.156C260.343 110.156 260.448 76.1559 260.304 42.1561C260.221 24.5518 269.026 11.0117 283.813 4.70747C309.219 -6.13788 339.348 5.38391 341.272 39.1509C342.553 61.6178 341.516 84.2178 341.516 106.762C341.516 115.168 341.516 123.585 341.516 132.939Z" fill="#54494B"/>
</g>
<defs>
<clipPath id="clip0_140_27">
<rect width="434" height="369" fill="white"/>
</clipPath>
</defs>
</svg>
