<svg width="182" height="181" viewBox="0 0 182 181" fill="none" xmlns="http://www.w3.org/2000/svg">
<path d="M90.95 180.78C140.871 180.78 181.34 140.311 181.34 90.39C181.34 40.469 140.871 0 90.95 0C41.029 0 0.559998 40.469 0.559998 90.39C0.559998 140.311 41.029 180.78 90.95 180.78Z" fill="#F1F7ED"/>
<path d="M41.82 85.88C41.82 87.56 41.8 88.91 41.83 90.27C41.96 96.15 41.54 102.04 42.75 107.9C44.47 116.27 47.95 123.75 53.44 130.22C61.14 139.29 70.88 144.94 82.63 147.17C90.55 148.67 98.34 148.15 105.96 145.77C118.44 141.87 128 134.19 134.56 122.84C138.19 116.56 140.38 109.78 140.86 102.56C141.19 97.62 141.01 92.66 141.04 87.7C141.04 87.5 140.95 87.31 140.87 86.99C140.59 87.24 140.39 87.38 140.24 87.57C137.85 90.52 134.76 91.87 130.97 91.81C126.88 91.75 122.78 91.8 118.69 91.8C118.23 91.8 117.78 91.8 117.2 91.8C117.2 93.36 117.2 94.72 117.2 95.92C113.48 96.54 109.9 97.02 106.37 97.76C101.97 98.69 97.71 100.09 94.03 102.81C91.59 104.61 89.82 106.87 89.56 110.04C89.48 111.05 88.92 110.96 88.19 110.7C88.2 108.52 88.7 106.46 90.12 104.91C91.67 103.22 93.41 101.6 95.34 100.39C99.29 97.92 103.79 96.77 108.34 95.93C110.82 95.47 113.33 95.17 115.83 94.79C115.83 93.79 115.83 92.86 115.83 91.8C115.33 91.8 114.9 91.8 114.49 91.8C112.85 91.8 111.21 91.83 109.58 91.79C105.11 91.68 101.97 89.44 99.86 85.59C94.52 92.63 84.6 91.34 80.85 83.71C78.78 87.74 75.61 90.14 71.04 90.19C66.44 90.24 63.2 87.89 61.15 84.02C55.5 91.79 49.15 92.25 41.82 85.88ZM80.3 64.36C80.3 59.28 80.48 54.18 80.25 49.11C79.96 42.48 74.75 38.66 68.02 40.33C64.17 41.28 61.51 45.19 61.51 49.31C61.49 59.35 61.5 69.39 61.52 79.43C61.52 80.28 61.64 81.16 61.86 81.98C63.06 86.42 67.4 89.38 71.84 88.86C76.67 88.28 80.24 84.44 80.29 79.62C80.33 74.53 80.29 69.45 80.3 64.36ZM81.43 64.37C81.43 69.41 81.4 74.45 81.44 79.49C81.47 83.78 84.21 87.36 88.24 88.52C92.18 89.65 96.44 88.1 98.63 84.66C98.92 84.2 99.1 83.54 99.03 83.01C98.7 80.73 98.9 78.55 99.87 76.45C100.06 76.03 100.21 75.55 100.21 75.1C100.23 66.31 100.48 57.52 100.14 48.75C99.88 41.91 93.3 38.03 86.78 40.77C83.16 42.29 81.52 45.51 81.45 49.38C81.36 54.38 81.43 59.38 81.43 64.37ZM41.82 64.22C41.82 69.22 41.82 74.21 41.82 79.21C41.82 79.3 41.82 79.38 41.82 79.47C41.85 84.44 46.07 88.81 50.92 88.9C56.06 88.99 60.4 85.04 60.46 79.87C60.57 69.62 60.57 59.37 60.47 49.12C60.42 43.7 56.08 39.71 50.83 39.71C46.43 39.71 41.47 44.68 41.76 49.5C42.04 54.39 41.82 59.31 41.82 64.22ZM120.78 71.64C120.78 71.61 120.78 71.58 120.78 71.55C117.03 71.55 113.28 71.49 109.54 71.56C104.21 71.66 100.17 75.84 100.21 81.1C100.25 86.27 104.35 90.41 109.62 90.45C116.99 90.51 124.35 90.49 131.72 90.45C135.76 90.43 139 88.12 140.45 84.34C142.78 78.29 138.25 71.65 131.77 71.62C128.1 71.63 124.44 71.64 120.78 71.64ZM119.85 70.19C119.85 68.05 119.85 66.11 119.85 64.19C119.85 59.02 120.09 53.84 119.79 48.68C119.35 40.93 112.44 38.29 106.61 40.78C103.22 42.23 101.2 45.33 101.22 49.37C101.25 57.17 101.23 64.97 101.23 72.76C101.23 73.13 101.26 73.5 101.29 74.19C104.42 70.43 108.44 70.01 112.69 70.17C115.05 70.27 117.42 70.19 119.85 70.19Z" fill="#B33951"/>
<path d="M41.8201 85.88C49.1501 92.25 55.5 91.79 61.12 84.02C63.17 87.89 66.41 90.23 71.01 90.19C75.58 90.15 78.7501 87.74 80.8201 83.71C84.5701 91.34 94.49 92.63 99.83 85.59C101.94 89.43 105.08 91.67 109.55 91.79C111.19 91.83 112.82 91.8 114.46 91.8C114.88 91.8 115.3 91.8 115.8 91.8C115.8 92.85 115.8 93.78 115.8 94.79C113.3 95.17 110.79 95.47 108.31 95.93C103.76 96.77 99.27 97.92 95.31 100.39C93.38 101.6 91.64 103.22 90.09 104.91C88.67 106.46 88.17 108.52 88.16 110.7C88.89 110.96 89.45 111.05 89.53 110.04C89.79 106.87 91.56 104.61 94 102.81C97.68 100.09 101.94 98.69 106.34 97.76C109.87 97.02 113.46 96.54 117.17 95.92C117.17 94.72 117.17 93.36 117.17 91.8C117.75 91.8 118.21 91.8 118.66 91.8C122.75 91.8 126.85 91.75 130.94 91.81C134.73 91.87 137.82 90.53 140.21 87.57C140.36 87.38 140.56 87.24 140.84 86.99C140.92 87.32 141.01 87.51 141 87.7C140.96 92.65 141.14 97.62 140.82 102.56C140.34 109.78 138.15 116.56 134.52 122.84C127.96 134.18 118.4 141.87 105.92 145.77C98.3 148.15 90.51 148.67 82.59 147.17C70.84 144.94 61.1 139.3 53.4 130.22C47.9 123.74 44.4301 116.26 42.7101 107.9C41.5001 102.04 41.91 96.15 41.79 90.27C41.79 88.92 41.8201 87.56 41.8201 85.88Z" fill="#B33951"/>
<path d="M80.29 64.36C80.29 69.44 80.33 74.53 80.28 79.61C80.23 84.42 76.67 88.27 71.83 88.85C67.39 89.38 63.05 86.41 61.85 81.97C61.63 81.15 61.51 80.27 61.5 79.42C61.48 69.38 61.47 59.34 61.49 49.3C61.5 45.18 64.16 41.27 68 40.32C74.73 38.65 79.94 42.47 80.23 49.1C80.48 54.19 80.3 59.28 80.29 64.36Z" fill="#B33951"/>
<path d="M81.43 64.37C81.43 59.37 81.36 54.38 81.45 49.38C81.52 45.51 83.16 42.29 86.78 40.77C93.3 38.03 99.88 41.91 100.14 48.75C100.47 57.52 100.23 66.32 100.21 75.1C100.21 75.55 100.06 76.03 99.87 76.45C98.91 78.56 98.7 80.73 99.03 83.01C99.1 83.53 98.92 84.2 98.63 84.66C96.44 88.1 92.18 89.65 88.24 88.52C84.2 87.36 81.47 83.77 81.44 79.49C81.4 74.45 81.43 69.41 81.43 64.37Z" fill="#B33951"/>
<path d="M41.82 64.22C41.82 59.31 42.04 54.39 41.76 49.5C41.48 44.67 46.43 39.71 50.83 39.71C56.07 39.71 60.41 43.7 60.47 49.12C60.57 59.37 60.57 69.62 60.46 79.87C60.4 85.04 56.06 89 50.92 88.9C46.07 88.81 41.86 84.44 41.82 79.47C41.82 79.38 41.82 79.3 41.82 79.21C41.82 74.21 41.82 69.22 41.82 64.22Z" fill="#B33951"/>
<path d="M120.78 71.64C124.44 71.64 128.1 71.63 131.76 71.64C138.24 71.67 142.77 78.31 140.44 84.36C138.99 88.13 135.76 90.45 131.71 90.47C124.34 90.51 116.98 90.52 109.61 90.47C104.34 90.43 100.24 86.28 100.2 81.12C100.16 75.86 104.2 71.67 109.53 71.58C113.28 71.51 117.03 71.57 120.77 71.57C120.78 71.58 120.78 71.61 120.78 71.64Z" fill="#B33951"/>
<path d="M119.85 70.19C117.42 70.19 115.05 70.27 112.7 70.17C108.45 70 104.42 70.43 101.3 74.19C101.27 73.51 101.24 73.13 101.24 72.76C101.24 64.96 101.26 57.16 101.23 49.37C101.21 45.33 103.23 42.23 106.62 40.78C112.45 38.29 119.36 40.94 119.8 48.68C120.09 53.83 119.86 59.02 119.86 64.19C119.85 66.12 119.85 68.05 119.85 70.19Z" fill="#B33951"/>
</svg>
