<svg width="580" height="260" viewBox="0 0 580 260" fill="none" xmlns="http://www.w3.org/2000/svg">
<g opacity="0.8">
<path d="M464.44 208.97C454.37 203.62 448.27 195.18 448.38 183.2C448.5 171.29 454.76 163.04 465.25 157.64C445.36 147.87 442.01 122.03 460.34 108.13C450.33 102.62 444.5 94.44 444.2 82.8C444.09 78.54 444.18 74.27 444.17 70.01C444.17 68.92 444.17 67.82 444.17 66.51C441.42 66.51 439 66.51 436.39 66.51C435.41 73.02 434.61 79.55 433.42 86.01C431.24 97.86 428.25 109.56 421.81 119.86C418.66 124.9 414.43 129.41 410.03 133.46C406 137.17 400.63 138.47 394.95 138.49C394.28 136.59 394.05 135.13 396.67 134.91C404.92 134.23 410.8 129.62 415.5 123.25C422.57 113.66 426.24 102.58 428.65 91.12C430.59 81.93 431.83 72.58 433.44 62.91C436.56 62.91 440.11 62.91 444.16 62.91C444.16 61.39 444.16 60.21 444.16 59.02C444.17 48.36 444.29 37.7 444.13 27.04C443.97 17.16 447.47 9.11001 455.16 2.89001C455.65 2.50001 456.01 1.97001 456.67 1.24001C455.82 1.04001 455.32 0.810015 454.81 0.810015C441.91 0.910015 428.97 0.440014 416.12 1.29001C397.31 2.53001 379.66 8.24001 363.3 17.7C333.76 34.79 313.75 59.69 303.59 92.19C297.39 112.03 296.04 132.32 299.95 152.95C305.76 183.55 320.46 208.92 344.09 228.98C360.95 243.3 380.44 252.34 402.23 256.83C417.5 259.97 432.83 258.91 448.16 259.23C451.69 259.31 455.23 259.24 459.59 259.24C443.02 240.14 444.21 223.61 464.44 208.97ZM475.93 159.05C463.39 159.17 453.37 168.46 451.87 181.05C450.5 192.6 458.23 203.91 469.78 207.04C471.92 207.62 474.2 207.93 476.42 207.94C502.57 208 528.72 208.02 554.88 207.97C565.6 207.95 575.79 201.02 578.27 191.01C582.61 173.47 572.67 159.91 555.39 159.14C542.17 158.56 528.9 159.02 515.66 159.02C502.41 159.02 489.17 158.92 475.93 159.05ZM554.68 156.01C564.75 155.83 573.14 151.57 577.11 142.13C584.23 125.16 574.12 108.02 556.32 107.34C533.47 106.47 510.56 107.11 487.68 107.16C486.51 107.16 485.26 107.55 484.17 108.05C478.69 110.55 473.02 111.09 467.08 110.23C465.71 110.04 463.98 110.51 462.79 111.27C453.84 116.98 449.79 128.07 452.74 138.33C455.77 148.84 465.11 155.97 476.27 156.05C489.39 156.14 502.52 156.07 515.64 156.07C528.65 156.07 541.67 156.25 554.68 156.01ZM554.38 259.4C566.95 260.13 579.89 247.23 579.89 235.77C579.89 222.11 569.51 210.81 555.38 210.67C528.69 210.41 501.99 210.42 475.29 210.7C461.83 210.85 451.51 222.16 451.76 235.54C451.99 248.17 463.37 259.14 476.32 259.23C476.54 259.23 476.77 259.23 476.99 259.23C490 259.23 503.01 259.23 516.03 259.23C528.81 259.23 541.64 258.65 554.38 259.4ZM496.7 24.98C496.62 8.09001 479.32 -3.69999 463.57 2.36001C453.74 6.14001 447.72 14.56 447.66 25.09C447.57 44.28 447.53 63.46 447.67 82.65C447.77 96.37 458.58 107.06 472.03 107.16C485.74 107.27 496.64 96.73 496.89 82.86C497.07 73.1 496.92 63.34 496.92 53.57C496.85 53.57 496.77 53.57 496.7 53.57C496.71 44.05 496.74 34.51 496.7 24.98ZM500.52 74.63C500.96 85.71 499.84 96.18 490.06 104.32C491.84 104.4 492.81 104.48 493.78 104.48C514.09 104.49 534.4 104.42 554.71 104.51C565.23 104.56 573.31 99.3 577.08 90.47C583.56 75.29 576.68 57.3 556.5 56.14C543.08 55.37 529.58 55.99 516.11 55.99C511.09 55.99 506.06 55.99 500.47 55.99C500.47 62.32 500.28 68.49 500.52 74.63Z" fill="#54494B"/>
<path d="M459.6 259.24C443.02 240.15 444.21 223.61 464.44 208.97C454.37 203.62 448.26 195.18 448.38 183.2C448.5 171.29 454.76 163.04 465.25 157.64C445.36 147.87 442.01 122.03 460.34 108.13C450.34 102.62 444.5 94.44 444.2 82.8C444.09 78.54 444.18 74.27 444.18 70.01C444.18 68.91 444.18 67.82 444.18 66.5C441.43 66.5 439.01 66.5 436.4 66.5C435.42 73.01 434.62 79.54 433.43 86.01C431.25 97.86 428.26 109.56 421.82 119.86C418.67 124.9 414.44 129.41 410.04 133.46C406.01 137.17 400.64 138.47 394.96 138.49C394.29 136.59 394.06 135.13 396.68 134.91C404.93 134.23 410.81 129.62 415.51 123.26C422.59 113.67 426.25 102.58 428.66 91.12C430.6 81.93 431.84 72.58 433.45 62.91C436.57 62.91 440.12 62.91 444.17 62.91C444.17 61.39 444.17 60.2 444.17 59.02C444.17 48.35 444.3 37.69 444.14 27.03C443.98 17.15 447.48 9.09999 455.17 2.87999C455.65 2.48999 456.02 1.95999 456.68 1.22999C455.83 1.02999 455.32 0.799991 454.82 0.799991C441.92 0.899991 428.98 0.42999 416.12 1.27999C397.31 2.52999 379.66 8.22999 363.3 17.69C333.76 34.77 313.75 59.68 303.59 92.17C297.39 112.01 296.03 132.3 299.95 152.94C305.76 183.54 320.46 208.91 344.09 228.97C360.96 243.29 380.44 252.33 402.24 256.82C417.51 259.97 432.84 258.9 448.17 259.22C451.7 259.3 455.23 259.24 459.6 259.24Z" fill="#54494B"/>
<path d="M515.66 159.02C502.42 159.02 489.18 158.92 475.93 159.05C463.39 159.17 453.37 168.46 451.87 181.05C450.5 192.6 458.23 203.91 469.78 207.04C471.92 207.62 474.2 207.94 476.42 207.94C502.57 208 528.72 208.01 554.87 207.96C565.59 207.94 575.78 201.02 578.26 191C582.6 173.46 572.66 159.9 555.38 159.14C542.17 158.55 528.9 159.02 515.66 159.02Z" fill="#54494B"/>
<path d="M515.64 156.07C528.65 156.07 541.67 156.25 554.68 156.01C564.75 155.83 573.14 151.57 577.11 142.13C584.23 125.16 574.12 108.02 556.32 107.34C533.47 106.47 510.56 107.11 487.68 107.16C486.5 107.16 485.26 107.55 484.17 108.05C478.69 110.55 473.02 111.09 467.08 110.23C465.71 110.04 463.98 110.51 462.79 111.27C453.84 116.98 449.79 128.07 452.74 138.33C455.77 148.84 465.11 155.97 476.27 156.05C489.39 156.14 502.51 156.07 515.64 156.07Z" fill="#54494B"/>
<path d="M516.03 259.23C528.82 259.23 541.64 258.65 554.38 259.4C566.95 260.13 579.89 247.23 579.89 235.77C579.89 222.11 569.51 210.81 555.38 210.67C528.69 210.41 501.99 210.42 475.29 210.7C461.83 210.85 451.51 222.16 451.76 235.54C451.99 248.17 463.37 259.14 476.32 259.23C476.54 259.24 476.77 259.24 476.99 259.24C490.01 259.23 503.02 259.23 516.03 259.23Z" fill="#54494B"/>
<path d="M496.71 53.58C496.71 44.05 496.75 34.52 496.7 24.99C496.62 8.10003 479.32 -3.68998 463.57 2.37002C453.74 6.15002 447.72 14.57 447.67 25.1C447.58 44.29 447.53 63.48 447.68 82.66C447.78 96.38 458.58 107.07 472.04 107.17C485.75 107.28 496.65 96.74 496.9 82.87C497.08 73.11 496.94 63.35 496.94 53.59C496.86 53.58 496.78 53.58 496.71 53.58Z" fill="#54494B"/>
<path d="M500.47 55.99C500.47 62.32 500.27 68.48 500.51 74.62C500.95 85.7 499.83 96.17 490.05 104.31C491.83 104.39 492.8 104.47 493.77 104.47C514.08 104.48 534.39 104.41 554.7 104.5C565.22 104.55 573.3 99.29 577.07 90.46C583.55 75.28 576.67 57.29 556.49 56.13C543.07 55.36 529.57 55.98 516.1 55.98C511.09 55.99 506.06 55.99 500.47 55.99Z" fill="#54494B"/>
<path d="M326 71.5H0V183.5H326V71.5Z" fill="#54494B"/>
</g>
</svg>
