<svg width="589" height="268" viewBox="0 0 589 268" fill="none" xmlns="http://www.w3.org/2000/svg">
<path opacity="0.8" d="M547.743 149.896C549.932 134.555 547.214 118.909 539.985 105.234L538.315 102.376C526.99 83.2882 502.074 71.3153 474.44 78.3733C472.293 73.3432 469.16 68.8028 465.231 65.0248C461.301 61.2467 456.656 58.3088 451.574 56.3874C446.492 54.4659 441.077 53.6005 435.655 53.8432C430.234 54.0858 424.916 55.4314 420.023 57.7993C398.391 30.7103 352.779 -11.695 281.628 3.02112C210.477 17.7372 177.832 90.5462 177.832 90.5462C153.228 67.5148 102.094 77.4304 77.1788 101.348C50.9325 126.551 51.4138 145.725 51.4138 145.725C34.0296 134.466 6.11281 145.725 1.29957 162.498C-0.675735 168.822 -0.39202 175.644 2.10137 181.779C4.59475 187.913 9.14003 192.972 14.9465 196.074L17.1832 197.131C40.4566 208.618 54.7831 202.303 54.7831 202.303C82.5016 262.653 134.909 246.966 158.862 234.65C166.365 230.821 181.796 224.134 181.796 224.134C181.796 224.134 224.803 265.368 284.544 267.654C320.219 269.054 381.12 250.337 395.362 217.276C459.349 254.424 572.347 225.849 587.042 188.93C592.903 174.328 587.212 138.981 547.743 149.896Z" fill="white"/>
</svg>
