<svg width="491" height="275" viewBox="0 0 491 275" fill="none" xmlns="http://www.w3.org/2000/svg">
<path opacity="0.8" d="M0.0240634 169.008C0.0240634 170.989 0.233398 173.04 0.463685 175.113C1.25922 181.91 10.9313 196.263 33.5832 205.871C60.6943 217.39 94.2953 222.228 117.471 202.922C115.712 219.533 132.607 230.269 146.78 236.374C161.832 242.825 177.178 249.346 193.298 250.198C209.418 251.05 226.794 244.899 236.11 230.499C249.383 255.843 283.215 264.897 305.532 248.931C312.443 259.796 322.378 267.892 333.838 271.998C345.297 276.103 357.659 275.996 369.058 271.691C380.457 267.386 390.275 259.118 397.029 248.134C403.784 237.15 407.109 224.047 406.502 210.801C419.063 218.358 437.151 205.41 435.937 189.674C448.247 202 469.433 199.12 480.759 185.665C492.085 172.21 493.655 151.107 487.249 134.173C482.725 122.873 475.577 113.083 466.523 105.789C466.832 101.6 466.528 97.3841 465.623 93.3014C464.71 89.2708 463.158 85.4491 461.038 82.0122C456.696 75.4223 450.529 70.5599 443.463 68.1547C436.397 65.7494 428.812 65.9311 421.848 68.6726C427.375 49.6883 413.767 27.0639 395.741 25.2668C378.302 23.5158 361.764 41.7398 362.81 60.8393C361.952 52.1074 355.462 45.4261 348.909 40.2653C333.564 28.2158 320.605 39.2055 317.611 40.5187C313.194 17.0649 293.075 -0.951713 263.598 0.0389703C234.122 1.02965 215.447 22.4791 214.024 43.8133C210.444 38.2738 205.075 34.4504 199.016 33.1262C192.958 31.802 186.668 33.0773 181.437 36.6909C176.205 40.3045 172.427 45.9827 170.876 52.5626C169.325 59.1425 170.119 66.1259 173.095 72.0823C164.275 62.8618 153.271 56.5653 141.346 53.9156C129.421 51.2659 117.059 52.3705 105.679 57.1025C94.2982 61.8344 84.3611 70.002 77.0077 80.6677C69.6544 91.3333 65.183 104.065 64.1067 117.4C43.8624 110.581 -1.19018 124.151 0.0240634 169.008Z" fill="white"/>
</svg>
