<svg width="449" height="253" viewBox="0 0 449 253" fill="none" xmlns="http://www.w3.org/2000/svg">
<path opacity="0.8" d="M448.978 97.7329C448.978 95.9232 448.787 94.0503 448.576 92.1564C447.849 85.9486 439.004 72.8385 418.29 64.0633C393.497 53.5416 362.771 49.1224 341.578 66.7569C343.186 51.5845 327.736 41.7782 314.776 36.2017C301.011 30.3095 286.978 24.3542 272.237 23.5756C257.496 22.797 241.606 28.4156 233.086 41.5678C220.949 18.4199 190.011 10.1498 169.604 24.733C163.283 14.8092 154.198 7.41432 143.719 3.66428C133.239 -0.085762 121.935 0.0125482 111.511 3.94434C101.087 7.87613 92.1091 15.428 85.9324 25.4605C79.7557 35.4929 76.7152 47.4615 77.2699 59.56C65.7832 52.6577 49.2424 64.4842 50.3528 78.8569C39.0959 67.5986 19.7217 70.229 9.36465 82.5184C-0.992484 94.8078 -2.42831 114.084 3.42988 129.551C7.56697 139.872 14.1038 148.814 22.3829 155.476C22.1008 159.302 22.3787 163.153 23.206 166.882C24.0407 170.563 25.46 174.054 27.3987 177.193C31.3692 183.212 37.0086 187.653 43.4705 189.85C49.9324 192.047 56.8682 191.881 63.237 189.377C58.1829 206.717 70.6268 227.382 87.1101 229.023C103.058 230.623 118.182 213.977 117.224 196.532C118.009 204.508 123.944 210.61 129.936 215.324C143.969 226.33 155.819 216.292 158.557 215.093C162.597 236.515 180.994 252.971 207.95 252.066C234.905 251.161 251.982 231.57 253.284 212.083C256.557 217.143 261.467 220.635 267.008 221.845C272.548 223.054 278.299 221.889 283.083 218.589C287.868 215.288 291.323 210.102 292.741 204.092C294.159 198.082 293.433 191.703 290.711 186.263C298.777 194.685 308.84 200.436 319.745 202.856C330.65 205.276 341.954 204.267 352.361 199.945C362.768 195.623 371.855 188.163 378.579 178.421C385.304 168.679 389.393 157.051 390.377 144.87C408.89 151.099 450.088 138.705 448.978 97.7329Z" fill="white"/>
</svg>
