<svg width="256" height="350" viewBox="0 0 256 350" fill="none" xmlns="http://www.w3.org/2000/svg">
<path d="M229.287 211.738C218.901 210.66 211.504 205.391 206.736 196.673C194.881 217.677 165.682 216.264 155.373 196.123C150.554 205.056 143.157 210.732 132.462 211.738C121.766 212.743 113.287 208.648 106.638 200.577C105.968 201.607 105.478 202.373 104.963 203.14C99.4735 211.115 91.6646 215.402 81.4589 215.713C76.1499 215.881 70.8408 215.737 65.3256 215.737C65.3256 218.228 65.3256 220.455 65.3256 222.85C71.9233 223.784 78.5983 224.574 85.2217 225.7C95.4274 227.424 105.324 230.083 114.653 234.393C120.555 237.124 125.993 240.5 130.245 245.29C134.266 249.817 136.482 254.966 136.559 261.145C135.477 261.217 134.549 261.265 133.364 261.336C132.333 248.452 123.132 241.818 111.973 236.884C97.2314 230.37 81.3559 227.855 65.2742 226.371C64.1918 226.275 63.1093 226.179 61.6661 226.035C61.6661 222.61 61.6661 219.353 61.6661 215.761C60.094 215.761 58.9084 215.761 57.7229 215.761C47.9553 215.761 38.1621 215.953 28.3946 215.665C23.0082 215.497 17.4672 215.138 12.3901 213.677C9.16862 212.743 6.64297 209.63 3.8596 207.427C2.80295 206.588 1.95248 205.559 0.638106 204.241C0.354615 205.415 0.0968387 205.99 0.0968387 206.564C0.122611 216.671 -0.212406 226.825 0.277261 236.908C1.35968 259.253 8.88514 279.729 22.3896 298.242C36.2034 317.162 54.4757 331.196 77.0004 340.321C92.309 346.524 108.21 349.901 125.117 349.757C139.549 349.613 153.698 348.895 167.46 344.56C179.934 340.632 191.711 335.387 202.355 328.203C221.813 315.078 236.58 298.314 245.961 277.646C252.456 263.348 256.064 248.452 255.858 232.837C255.755 223.76 255.832 214.659 255.832 205.583C255.832 204.577 255.832 203.571 255.832 202.565C255.523 202.278 255.188 201.99 254.878 201.727C248.1 209.175 239.596 212.815 229.287 211.738ZM153.904 23.1851C153.878 13.6054 148.801 6.44465 139.858 2.27748C124.885 -4.7157 106.947 5.22321 105.71 20.8142C105.607 22.0356 105.633 23.2809 105.633 24.5263C105.633 67.4912 105.633 110.432 105.633 153.397C105.633 154.02 105.813 154.69 105.581 155.241C105.221 156.127 104.602 156.942 104.087 157.756C103.262 157.061 101.896 156.511 101.664 155.672C100.092 150.523 98.8807 145.302 97.3602 140.129C93.1593 125.927 88.8554 111.749 84.6288 97.5475C80.4538 83.5372 76.3304 69.5269 72.1811 55.5406C69.14 45.3142 66.1504 35.064 62.9805 24.8856C59.4497 13.5576 45.8937 6.42065 34.1932 9.558C20.9722 13.1025 13.3436 25.0054 16.8744 36.9081C22.9824 57.5763 29.2707 78.1726 35.4302 98.8408C41.4867 119.198 47.5173 139.555 53.4964 159.935C54.2438 162.498 55.6097 163.719 58.6508 163.647C65.4288 163.48 72.2067 163.719 78.9848 163.576C99.9631 163.121 112.102 180.46 108.597 194.901C108.339 196.003 108.932 197.512 109.628 198.542C115.272 206.708 126.07 210.444 136.121 207.858C146.404 205.223 153.749 196.889 153.904 187.046C154.11 173.323 153.981 159.576 153.981 145.853C153.981 132.13 153.981 118.383 153.981 104.66H153.955C153.93 77.502 153.981 50.3436 153.904 23.1851ZM205.293 114.001C205.216 103.367 198.077 94.506 187.614 91.7758C172.589 87.8721 157.203 98.1223 156.971 112.875C156.584 137.447 156.636 162.019 156.971 186.591C157.151 199.404 168.285 208.959 181.506 208.696C195.062 208.409 205.242 198.589 205.319 185.561C205.396 173.682 205.345 161.803 205.345 149.924C205.319 137.974 205.37 125.999 205.293 114.001ZM255.987 113.641C256.451 100.996 244.93 91.201 232.586 90.8897C219.494 90.5544 208.128 100.445 207.999 113.019C207.742 137.782 207.767 162.57 207.999 187.333C208.102 198.709 218.076 207.738 230.601 208.672C241.451 209.462 253.281 201.152 255.6 191.045C255.909 189.656 255.909 188.172 255.909 186.735C255.935 174.449 255.909 162.163 255.909 149.877C255.884 137.806 255.549 125.712 255.987 113.641ZM23.6524 167.479C6.43678 167.551 -5.16056 185.01 2.5968 199.308C7.15844 207.714 14.4776 212.504 24.8637 212.528C43.6256 212.576 62.3877 212.648 81.1497 212.504C92.3089 212.408 101.561 205.798 104.525 196.242C107.514 186.663 103.726 176.197 94.6283 171.072C90.6079 168.796 86.0978 167.192 80.9434 167.384C71.6398 167.719 62.2846 167.479 52.9551 167.479C43.2133 167.479 33.4458 167.431 23.6524 167.479Z" fill="#54494B"/>
<path d="M254.929 201.727C248.074 209.175 239.569 212.815 229.261 211.738C218.9 210.66 211.478 205.391 206.71 196.673C194.855 217.677 165.655 216.264 155.347 196.123C150.527 205.056 143.131 210.732 132.461 211.738C121.766 212.743 113.261 208.648 106.638 200.577C105.968 201.607 105.478 202.373 104.962 203.14C99.473 211.115 91.6641 215.402 81.4584 215.713C76.1494 215.881 70.8403 215.737 65.2993 215.737C65.2993 218.228 65.2993 220.455 65.2993 222.85C71.897 223.784 78.572 224.574 85.1954 225.7C95.3753 227.424 105.297 230.083 114.627 234.394C120.529 237.124 125.967 240.501 130.219 245.29C134.239 249.817 136.456 254.966 136.533 261.145C135.451 261.217 134.523 261.265 133.337 261.336C132.306 248.452 123.106 241.818 111.947 236.884C97.2051 230.37 81.3296 227.855 65.2479 226.371C64.1655 226.275 63.083 226.179 61.6398 226.035C61.6398 222.611 61.6398 219.353 61.6398 215.761C60.0677 215.761 58.8823 215.761 57.6967 215.761C47.9292 215.761 38.1358 215.953 28.3682 215.665C23.0077 215.498 17.4409 215.138 12.3638 213.678C9.14231 212.743 6.61669 209.63 3.85909 207.427C2.80244 206.588 1.95197 205.559 0.637598 204.242C0.354107 205.415 0.0963306 205.99 0.0963306 206.565C0.0963306 216.671 -0.212914 226.826 0.276753 236.908C1.35918 259.253 8.88463 279.729 22.3891 298.242C36.2029 317.162 54.4752 331.196 76.9999 340.321C92.3085 346.524 108.21 349.901 125.116 349.757C139.548 349.613 153.697 348.895 167.459 344.56C179.933 340.632 191.711 335.387 202.355 328.203C221.813 315.078 236.58 298.314 245.961 277.646C252.455 263.348 256.063 248.452 255.857 232.837C255.754 223.76 255.832 214.659 255.832 205.583C255.832 204.577 255.832 203.571 255.832 202.565C255.574 202.302 255.264 202.014 254.929 201.727Z" fill="#54494B"/>
<path d="M153.929 104.66C153.929 77.502 153.981 50.3435 153.903 23.1851C153.878 13.6054 148.801 6.44465 139.858 2.27748C124.884 -4.7157 106.947 5.22321 105.71 20.8142C105.607 22.0356 105.633 23.2809 105.633 24.5263C105.633 67.4912 105.633 110.432 105.633 153.397C105.633 154.02 105.813 154.69 105.581 155.241C105.22 156.127 104.602 156.942 104.086 157.756C103.262 157.061 101.896 156.51 101.664 155.672C100.092 150.523 98.8803 145.302 97.3598 140.129C93.1589 125.927 88.855 111.749 84.6284 97.5475C80.4533 83.5371 76.3299 69.5269 72.1807 55.5405C69.1396 45.3142 66.15 35.064 62.9801 24.8856C59.4493 13.5576 45.8933 6.42064 34.1928 9.55799C20.9718 13.1025 13.3432 25.0054 16.874 36.9081C22.9819 57.5763 29.2703 78.1726 35.4298 98.8408C41.4862 119.198 47.5169 139.555 53.496 159.935C54.2434 162.498 55.6093 163.719 58.6504 163.647C65.4284 163.48 72.2063 163.719 78.9843 163.575C99.9627 163.12 112.101 180.46 108.596 194.901C108.339 196.003 108.931 197.512 109.627 198.541C115.297 206.708 126.07 210.444 136.121 207.858C146.404 205.223 153.749 196.889 153.903 187.046C154.11 173.323 153.981 159.576 153.981 145.853C153.929 132.13 153.929 118.407 153.929 104.66Z" fill="#54494B"/>
<path d="M205.318 149.949C205.318 137.974 205.37 125.999 205.293 114.025C205.215 103.391 198.076 94.5301 187.613 91.7999C172.588 87.8961 157.202 98.1464 156.97 112.899C156.584 137.471 156.635 162.043 156.97 186.615C157.151 199.428 168.284 208.983 181.505 208.72C195.061 208.433 205.241 198.613 205.318 185.585C205.37 173.706 205.318 161.827 205.318 149.949Z" fill="#54494B"/>
<path d="M255.883 149.877C255.883 137.806 255.548 125.712 255.987 113.641C256.425 100.996 244.93 91.201 232.56 90.8896C219.468 90.5543 208.102 100.445 207.973 113.019C207.716 137.782 207.741 162.57 207.999 187.333C208.102 198.709 218.076 207.738 230.575 208.672C241.425 209.462 253.255 201.152 255.574 191.045C255.883 189.656 255.858 188.171 255.883 186.735C255.883 174.449 255.883 162.163 255.883 149.877Z" fill="#54494B"/>
<path d="M52.9807 167.479C43.2131 167.479 33.4455 167.455 23.678 167.479C6.48807 167.551 -5.13504 185.01 2.62232 199.308C7.18395 207.714 14.5031 212.504 24.8892 212.528C43.6512 212.576 62.4132 212.648 81.1752 212.504C92.3344 212.408 101.587 205.798 104.55 196.242C107.54 186.663 103.751 176.197 94.6539 171.072C90.6334 168.796 86.1234 167.192 80.969 167.384C71.6395 167.719 62.3101 167.455 52.9807 167.479Z" fill="#54494B"/>
</svg>
