<svg width="216" height="342" viewBox="0 0 216 342" fill="none" xmlns="http://www.w3.org/2000/svg">
<g opacity="0.8">
<path d="M193.207 191.92C184.487 190.947 178.267 186.187 174.267 178.293C164.293 197.287 139.773 196.013 131.107 177.793C127.06 185.88 120.853 191 111.86 191.913C102.867 192.827 95.74 189.127 90.16 181.82C89.5934 182.753 89.18 183.453 88.7467 184.133C84.1334 191.347 77.5667 195.227 68.9934 195.5C64.5334 195.64 60.0734 195.527 55.4267 195.527C55.4267 197.78 55.4267 199.793 55.4267 201.96C60.9667 202.807 66.58 203.527 72.14 204.547C80.7 206.113 89.0334 208.507 96.8667 212.4C101.84 214.867 106.4 217.92 109.98 222.253C113.353 226.34 115.233 230.993 115.287 236.587C114.38 236.64 113.593 236.693 112.607 236.753C111.733 225.093 104.013 219.1 94.6267 214.647C82.2267 208.76 68.9067 206.493 55.38 205.133C54.4734 205.04 53.5667 204.953 52.3534 204.84C52.3534 201.753 52.3534 198.807 52.3534 195.54C51.0334 195.54 50.04 195.54 49.0467 195.54C40.8267 195.54 32.6067 195.727 24.4 195.467C19.88 195.32 15.2134 195 10.9534 193.667C8.24002 192.82 6.12002 190.013 3.79336 188.027C2.91336 187.273 2.19335 186.333 1.09335 185.153C0.853353 186.22 0.633353 186.733 0.64002 187.253C0.653353 196.407 0.373354 205.567 0.786687 214.7C1.69335 234.913 8.01335 253.42 19.3734 270.167C30.9867 287.287 46.3334 299.96 65.2667 308.213C78.14 313.827 91.4867 316.873 105.713 316.733C117.84 316.613 129.733 315.953 141.293 312.04C151.773 308.493 161.68 303.747 170.62 297.253C186.967 285.373 199.387 270.227 207.26 251.54C212.713 238.607 215.74 225.133 215.58 211.013C215.487 202.8 215.567 194.58 215.567 186.367C215.567 185.46 215.567 184.553 215.567 183.647C215.3 183.393 215.033 183.133 214.773 182.88C209.02 189.593 201.873 192.887 193.207 191.92ZM129.853 21.42C129.827 12.76 125.56 6.29338 118.04 2.51338C105.46 -3.80662 90.3934 5.1867 89.34 19.2867C89.26 20.4 89.2667 21.5267 89.2667 22.6467C89.26 61.4934 89.26 100.34 89.26 139.187C89.26 139.747 89.4067 140.36 89.2267 140.853C88.9267 141.66 88.4067 142.38 87.98 143.133C87.2734 142.513 86.1467 142.013 85.9334 141.26C84.6134 136.607 83.5867 131.873 82.3067 127.213C78.78 114.367 75.16 101.54 71.6067 88.7C68.1 76.04 64.64 63.3667 61.14 50.7067C58.58 41.46 56.0734 32.1934 53.4 22.98C50.4267 12.7267 39.0467 6.27336 29.2134 9.11336C18.1134 12.32 11.6934 23.08 14.6534 33.84C19.7934 52.5267 25.0734 71.1667 30.24 89.84C35.34 108.247 40.3934 126.667 45.4134 145.093C46.0467 147.413 47.2 148.507 49.7467 148.447C55.44 148.307 61.14 148.513 66.8334 148.38C84.46 147.98 94.6667 163.653 91.7267 176.707C91.5067 177.7 92.0067 179.08 92.6 180C97.3534 187.387 106.407 190.767 114.86 188.433C123.5 186.047 129.68 178.52 129.807 169.613C129.993 157.193 129.873 144.773 129.88 132.353C129.887 119.933 129.88 107.513 129.88 95.0934H129.867C129.88 70.5401 129.927 45.98 129.853 21.42ZM173.047 103.547C172.987 93.9334 166.987 85.9134 158.18 83.4534C145.56 79.9267 132.62 89.1867 132.427 102.527C132.107 124.747 132.133 146.973 132.42 169.193C132.573 180.773 141.933 189.427 153.033 189.173C164.42 188.913 172.98 180.02 173.04 168.26C173.1 157.52 173.053 146.78 173.053 136.047C173.067 125.207 173.113 114.38 173.047 103.547ZM215.64 103.22C216.02 91.7867 206.347 82.9334 195.96 82.6401C184.967 82.3334 175.413 91.2801 175.3 102.64C175.073 125.04 175.107 147.447 175.313 169.847C175.407 180.127 183.78 188.307 194.293 189.133C203.413 189.853 213.36 182.34 215.3 173.2C215.567 171.94 215.547 170.6 215.553 169.3C215.573 158.193 215.567 147.087 215.567 135.98C215.567 125.06 215.28 114.127 215.64 103.22ZM20.4134 151.9C5.95336 151.973 -3.79998 167.747 2.71335 180.673C6.54669 188.273 12.7 192.613 21.4267 192.64C37.1934 192.687 52.9667 192.74 68.74 192.607C78.1067 192.527 85.88 186.54 88.3867 177.913C90.9 169.253 87.7067 159.78 80.0667 155.14C76.6934 153.093 72.9 151.627 68.5534 151.8C60.7267 152.113 52.88 151.887 45.04 151.887C36.8334 151.893 28.6267 151.86 20.4134 151.9Z" fill="#54494B"/>
<path d="M215.567 183.633C215.567 184.54 215.567 185.447 215.567 186.353C215.567 194.567 215.487 202.787 215.58 211C215.733 225.12 212.713 238.593 207.26 251.527C199.387 270.207 186.967 285.36 170.62 297.24C161.68 303.74 151.773 308.48 141.293 312.027C129.733 315.947 117.84 316.607 105.713 316.72C91.4934 316.86 78.1401 313.807 65.2734 308.2C46.3334 299.947 30.9934 287.267 19.38 270.153C8.02004 253.407 1.70005 234.9 0.793379 214.687C0.380045 205.553 0.653378 196.387 0.646711 187.24C0.646711 186.727 0.860045 186.207 1.10004 185.14C2.19338 186.32 2.92004 187.26 3.80004 188.013C6.12671 190.007 8.24671 192.807 10.96 193.653C15.22 194.98 19.8934 195.307 24.4067 195.453C32.6134 195.713 40.84 195.527 49.0534 195.527C50.0467 195.527 51.04 195.527 52.36 195.527C52.36 198.793 52.36 201.74 52.36 204.827C53.5734 204.94 54.48 205.027 55.3867 205.12C68.9067 206.48 82.2334 208.747 94.6267 214.633C104.013 219.087 111.733 225.08 112.607 236.74C113.587 236.68 114.373 236.633 115.287 236.573C115.233 230.987 113.353 226.333 109.98 222.24C106.4 217.907 101.84 214.86 96.8667 212.387C89.0334 208.493 80.7001 206.1 72.1401 204.533C66.5801 203.513 60.9667 202.793 55.4267 201.947C55.4267 199.78 55.4267 197.767 55.4267 195.513C60.0734 195.513 64.5401 195.627 68.9934 195.487C77.5667 195.213 84.1334 191.333 88.7467 184.12C89.18 183.44 89.5934 182.74 90.16 181.807C95.74 189.113 102.867 192.813 111.86 191.9C120.847 190.987 127.06 185.867 131.107 177.78C139.773 196 164.293 197.28 174.267 178.28C178.273 186.173 184.493 190.933 193.207 191.907C201.873 192.88 209.013 189.58 214.767 182.853C215.033 183.127 215.3 183.38 215.567 183.633Z" fill="#54494B"/>
<path d="M129.893 95.1001C129.893 107.52 129.9 119.94 129.893 132.36C129.887 144.78 130 157.2 129.82 169.62C129.687 178.527 123.513 186.053 114.873 188.44C106.42 190.773 97.3667 187.393 92.6133 180.007C92.02 179.087 91.52 177.707 91.74 176.713C94.68 163.66 84.4667 147.98 66.8467 148.387C61.1533 148.52 55.4533 148.307 49.76 148.453C47.2133 148.513 46.06 147.42 45.4267 145.1C40.4 126.673 35.3467 108.253 30.2533 89.8467C25.08 71.1734 19.8 52.5334 14.6667 33.8468C11.7067 23.0868 18.1267 12.3267 29.2267 9.12007C39.06 6.28007 50.44 12.7334 53.4133 22.9867C56.0867 32.2001 58.6 41.4667 61.1533 50.7134C64.6533 63.3734 68.1133 76.0467 71.62 88.7067C75.18 101.547 78.7933 114.373 82.32 127.22C83.6 131.88 84.6267 136.613 85.9467 141.267C86.16 142.02 87.2867 142.52 87.9933 143.14C88.42 142.387 88.94 141.66 89.24 140.86C89.4267 140.367 89.2733 139.753 89.2733 139.193C89.2733 100.347 89.2733 61.5001 89.28 22.6534C89.28 21.5334 89.2667 20.4067 89.3533 19.2934C90.4067 5.19341 105.467 -3.7999 118.053 2.5201C125.573 6.3001 129.84 12.7668 129.86 21.4268C129.933 45.9867 129.887 70.5467 129.887 95.1067H129.893V95.1001Z" fill="#54494B"/>
<path d="M173.047 168.253C172.98 180.02 164.427 188.907 153.04 189.167C141.94 189.42 132.573 180.767 132.427 169.187C132.14 146.967 132.113 124.74 132.433 102.52C132.627 89.1801 145.567 79.9201 158.187 83.4467C166.993 85.9067 172.993 93.9268 173.053 103.54C173.12 114.373 173.073 125.2 173.067 136.033C173.067 146.78 173.113 157.52 173.047 168.253Z" fill="#54494B"/>
<path d="M215.553 169.3C215.553 170.6 215.573 171.94 215.3 173.2C213.36 182.34 203.413 189.853 194.3 189.133C183.787 188.3 175.413 180.127 175.32 169.84C175.12 147.44 175.08 125.033 175.307 102.633C175.42 91.2734 184.973 82.3267 195.967 82.6334C206.353 82.9267 216.027 91.78 215.647 103.213C215.287 114.12 215.567 125.053 215.567 135.973C215.567 147.087 215.573 158.193 215.553 169.3Z" fill="#54494B"/>
<path d="M68.56 151.8C72.9 151.627 76.7 153.093 80.0734 155.14C87.7134 159.78 90.9067 169.253 88.3934 177.913C85.8867 186.547 78.1134 192.527 68.7467 192.607C52.98 192.74 37.2067 192.687 21.4334 192.64C12.7067 192.613 6.5467 188.273 2.72003 180.673C-3.7933 167.747 5.96003 151.973 20.42 151.9C28.6334 151.86 36.84 151.893 45.0534 151.887C52.8867 151.887 60.7334 152.113 68.56 151.8Z" fill="#54494B"/>
<path d="M61.68 308.88C63.92 310.467 65.8334 312.294 68.5667 313.034C72.5734 314.12 76.7067 313.927 80.8134 314.16C80.8734 314.193 80.9267 314.247 80.9934 314.274C83.24 315.294 85.5867 316.127 88.0134 316.607C88.9534 316.794 89.9 316.64 90.66 316.187C92.5334 316.7 94.48 317.047 96.5867 317.1C98.5267 317.147 100.46 317.227 102.393 317.207C102.887 317.3 103.38 317.387 103.873 317.487C106.58 318.047 109.347 318.52 112.093 317.973C113.833 317.627 115.5 317.04 117.173 316.48C117.787 317.16 118.64 317.607 119.567 317.5C120.567 317.387 121.56 317.287 122.567 317.28C122.833 317.28 123.093 317.24 123.347 317.174C123.38 317.167 123.413 317.167 123.447 317.16C125.567 316.787 127.513 316.647 129.5 315.874C130.193 316.387 131.127 316.607 132.227 316.274C134.36 315.627 136.54 314.787 138.787 314.727C138.987 314.72 139.167 314.7 139.347 314.667C139.38 314.667 139.407 314.674 139.44 314.674C142.513 314.607 145.747 313.547 147.967 311.354C148.267 311.44 148.567 311.507 148.893 311.507C150.147 311.507 151.347 311.333 152.467 310.72C152.58 310.66 152.673 310.58 152.773 310.5V342H58.1067V306.16C59.1467 307.193 60.4134 307.98 61.68 308.88Z" fill="#54494B"/>
<path d="M152.333 307.333H151V312H152.333V307.333Z" fill="#54494B"/>
<path d="M153 306.667H152.333V310.667H153V306.667Z" fill="#54494B"/>
<path d="M151 307.333H146.333V311.333H151V307.333Z" fill="#54494B"/>
<path d="M146.607 311.42C143.687 310.92 139.02 311.92 136.187 313.253C137.94 313.673 140.607 312.587 142.44 312.42C144.273 312.253 146.107 312.253 147.86 312.507C145.36 312.42 142.693 314.26 140.36 315.007C138.44 315.673 136.193 316.26 134.107 316.173C137.527 314.753 142.36 314.753 145.44 312.587C142.44 312 139.44 313.34 136.607 314.007C134.52 314.507 132.44 314.76 130.273 314.84C132.273 314.173 134.527 314.587 136.527 314.007C131.86 313.173 127.86 316.593 123.36 317.007C126.027 316.84 128.78 316.84 131.527 316.587C129.193 315.333 125.94 316.84 123.527 316.087C127.193 315.087 131.527 315.253 135.28 315.587C132.78 315.333 130.527 315.92 128.027 316.42C123.607 317.173 119.027 317.92 114.527 317.84C116.947 317.507 119.447 318.927 121.947 318.34C118.78 317.92 115.36 318.76 112.28 317.92C113.867 317.253 116.113 317.253 117.78 317C119.947 316.667 122.2 316.247 124.367 316C121.533 315.833 118.533 315.747 115.7 316.087C114.033 316.253 112.367 316.84 110.7 316.84C113.533 316.753 116.453 316.673 119.2 316.84C117.033 317.427 114.613 317.593 112.367 317.84C110.7 318.093 108.033 318.84 106.367 318.173C107.7 318.007 109.12 318.34 110.453 318.34C109.2 318.34 107.533 318.34 106.453 317.753C106.707 317.667 106.953 317.5 107.207 317.42" fill="#54494B"/>
<path d="M106.053 317.007C104.44 316.953 102.94 317.453 101.387 317.507C102.607 317.673 103.833 318.06 105.053 318.007C102.94 317.787 100.887 317.84 98.8333 317.507C97.28 317.287 95.1667 317.12 93.78 316.287C96.06 316.007 98.5 316.233 100.78 316.233C97.1133 316.233 93.1133 316.68 89.4467 316.18C91.9467 316.233 94.3933 316.567 96.8333 316.733C93.6133 316.847 90.5533 315.953 87.5 315.287C85.0533 314.787 82.5 314.507 80.1133 313.84C82.8333 313.56 85.8333 313.673 88.1667 315.173C86.6667 316.227 83.78 315.953 82 315.953C84.4467 315.953 86.6667 316.34 89.0533 316.673C86.8333 315.787 84 315.84 81.6667 315.34C79.1133 314.84 76.3867 314.287 74.1133 313.06C76.1667 312.673 79.28 312.673 81.28 313.393C79.78 313.673 78 313.447 76.5 313.447C75.6667 313.447 74.5 313.613 73.72 313.167C75.1067 312.887 77.1067 312.947 78.5 313.22C76.78 313.5 74.8867 312.887 73.22 312.553C71.5533 312.273 69.72 312.107 68.1067 311.553C70.4933 311.22 73.1067 311.94 75.4933 312.107C72.7733 312.22 69.9933 312.16 67.2133 312.327C69.2667 312.327 72.2133 312.66 74.0467 313.493C73.1 313.773 71.66 313.327 70.7133 313.16C69.3267 312.993 67.8267 312.88 66.4333 312.493C68.38 312.213 70.32 312.607 72.2133 311.94C70.7667 311.053 68.38 311.387 66.7133 310.94C68.3267 310.327 70.16 309.827 71.8267 309.387C69.8267 309.387 67.4933 310.667 65.7133 311.387C66.8267 311.44 68.2667 311.107 69.3267 310.667C67.88 310.053 65.8267 310.553 64.3267 310.833C65.88 310.387 67.3267 309.387 68.7733 308.613C67.16 308.833 65.72 309.947 64.2733 310.5C65.0533 310 65.66 308.887 66.22 308.167C64.8333 308.167 63.6067 308.78 62.3333 309.28C63.3333 308.833 64.0533 307.833 64.28 306.78C62.7267 307.06 60.6133 308.28 60.5 310C61.72 310.387 63.6133 310.833 64.8333 310.613C64.5533 309.447 63.22 309.893 62.4467 309.5C61.56 309.113 61.9467 308.167 61.78 307.167C61.4467 307.553 61.1133 308.333 61 308.78C61.6133 308.393 62 307.393 62.1667 306.727" fill="#54494B"/>
<path d="M59 303.333H58.3334V306H59V303.333Z" fill="#54494B"/>
<path d="M60.5133 307.807C60.5667 307.507 60.5333 307.173 60.4733 306.867C60.44 306.7 60.38 306.513 60.4533 306.353C60.5133 306.207 60.7267 306.007 60.8267 305.887C60.8667 306.127 60.5067 306.46 60.3867 306.687C60.3267 306.84 60.2733 307.107 60.0667 307.033C59.7133 306.92 59.92 305.973 59.8067 305.64C59.6933 305.793 59.7533 306.14 59.6733 306.34C59.6333 306.433 59.56 306.593 59.4933 306.66C59.34 306.18 59.48 305.713 59.5067 305.233" fill="#54494B"/>
<path d="M65.9933 311.087C68.3 312.86 70.8067 314.52 73.3267 315.973C73.8267 316.267 74.38 316.06 74.6933 315.613C76.4933 313.073 75.16 311.627 72.3267 311.72C71.2333 311.753 70.92 313.447 72.06 313.687C79.46 315.213 87.2133 315.567 94.3933 317.907C94.48 317.253 94.5733 316.6 94.66 315.94C91.5067 316.16 88.3667 316 85.2133 315.827C85.2133 316.493 85.2133 317.16 85.2133 317.827C89.84 317.78 94.4267 318.22 99.0267 318.613C103.94 319.04 108.84 319.22 113.72 320.013C113.807 319.36 113.9 318.707 113.987 318.047C110.273 318.387 106.58 318.213 102.86 317.967C99.7067 317.753 96.4467 317.84 93.4733 316.64C93.5533 317.247 93.6333 317.86 93.7133 318.467C95.7133 317.567 98.5867 317.607 100.693 317.38C103.24 317.1 105.813 317 108.373 316.933C113.527 316.787 118.667 316.987 123.82 317.053C123.82 316.387 123.82 315.72 123.82 315.053C116.207 315.053 108.6 315.1 100.987 315C100.987 315.667 100.987 316.333 100.987 317C109.553 317 118.273 317.533 126.82 317C128.133 316.92 128.08 315.153 126.82 315C122.807 314.52 118.58 314.887 114.54 314.887C110.04 314.887 105.54 314.887 101.04 314.887C101.04 315.553 101.04 316.22 101.04 316.887C107.807 316.867 114.573 316.567 121.32 317.333C121.32 316.667 121.32 316 121.32 315.333C114.5 315.853 107.527 315.06 100.767 315.947C99.5267 316.107 99.44 317.9 100.767 317.947C103.52 318.04 106.267 317.927 109.02 317.96C111.813 317.993 115.12 318.633 117.867 317.967C123.453 316.607 129.153 315.58 134.813 314.52C134.633 313.88 134.46 313.233 134.28 312.593C130.333 313.833 126.26 314.613 122.393 316.093C121.32 316.507 121.52 317.94 122.66 318.06C125.753 318.38 128.813 317.453 131.88 317.167C135.38 316.84 138.84 316.68 142.26 315.807C143.42 315.507 143.067 313.947 141.993 313.84C137.26 313.393 132.013 313.847 127.34 314.707C127.52 315.347 127.693 315.993 127.873 316.633C131.907 315.033 136.22 314.993 140.427 314.133C141.547 313.907 141.273 312.147 140.16 312.167C138.947 312.187 137.913 312.387 136.727 312.7C136.907 313.34 137.08 313.987 137.26 314.627C139.12 314.113 140.893 313.4 142.707 312.74C142.287 312.42 141.86 312.1 141.44 311.773C141.207 312.187 140.967 312.6 140.733 313.013C139.98 313.767 140.767 314.853 141.707 314.687C143.593 314.34 145.26 313.413 147.153 313.073C146.893 312.467 146.64 311.853 146.38 311.247C145.2 312.047 143.82 312.8 142.32 312.593C142.52 313.08 142.72 313.573 142.92 314.06C143.553 312.687 145.38 312.173 146.613 311.533C147.48 311.087 147.1 309.6 146.107 309.673C144.473 309.787 142.793 309.907 141.853 311.393C141.507 311.947 141.847 312.693 142.453 312.86C144.607 313.467 147.833 313.187 149.893 312.313C150.913 311.88 150.253 310.533 149.387 310.453C142.933 309.827 136.22 310.4 129.733 310.42C122.953 310.44 116.173 310.453 109.393 310.453C102.453 310.453 95.52 310.453 88.58 310.453C85.8133 310.453 82.4067 309.9 79.7133 310.613C77.16 311.293 72.5467 313.5 70.1533 311.58C70.0067 312.14 69.86 312.693 69.7133 313.253C73.3133 312.513 77.5533 313.12 81.2267 313.12C82.5267 313.12 82.5067 311.187 81.2267 311.12C78.8067 310.993 76.42 310.693 74.0267 310.34C72.6733 310.147 70.1467 310.147 68.9533 309.367C69.02 309.893 69.0867 310.413 69.1533 310.94C70.1133 309.893 70.7067 309.08 70.8933 307.68C70.9733 307.08 70.1867 306.48 69.6267 306.713C67.46 307.627 66.96 309.953 66.78 312.12C67.3467 311.887 67.92 311.647 68.4867 311.413C67.46 310.173 66.5267 308.96 66.1867 307.353C65.5467 307.533 64.9 307.707 64.26 307.887C65.04 309.913 65.4 312.04 66.04 314.107C66.3333 315.047 67.6867 315.073 67.9667 314.107C68.62 311.853 68.7267 309.507 69.4667 307.273C69.8467 306.133 68.2533 305.627 67.64 306.5C66.58 308.007 65.5 309.413 64.7533 311.113C65.36 311.193 65.9733 311.273 66.58 311.353C66.38 310 66.3 308.647 66.1733 307.287C66.0867 306.38 64.8067 305.82 64.3067 306.78C63.8933 307.58 63.6733 308.3 63.4867 309.187C64.14 309.273 64.7933 309.367 65.4533 309.453C65.2267 307.713 64.7733 306.153 63.9267 304.613C63.46 303.76 62.0067 304.12 62.06 305.12C62.1733 307.173 61.86 309.16 62.4267 311.167C62.7333 312.253 64.3933 312.04 64.3933 310.9C64.3867 309.34 63.88 307.98 63.36 306.52C63 305.513 61.32 305.593 61.3933 306.787C61.4867 308.207 61.76 309.593 61.9867 311C62.6267 310.82 63.2733 310.647 63.9133 310.467C63.3 308.413 61.6067 306.807 61.08 304.8C60.4733 305.053 59.86 305.313 59.2533 305.573C59.7533 306.153 59.9267 306.82 59.7867 307.567C60.44 307.48 61.0933 307.387 61.7533 307.3C61.6 306.88 61.4467 306.453 61.3067 306.02C60.9 304.807 58.9667 305.327 59.38 306.553C59.52 306.98 59.6667 307.407 59.8267 307.833C60.2133 308.907 61.7067 308.713 61.7933 307.567C61.8733 306.447 61.6533 305.473 60.9933 304.56C60.3533 303.673 58.86 304.173 59.1667 305.333C59.7133 307.4 61.3667 308.9 62 311C62.38 312.26 64.1267 311.72 63.9267 310.467C63.7333 309.24 63.4933 308.033 63.4067 306.787C62.7533 306.873 62.1 306.967 61.44 307.053C61.9 308.333 62.4 309.513 62.4067 310.9C63.06 310.813 63.7133 310.72 64.3733 310.633C63.8533 308.807 64.1733 306.987 64.0733 305.12C63.4533 305.287 62.8333 305.453 62.2067 305.627C62.9067 306.9 63.2733 308.02 63.46 309.453C63.5933 310.48 65.16 310.92 65.4267 309.72C65.5333 309.047 65.74 308.407 66.0467 307.793C65.4267 307.627 64.8067 307.46 64.18 307.287C64.3267 308.827 64.4333 310.353 64.66 311.887C64.7867 312.72 66.1533 312.887 66.4867 312.127C67.2333 310.433 68.3133 309.027 69.3733 307.513C68.7667 307.26 68.1533 307 67.5467 306.74C66.8067 308.973 66.7 311.313 66.0467 313.573C66.6867 313.573 67.3333 313.573 67.9733 313.573C67.3333 311.507 66.9733 309.373 66.1933 307.353C65.7333 306.16 64 306.607 64.2667 307.887C64.6733 309.827 65.84 311.333 67.08 312.827C67.6933 313.567 68.72 312.893 68.7867 312.12C68.8733 311.087 69.0267 309.12 70.1667 308.64C69.7467 308.32 69.32 308 68.9 307.673C68.68 308.4 68.3 309.02 67.7467 309.52C67.3 310.013 67.3933 310.727 67.9467 311.093C69.5267 312.133 71.68 312.007 73.4933 312.273C76.0667 312.647 78.6267 312.987 81.2267 313.12C81.2267 312.453 81.2267 311.787 81.2267 311.12C77.3333 311.12 73.0067 310.533 69.18 311.32C68.4867 311.46 68.16 312.527 68.74 312.993C72.7067 316.173 78.9933 312.4 83.4333 312.44C90.7867 312.513 98.1467 312.453 105.5 312.453C112.74 312.453 119.987 312.453 127.227 312.427C134.533 312.4 142.12 311.747 149.387 312.453C149.22 311.833 149.053 311.213 148.88 310.593C147.427 311.213 144.333 311.313 142.987 310.94C143.187 311.427 143.387 311.92 143.587 312.407C144.06 311.653 145.367 311.733 146.113 311.68C145.947 311.06 145.78 310.44 145.607 309.82C143.98 310.667 142.007 311.293 141.193 313.067C140.953 313.58 141.093 314.44 141.793 314.533C143.853 314.827 145.687 314.147 147.4 312.987C148.367 312.333 147.747 310.96 146.627 311.16C144.74 311.493 143.067 312.427 141.18 312.773C141.507 313.333 141.827 313.887 142.153 314.447C143.02 313.58 143.407 313.02 143.447 311.793C143.467 311.18 142.787 310.607 142.18 310.827C140.367 311.487 138.593 312.207 136.733 312.713C135.493 313.053 136.013 314.973 137.267 314.64C138.207 314.333 139.173 314.18 140.167 314.173C140.08 313.52 139.987 312.867 139.9 312.207C135.687 313.067 131.387 313.1 127.347 314.707C126.153 315.18 126.593 316.873 127.88 316.633C132.367 315.807 137.46 315.407 142.007 315.833C141.92 315.18 141.827 314.527 141.74 313.867C138.507 314.693 135.207 314.887 131.893 315.16C128.827 315.413 125.753 316.373 122.673 316.053C122.76 316.707 122.853 317.36 122.94 318.02C126.813 316.54 130.88 315.76 134.827 314.52C136.073 314.133 135.553 312.353 134.293 312.593C129 313.587 123.313 314.247 118.173 315.833C115.427 316.687 111.867 316.033 109.033 315.96C106.28 315.88 103.533 316.04 100.78 315.947C100.78 316.613 100.78 317.28 100.78 317.947C107.54 317.06 114.52 317.86 121.333 317.333C122.64 317.233 122.6 315.48 121.333 315.333C114.593 314.567 107.827 314.867 101.053 314.887C99.7667 314.893 99.7667 316.887 101.053 316.887C105.553 316.887 110.053 316.887 114.553 316.887C118.593 316.887 122.82 316.52 126.833 317C126.833 316.333 126.833 315.667 126.833 315C118.287 315.533 109.567 315 101 315C99.7067 315 99.7133 316.98 101 317C108.613 317.1 116.22 317.06 123.833 317.053C125.127 317.053 125.12 315.073 123.833 315.053C118.253 314.98 112.687 314.813 107.107 314.967C102.72 315.087 96.7867 314.907 92.72 316.74C91.8333 317.14 92.26 318.287 92.96 318.567C95.7333 319.687 98.7267 319.713 101.673 319.88C105.8 320.12 109.873 320.427 114.007 320.047C115.047 319.953 115.467 318.273 114.273 318.08C109.64 317.327 104.967 317 100.287 316.713C95.2533 316.407 90.28 315.773 85.2333 315.827C83.9333 315.84 83.9533 317.76 85.2333 317.827C88.3867 318 91.52 318.16 94.68 317.94C95.8067 317.86 96.04 316.333 94.9467 315.973C87.7533 313.627 80.02 313.28 72.6133 311.753C72.5267 312.407 72.4333 313.06 72.3467 313.72C73.0467 313.7 73.4533 313.94 72.98 314.607C73.4333 314.487 73.8933 314.367 74.3467 314.247C71.8267 312.793 69.32 311.127 67.0133 309.36C65.98 308.573 64.9867 310.313 65.9933 311.087Z" fill="#54494B"/>
<path d="M60.3334 304.667H58.3334V308H60.3334V304.667Z" fill="#54494B"/>
</g>
</svg>
