<svg width="376" height="402" viewBox="0 0 376 402" fill="none" xmlns="http://www.w3.org/2000/svg">
<g clip-path="url(#clip0_191_42)">
<path opacity="0.8" d="M118.672 422.811C139.563 420.195 159.336 414.021 177.558 403.224C188.157 396.942 198.895 390.881 209.565 384.721C210.743 384.041 211.921 383.361 213.098 382.681C213.227 382.145 213.365 381.603 213.494 381.067C200.441 378.638 190.808 371.833 185.564 359.85C180.293 347.801 181.811 336.151 189.06 325.026C156.898 326.32 140.171 293.508 157.34 268.585C143.8 269.393 132.497 265.156 124.562 254.172C116.631 243.175 116.092 231.142 121.399 218.413C119.761 218.377 118.542 218.365 117.334 218.312C104.503 217.729 94.5383 212.109 87.7532 201.177C84.2263 195.488 81.0286 189.61 77.5436 183.573C74.6164 185.263 72.001 186.773 69.1864 188.398C72.2415 196.23 75.5162 204.062 78.3612 212.05C82.7461 224.344 85.8871 236.965 86.7045 250.06C87.2215 258.376 86.6837 266.585 83.7396 274.485C80.9608 281.932 76.326 287.864 69.1 292.129C68.3507 290.991 67.6915 290.009 66.8735 288.772C81.3653 278.893 83.3559 264.361 82.1059 248.836C80.4529 228.313 73.4074 209.309 65.0341 190.726C64.4754 189.479 63.9079 188.236 63.1452 186.575C67.1549 184.26 70.9827 182.05 75.2262 179.6C74.2412 177.894 73.4912 176.595 72.7462 175.304C66.5812 164.626 60.1737 154.088 54.3565 143.232C51.157 137.251 48.0727 130.948 46.6098 124.414C45.6746 120.255 47.7306 115.396 48.5664 110.883C48.885 109.175 49.5611 107.526 50.2739 105.221C48.7083 105.709 47.8764 105.808 47.2059 106.207C35.3254 113.089 23.2212 119.604 11.6617 126.983C-13.9162 143.32 -33.2171 165.41 -46.4517 192.727C-46.738 193.331 -47.033 193.941 -47.3193 194.545L-28.3754 412.659L30.9996 515.5L84.8707 423.504" fill="#413942"/>
<path opacity="0.8" d="M263.85 204.966C295.754 186.546 327.694 168.186 359.543 149.671C370.773 143.142 375.978 132.758 375.249 120.154C374.024 99.072 351.041 86.2448 331.935 95.4515C330.428 96.1825 328.97 97.0362 327.515 97.8762C277.046 127.003 226.583 156.138 176.12 185.273C175.392 185.693 174.697 186.348 173.93 186.479C172.666 186.69 171.332 186.559 170.033 186.57C170.308 185.187 170.113 183.348 170.932 182.506C175.986 177.301 181.365 172.418 186.459 167.26C200.502 153.044 214.449 138.721 228.464 124.475C242.285 110.434 256.148 96.4252 269.969 82.3836C280.061 72.1231 290.218 61.9168 300.182 51.5341C311.271 39.9816 311.119 20.3586 300.055 9.71471C287.564 -2.29961 268.772 -2.56946 257.014 9.3457C236.59 30.0291 216.34 50.8766 195.958 71.5933C175.872 92.0234 155.734 112.403 135.562 132.744C133.023 135.307 132.459 137.63 134.456 140.888C138.908 148.179 142.914 155.739 147.357 163.034C161.097 185.632 148.383 210.651 129.23 216.617C127.775 217.076 126.357 218.761 125.607 220.221C119.576 231.936 121.975 246.232 131.347 255.463C140.927 264.897 155.334 267.271 167.004 260.764C183.274 251.683 199.323 242.221 215.462 232.914C231.601 223.608 247.73 214.284 263.864 204.969C263.855 204.974 263.85 204.966 263.85 204.966Z" fill="#413942"/>
<path opacity="0.8" d="M243.052 291.764C257.125 283.639 271.238 275.583 285.252 267.376C297.695 260.088 303.614 246.279 300.204 232.994C295.321 213.955 273.586 204.091 256.112 213.844C227.008 230.094 198.154 246.798 169.505 263.836C154.577 272.72 150.356 291.369 159.01 305.598C167.888 320.195 185.861 324.645 201.182 315.903C215.189 307.943 229.101 299.819 243.052 291.764Z" fill="#413942"/>
<path opacity="0.8" d="M275.01 346.936C289.196 338.746 303.184 330.174 317.627 322.47C332.764 314.389 337.01 295.183 329.601 281.47C321.754 266.959 302.967 261.259 288.125 269.632C258.857 286.138 229.78 302.995 200.831 320.054C187.547 327.886 183.201 344.898 190.003 359.18C195.903 371.559 213.128 378.853 226.451 374.51C228.288 373.911 230.014 372.88 231.708 371.914C246.159 363.605 260.577 355.258 275.01 346.936Z" fill="#413942"/>
<path opacity="0.8" d="M126.448 137.359C120.288 126.69 114.177 116.004 107.956 105.37C97.0209 86.6492 69.2106 85.8006 57.3034 103.957C50.3057 114.636 49.2829 125.885 55.7932 137.241C67.5576 157.758 79.3184 178.288 91.3216 198.678C98.4505 210.786 112.057 216.393 125.144 213.18C138.278 209.95 148.19 198.696 148.487 185.292C148.616 179.375 147.676 173.347 144.191 167.83C137.927 157.902 132.337 147.539 126.448 137.359Z" fill="#413942"/>
</g>
<defs>
<clipPath id="clip0_191_42">
<rect width="376" height="402" fill="white"/>
</clipPath>
</defs>
</svg>
