<svg width="716" height="259" viewBox="0 0 716 259" fill="none" xmlns="http://www.w3.org/2000/svg">
<g opacity="0.8">
<path d="M219.488 257.747C227.578 250.827 231.548 242.227 230.378 231.807C229.208 221.317 223.478 213.837 213.978 209.017C236.838 197.017 235.298 167.517 213.378 157.087C223.108 152.217 229.258 144.747 230.368 133.937C231.468 123.117 227.018 114.537 218.228 107.827C219.348 107.137 220.188 106.647 221.008 106.127C229.688 100.577 234.358 92.6777 234.688 82.3677C234.858 77.0077 234.718 71.6277 234.718 66.0377C237.428 66.0377 239.848 66.0377 242.458 66.0377C243.478 72.7077 244.348 79.4577 245.568 86.1477C247.458 96.4477 250.338 106.477 255.018 115.897C257.988 121.877 261.658 127.367 266.878 131.677C271.798 135.737 277.398 137.997 284.118 138.067C284.188 136.977 284.248 136.027 284.318 134.847C270.288 133.797 263.078 124.497 257.718 113.207C250.638 98.2877 247.908 82.2576 246.268 65.9876C246.158 64.8976 246.058 63.8077 245.918 62.3377C242.208 62.3377 238.658 62.3377 234.728 62.3377C234.728 60.7577 234.728 59.5577 234.728 58.3577C234.728 48.4677 234.948 38.5777 234.638 28.6977C234.468 23.2577 234.078 17.6477 232.478 12.5177C231.458 9.25765 228.088 6.70763 225.688 3.89763C224.778 2.83763 223.648 1.96763 222.228 0.647631C223.508 0.357631 224.128 0.0976413 224.748 0.0976413C235.758 0.107641 246.788 -0.222365 257.778 0.277631C282.098 1.36763 304.358 8.96762 324.518 22.6377C345.118 36.6077 360.368 55.0676 370.298 77.8577C377.048 93.3477 380.718 109.407 380.548 126.517C380.408 141.107 379.608 155.417 374.898 169.327C370.628 181.937 364.918 193.857 357.108 204.617C342.818 224.287 324.588 239.227 302.108 248.697C286.548 255.257 270.338 258.897 253.348 258.707C243.468 258.597 233.578 258.687 223.688 258.687C222.598 258.687 221.508 258.687 220.418 258.687C220.098 258.387 219.788 258.067 219.488 257.747Z" fill="#FD7F98"/>
<path d="M113.878 155.597C84.3278 155.597 54.7778 155.647 25.2278 155.567C14.8078 155.537 7.02776 150.407 2.47776 141.357C-5.13224 126.217 5.68769 108.097 22.6577 106.827C23.9977 106.727 25.3478 106.747 26.6978 106.747C73.4378 106.737 120.178 106.737 166.918 106.737C167.588 106.737 168.338 106.917 168.928 106.697C169.888 106.337 170.768 105.707 171.678 105.197C170.938 104.347 170.328 102.987 169.418 102.737C163.818 101.157 158.128 99.9172 152.518 98.3775C137.058 94.1275 121.628 89.7776 106.178 85.4976C90.9477 81.2776 75.6978 77.1175 60.4678 72.9075C49.3378 69.8275 38.1978 66.8076 27.1078 63.5976C14.7778 60.0176 7.0077 46.3276 10.4177 34.4976C14.2777 21.1376 27.2177 13.4176 40.1677 16.9776C62.6477 23.1576 85.0777 29.5075 107.548 35.7375C129.698 41.8675 151.858 47.9576 174.028 53.9976C176.818 54.7576 178.138 56.1476 178.068 59.2076C177.898 66.0576 178.148 72.9175 177.988 79.7675C177.508 100.977 196.368 113.257 212.068 109.717C213.258 109.447 214.918 110.057 216.028 110.767C224.908 116.487 228.978 127.377 226.168 137.557C223.298 147.947 214.238 155.387 203.528 155.537C188.588 155.757 173.638 155.617 158.698 155.627C143.758 155.637 128.808 155.627 113.868 155.627V155.597H113.878Z" fill="#FD7F98"/>
<path d="M163.138 207.557C150.108 207.557 137.068 207.617 124.038 207.537C112.478 207.467 102.818 200.247 99.8578 189.657C95.6178 174.477 106.758 158.907 122.808 158.667C149.538 158.277 176.288 158.317 203.018 158.657C216.958 158.837 227.368 170.107 227.058 183.467C226.748 197.167 216.048 207.467 201.888 207.537C188.978 207.617 176.058 207.557 163.138 207.557Z" fill="#FD7F98"/>
<path d="M163.058 258.697C149.918 258.697 136.768 258.357 123.638 258.787C109.878 259.247 99.2278 247.607 98.8778 235.107C98.5078 221.877 109.278 210.387 122.948 210.247C149.898 209.977 176.858 210.017 203.808 210.267C216.188 210.377 226.018 220.457 227.018 233.107C227.888 244.077 218.848 256.047 207.848 258.377C206.328 258.697 204.718 258.677 203.158 258.677C189.788 258.707 176.428 258.697 163.058 258.697Z" fill="#FD7F98"/>
<path d="M182.208 53.5275C182.208 43.6475 182.168 33.7676 182.218 23.8876C182.308 6.49759 201.288 -5.24239 216.838 2.59761C225.988 7.20761 231.208 14.6176 231.238 25.1176C231.298 44.0876 231.358 63.0676 231.198 82.0376C231.098 93.3076 223.898 102.667 213.518 105.677C203.098 108.707 191.698 104.857 186.118 95.6675C183.658 91.6075 181.888 87.0376 182.098 81.8176C182.478 72.4076 182.198 62.9576 182.208 53.5275Z" fill="#FD7F98"/>
<path d="M351.848 73.5376C356.628 76.2276 362.098 78.5376 364.328 81.8276C367.588 86.6476 367.018 91.6276 367.708 96.5676C367.818 96.6476 367.958 96.7076 368.048 96.7876C371.108 99.4873 373.628 102.317 375.068 105.237C375.628 106.367 375.168 107.507 373.808 108.427C375.348 110.677 376.398 113.027 376.548 115.557C376.688 117.887 376.928 120.217 376.868 122.547C377.148 123.137 377.418 123.737 377.718 124.327C379.398 127.587 380.818 130.907 379.178 134.217C378.138 136.307 376.378 138.307 374.688 140.327C376.738 141.057 378.068 142.087 377.758 143.207C377.428 144.407 377.118 145.607 377.088 146.817C377.088 147.137 376.968 147.457 376.768 147.757C376.748 147.797 376.748 147.837 376.728 147.887C375.598 150.437 375.178 152.777 372.858 155.167C374.408 156.007 375.058 157.127 374.058 158.447C372.118 161.007 369.578 163.637 369.408 166.337C369.388 166.577 369.318 166.797 369.228 167.017C369.228 167.057 369.248 167.097 369.248 167.127C369.038 170.827 365.858 174.707 359.278 177.387C359.548 177.747 359.728 178.117 359.728 178.497C359.728 180.007 359.218 181.457 357.358 182.797C357.178 182.927 356.928 183.047 356.708 183.167H715.458V69.2476H343.658C346.778 70.4976 349.148 72.0176 351.848 73.5376Z" fill="#FD7F98"/>
</g>
</svg>
