<svg width="323" height="513" viewBox="0 0 323 513" fill="none" xmlns="http://www.w3.org/2000/svg">
<g opacity="0.8">
<path d="M289.31 287.88C276.23 286.42 266.9 279.28 260.9 267.44C245.94 295.93 209.16 294.02 196.16 266.69C190.09 278.82 180.78 286.5 167.29 287.87C153.8 289.24 143.11 283.69 134.74 272.73C133.89 274.13 133.27 275.18 132.62 276.2C125.7 287.02 115.85 292.84 102.99 293.25C96.2999 293.46 89.6099 293.29 82.6399 293.29C82.6399 296.67 82.6399 299.69 82.6399 302.94C90.9499 304.21 99.3699 305.29 107.71 306.82C120.55 309.17 133.05 312.76 144.8 318.6C152.26 322.3 159.1 326.88 164.47 333.38C169.53 339.51 172.35 346.49 172.43 354.88C171.07 354.96 169.89 355.04 168.41 355.13C167.1 337.64 155.52 328.65 141.44 321.97C122.84 313.14 102.86 309.74 82.5699 307.7C81.2099 307.56 79.8499 307.43 78.0299 307.26C78.0299 302.63 78.0299 298.21 78.0299 293.31C76.0499 293.31 74.5599 293.31 73.0699 293.31C60.7399 293.31 48.4099 293.59 36.0999 293.2C29.3199 292.98 22.3199 292.5 15.9299 290.5C11.8599 289.23 8.67994 285.02 5.18994 282.04C3.86994 280.91 2.78994 279.5 1.13994 277.73C0.779938 279.33 0.449938 280.1 0.459938 280.88C0.479938 294.61 0.0599394 308.35 0.679939 322.05C2.03994 352.37 11.5199 380.13 28.5599 405.25C45.9799 430.93 68.9999 449.94 97.3999 462.32C116.71 470.74 136.73 475.31 158.07 475.1C176.26 474.92 194.1 473.93 211.44 468.06C227.16 462.74 242.02 455.62 255.43 445.88C279.95 428.06 298.58 405.34 310.39 377.31C318.57 357.91 323.11 337.7 322.87 316.52C322.73 304.2 322.85 291.87 322.85 279.55C322.85 278.19 322.85 276.83 322.85 275.47C322.45 275.09 322.05 274.7 321.66 274.32C313.03 284.39 302.31 289.33 289.31 287.88ZM194.28 32.13C194.24 19.14 187.84 9.44002 176.56 3.77002C157.69 -5.70998 135.09 7.77999 133.51 28.93C133.39 30.6 133.4 32.29 133.4 33.97C133.39 92.24 133.39 150.51 133.39 208.78C133.39 209.62 133.61 210.54 133.34 211.28C132.89 212.49 132.11 213.57 131.47 214.7C130.41 213.77 128.72 213.02 128.4 211.89C126.42 204.91 124.88 197.81 122.96 190.82C117.67 171.55 112.24 152.31 106.91 133.05C101.65 114.06 96.4599 95.05 91.2099 76.06C87.3699 62.19 83.6099 48.29 79.5999 34.47C75.1399 19.09 58.0699 9.40998 43.3199 13.67C26.6699 18.48 17.0399 34.62 21.4799 50.76C29.1899 78.79 37.1099 106.75 44.8599 134.76C52.5099 162.37 60.0899 190 67.6199 217.64C68.5699 221.12 70.2999 222.76 74.1199 222.67C82.6599 222.46 91.2099 222.77 99.7499 222.57C126.19 221.97 141.5 245.48 137.09 265.06C136.76 266.55 137.51 268.62 138.4 270C145.53 281.08 159.11 286.15 171.79 282.65C184.75 279.07 194.02 267.78 194.21 254.42C194.49 235.79 194.31 217.16 194.32 198.53C194.33 179.9 194.32 161.27 194.32 142.64H194.3C194.32 105.81 194.39 68.97 194.28 32.13ZM259.07 155.32C258.98 140.9 249.98 128.87 236.77 125.18C217.84 119.89 198.43 133.78 198.14 153.79C197.66 187.12 197.7 220.46 198.13 253.79C198.36 271.16 212.4 284.14 229.05 283.76C246.13 283.37 258.97 270.03 259.06 252.39C259.15 236.28 259.08 220.17 259.08 204.07C259.1 187.81 259.17 171.57 259.07 155.32ZM322.96 154.83C323.53 137.68 309.02 124.4 293.44 123.96C276.95 123.5 262.62 136.92 262.45 153.96C262.11 187.56 262.16 221.17 262.47 254.77C262.61 270.19 275.17 282.46 290.94 283.7C304.62 284.78 319.54 273.51 322.45 259.8C322.85 257.91 322.82 255.9 322.83 253.95C322.86 237.29 322.85 220.63 322.85 203.97C322.85 187.59 322.42 171.19 322.96 154.83ZM30.1199 227.85C8.42994 227.96 -6.20006 251.62 3.56994 271.01C9.31994 282.41 18.5499 288.92 31.6399 288.96C55.2899 289.03 78.9499 289.11 102.61 288.91C116.66 288.79 128.32 279.81 132.08 266.87C135.85 253.88 131.06 239.67 119.6 232.71C114.54 229.64 108.85 227.44 102.33 227.7C90.5899 228.17 78.8199 227.83 67.0599 227.83C54.7499 227.84 42.4399 227.79 30.1199 227.85Z" fill="#54494B"/>
<path d="M322.85 275.45C322.85 276.81 322.85 278.17 322.85 279.53C322.85 291.85 322.73 304.18 322.87 316.5C323.1 337.68 318.57 357.89 310.39 377.29C298.58 405.31 279.95 428.04 255.43 445.86C242.02 455.61 227.16 462.72 211.44 468.04C194.1 473.92 176.26 474.91 158.07 475.08C136.74 475.29 116.71 470.71 97.41 462.3C69 449.92 45.9899 430.9 28.5699 405.23C11.5299 380.11 2.04995 352.35 0.689946 322.03C0.0699459 308.33 0.479945 294.58 0.469945 280.86C0.469945 280.09 0.789945 279.31 1.14994 277.71C2.78994 279.48 3.87994 280.89 5.19994 282.02C8.68994 285.01 11.8699 289.21 15.9399 290.48C22.3299 292.47 29.3399 292.96 36.1099 293.18C48.4199 293.57 60.7599 293.29 73.0799 293.29C74.5699 293.29 76.0599 293.29 78.0399 293.29C78.0399 298.19 78.0399 302.61 78.0399 307.24C79.8599 307.41 81.2199 307.54 82.5799 307.68C102.86 309.72 122.85 313.12 141.44 321.95C155.52 328.63 167.1 337.62 168.41 355.11C169.88 355.02 171.06 354.95 172.43 354.86C172.35 346.48 169.53 339.5 164.47 333.36C159.1 326.86 152.26 322.29 144.8 318.58C133.05 312.74 120.55 309.15 107.71 306.8C99.3699 305.27 90.9499 304.19 82.6399 302.92C82.6399 299.67 82.6399 296.65 82.6399 293.27C89.6099 293.27 96.31 293.44 102.99 293.23C115.85 292.82 125.7 287 132.62 276.18C133.27 275.16 133.89 274.11 134.74 272.71C143.11 283.67 153.8 289.22 167.29 287.85C180.77 286.48 190.09 278.8 196.16 266.67C209.16 294 245.94 295.92 260.9 267.42C266.91 279.26 276.24 286.4 289.31 287.86C302.31 289.32 313.02 284.37 321.65 274.28C322.05 274.69 322.45 275.07 322.85 275.45Z" fill="#54494B"/>
<path d="M194.34 142.65C194.34 161.28 194.35 179.91 194.34 198.54C194.33 217.17 194.5 235.8 194.23 254.43C194.03 267.79 184.77 279.08 171.81 282.66C159.13 286.16 145.55 281.09 138.42 270.01C137.53 268.63 136.78 266.56 137.11 265.07C141.52 245.49 126.2 221.97 99.77 222.58C91.23 222.78 82.68 222.46 74.14 222.68C70.32 222.77 68.59 221.13 67.64 217.65C60.1 190.01 52.52 162.38 44.88 134.77C37.12 106.76 29.2 78.8 21.5 50.77C17.06 34.63 26.69 18.49 43.34 13.68C58.09 9.41999 75.16 19.1 79.62 34.48C83.63 48.3 87.4 62.2 91.23 76.07C96.48 95.06 101.67 114.07 106.93 133.06C112.27 152.32 117.69 171.56 122.98 190.83C124.9 197.82 126.44 204.92 128.42 211.9C128.74 213.03 130.43 213.78 131.49 214.71C132.13 213.58 132.91 212.49 133.36 211.29C133.64 210.55 133.41 209.63 133.41 208.79C133.41 150.52 133.41 92.25 133.42 33.98C133.42 32.3 133.4 30.61 133.53 28.94C135.11 7.79 157.7 -5.69997 176.58 3.78003C187.86 9.45003 194.26 19.15 194.29 32.14C194.4 68.98 194.33 105.82 194.33 142.66H194.34V142.65Z" fill="#54494B"/>
<path d="M259.07 252.38C258.97 270.03 246.14 283.36 229.06 283.75C212.41 284.13 198.36 271.15 198.14 253.78C197.71 220.45 197.67 187.11 198.15 153.78C198.44 133.77 217.85 119.88 236.78 125.17C249.99 128.86 258.99 140.89 259.08 155.31C259.18 171.56 259.11 187.8 259.1 204.05C259.1 220.17 259.17 236.28 259.07 252.38Z" fill="#54494B"/>
<path d="M322.83 253.95C322.83 255.9 322.86 257.91 322.45 259.8C319.54 273.51 304.62 284.78 290.95 283.7C275.18 282.45 262.62 270.19 262.48 254.76C262.18 221.16 262.12 187.55 262.46 153.95C262.63 136.91 276.96 123.49 293.45 123.95C309.03 124.39 323.54 137.67 322.97 154.82C322.43 171.18 322.85 187.58 322.85 203.96C322.85 220.63 322.86 237.29 322.83 253.95Z" fill="#54494B"/>
<path d="M102.34 227.7C108.85 227.44 114.55 229.64 119.61 232.71C131.07 239.67 135.86 253.88 132.09 266.87C128.33 279.82 116.67 288.79 102.62 288.91C78.97 289.11 55.31 289.03 31.65 288.96C18.56 288.92 9.32004 282.41 3.58004 271.01C-6.18996 251.62 8.44004 227.96 30.13 227.85C42.45 227.79 54.76 227.84 67.08 227.83C78.83 227.83 90.6 228.17 102.34 227.7Z" fill="#54494B"/>
<path d="M92.0199 463.32C95.3799 465.7 98.2499 468.44 102.35 469.55C108.36 471.18 114.56 470.89 120.72 471.24C120.81 471.29 120.89 471.37 120.99 471.41C124.36 472.94 127.88 474.19 131.52 474.91C132.93 475.19 134.35 474.96 135.49 474.28C138.3 475.05 141.22 475.57 144.38 475.65C147.29 475.72 150.19 475.84 153.09 475.81C153.83 475.95 154.57 476.08 155.31 476.23C159.37 477.07 163.52 477.78 167.64 476.96C170.25 476.44 172.75 475.56 175.26 474.72C176.18 475.74 177.46 476.41 178.85 476.25C180.35 476.08 181.84 475.93 183.35 475.92C183.75 475.92 184.14 475.86 184.52 475.76C184.57 475.75 184.62 475.75 184.67 475.74C187.85 475.18 190.77 474.97 193.75 473.81C194.79 474.58 196.19 474.91 197.84 474.41C201.04 473.44 204.31 472.18 207.68 472.09C207.98 472.08 208.25 472.05 208.52 472C208.57 472 208.61 472.01 208.66 472.01C213.27 471.91 218.12 470.32 221.45 467.03C221.9 467.16 222.35 467.26 222.84 467.26C224.72 467.26 226.52 467 228.2 466.08C228.37 465.99 228.51 465.87 228.66 465.75V513H86.6599V459.24C88.2199 460.79 90.1199 461.97 92.0199 463.32Z" fill="#54494B"/>
<path d="M228 461H226V468H228V461Z" fill="#54494B"/>
<path d="M229 460H228V466H229V460Z" fill="#54494B"/>
<path d="M226 461H219V467H226V461Z" fill="#54494B"/>
<path d="M219.41 467.13C215.03 466.38 208.03 467.88 203.78 469.88C206.41 470.51 210.41 468.88 213.16 468.63C215.91 468.38 218.66 468.38 221.29 468.76C217.54 468.63 213.54 471.39 210.04 472.51C207.16 473.51 203.79 474.39 200.66 474.26C205.79 472.13 213.04 472.13 217.66 468.88C213.16 468 208.66 470.01 204.41 471.01C201.28 471.76 198.16 472.14 194.91 472.26C197.91 471.26 201.29 471.88 204.29 471.01C197.29 469.76 191.29 474.89 184.54 475.51C188.54 475.26 192.67 475.26 196.79 474.88C193.29 473 188.41 475.26 184.79 474.13C190.29 472.63 196.79 472.88 202.42 473.38C198.67 473 195.29 473.88 191.54 474.63C184.91 475.76 178.04 476.88 171.29 476.76C174.92 476.26 178.67 478.39 182.42 477.51C177.67 476.88 172.54 478.14 167.92 476.88C170.3 475.88 173.67 475.88 176.17 475.5C179.42 475 182.8 474.37 186.05 474C181.8 473.75 177.3 473.62 173.05 474.13C170.55 474.38 168.05 475.26 165.55 475.26C169.8 475.13 174.18 475.01 178.3 475.26C175.05 476.14 171.42 476.39 168.05 476.76C165.55 477.14 161.55 478.26 159.05 477.26C161.05 477.01 163.18 477.51 165.18 477.51C163.3 477.51 160.8 477.51 159.18 476.63C159.56 476.5 159.93 476.25 160.31 476.13" fill="#54494B"/>
<path d="M158.58 475.51C156.16 475.43 153.91 476.18 151.58 476.26C153.41 476.51 155.25 477.09 157.08 477.01C153.91 476.68 150.83 476.76 147.75 476.26C145.42 475.93 142.25 475.68 140.17 474.43C143.59 474.01 147.25 474.35 150.67 474.35C145.17 474.35 139.17 475.02 133.67 474.27C137.42 474.35 141.09 474.85 144.75 475.1C139.92 475.27 135.33 473.93 130.75 472.93C127.08 472.18 123.25 471.76 119.67 470.76C123.75 470.34 128.25 470.51 131.75 472.76C129.5 474.34 125.17 473.93 122.5 473.93C126.17 473.93 129.5 474.51 133.08 475.01C129.75 473.68 125.5 473.76 122 473.01C118.17 472.26 114.08 471.43 110.67 469.59C113.75 469.01 118.42 469.01 121.42 470.09C119.17 470.51 116.5 470.17 114.25 470.17C113 470.17 111.25 470.42 110.08 469.75C112.16 469.33 115.16 469.42 117.25 469.83C114.67 470.25 111.83 469.33 109.33 468.83C106.83 468.41 104.08 468.16 101.66 467.33C105.24 466.83 109.16 467.91 112.74 468.16C108.66 468.33 104.49 468.24 100.32 468.49C103.4 468.49 107.82 468.99 110.57 470.24C109.15 470.66 106.99 469.99 105.57 469.74C103.49 469.49 101.24 469.32 99.15 468.74C102.07 468.32 104.98 468.91 107.82 467.91C105.65 466.58 102.07 467.08 99.57 466.41C101.99 465.49 104.74 464.74 107.24 464.08C104.24 464.08 100.74 466 98.07 467.08C99.74 467.16 101.9 466.66 103.49 466C101.32 465.08 98.24 465.83 95.99 466.25C98.32 465.58 100.49 464.08 102.66 462.92C100.24 463.25 98.08 464.92 95.91 465.75C97.08 465 97.99 463.33 98.83 462.25C96.75 462.25 94.91 463.17 93 463.92C94.5 463.25 95.58 461.75 95.92 460.17C93.59 460.59 90.42 462.42 90.25 465C92.08 465.58 94.92 466.25 96.75 465.92C96.33 464.17 94.33 464.84 93.17 464.25C91.84 463.67 92.42 462.25 92.17 460.75C91.67 461.33 91.17 462.5 91 463.17C91.92 462.59 92.5 461.09 92.75 460.09" fill="#54494B"/>
<path d="M88 455H87V459H88V455Z" fill="#54494B"/>
<path d="M90.27 461.71C90.35 461.26 90.3 460.76 90.21 460.3C90.16 460.05 90.07 459.77 90.18 459.53C90.27 459.31 90.59 459.01 90.74 458.83C90.8 459.19 90.26 459.69 90.08 460.03C89.99 460.26 89.91 460.66 89.6 460.55C89.07 460.38 89.38 458.96 89.21 458.46C89.04 458.69 89.13 459.21 89.01 459.51C88.95 459.65 88.84 459.89 88.74 459.99C88.51 459.27 88.72 458.57 88.76 457.85" fill="#54494B"/>
<path d="M98.49 466.63C101.95 469.29 105.71 471.78 109.49 473.96C110.24 474.4 111.07 474.09 111.54 473.42C114.24 469.61 112.24 467.44 107.99 467.58C106.35 467.63 105.88 470.17 107.59 470.53C118.69 472.82 130.32 473.35 141.09 476.86C141.22 475.88 141.36 474.9 141.49 473.91C136.76 474.24 132.05 474 127.32 473.74C127.32 474.74 127.32 475.74 127.32 476.74C134.26 476.67 141.14 477.33 148.04 477.92C155.41 478.56 162.76 478.83 170.08 480.02C170.21 479.04 170.35 478.06 170.48 477.07C164.91 477.58 159.37 477.32 153.79 476.95C149.06 476.63 144.17 476.76 139.71 474.96C139.83 475.87 139.95 476.79 140.07 477.7C143.07 476.35 147.38 476.41 150.54 476.07C154.36 475.65 158.22 475.5 162.06 475.4C169.79 475.18 177.5 475.48 185.23 475.58C185.23 474.58 185.23 473.58 185.23 472.58C173.81 472.58 162.4 472.65 150.98 472.5C150.98 473.5 150.98 474.5 150.98 475.5C163.83 475.5 176.91 476.3 189.73 475.5C191.7 475.38 191.62 472.73 189.73 472.5C183.71 471.78 177.37 472.33 171.31 472.33C164.56 472.33 157.81 472.33 151.06 472.33C151.06 473.33 151.06 474.33 151.06 475.33C161.21 475.3 171.36 474.85 181.48 476C181.48 475 181.48 474 181.48 473C171.25 473.78 160.79 472.59 150.65 473.92C148.79 474.16 148.66 476.85 150.65 476.92C154.78 477.06 158.9 476.89 163.03 476.94C167.22 476.99 172.18 477.95 176.3 476.95C184.68 474.91 193.23 473.37 201.72 471.78C201.45 470.82 201.19 469.85 200.92 468.89C195 470.75 188.89 471.92 183.09 474.14C181.48 474.76 181.78 476.91 183.49 477.09C188.13 477.57 192.72 476.18 197.32 475.75C202.57 475.26 207.76 475.02 212.89 473.71C214.63 473.26 214.1 470.92 212.49 470.76C205.39 470.09 197.52 470.77 190.51 472.06C190.78 473.02 191.04 473.99 191.31 474.95C197.36 472.55 203.83 472.49 210.14 471.2C211.82 470.86 211.41 468.22 209.74 468.25C207.92 468.28 206.37 468.58 204.59 469.05C204.86 470.01 205.12 470.98 205.39 471.94C208.18 471.17 210.84 470.1 213.56 469.11C212.93 468.63 212.29 468.15 211.66 467.66C211.31 468.28 210.95 468.9 210.6 469.52C209.47 470.65 210.65 472.28 212.06 472.03C214.89 471.51 217.39 470.12 220.23 469.61C219.84 468.7 219.46 467.78 219.07 466.87C217.3 468.07 215.23 469.2 212.98 468.89C213.28 469.62 213.58 470.36 213.88 471.09C214.83 469.03 217.57 468.26 219.42 467.3C220.72 466.63 220.15 464.4 218.66 464.51C216.21 464.68 213.69 464.86 212.28 467.09C211.76 467.92 212.27 469.04 213.18 469.29C216.41 470.2 221.25 469.78 224.34 468.47C225.87 467.82 224.88 465.8 223.58 465.68C213.9 464.74 203.83 465.6 194.1 465.63C183.93 465.66 173.76 465.68 163.59 465.68C153.18 465.68 142.78 465.68 132.37 465.68C128.22 465.68 123.11 464.85 119.07 465.92C115.24 466.94 108.32 470.25 104.73 467.37C104.51 468.21 104.29 469.04 104.07 469.88C109.47 468.77 115.83 469.68 121.34 469.68C123.29 469.68 123.26 466.78 121.34 466.68C117.71 466.49 114.13 466.04 110.54 465.51C108.51 465.22 104.72 465.22 102.93 464.05C103.03 464.84 103.13 465.62 103.23 466.41C104.67 464.84 105.56 463.62 105.84 461.52C105.96 460.62 104.78 459.72 103.94 460.07C100.69 461.44 99.94 464.93 99.67 468.18C100.52 467.83 101.38 467.47 102.23 467.12C100.69 465.26 99.29 463.44 98.78 461.03C97.82 461.3 96.85 461.56 95.89 461.83C97.06 464.87 97.6 468.06 98.56 471.16C99 472.57 101.03 472.61 101.45 471.16C102.43 467.78 102.59 464.26 103.7 460.91C104.27 459.2 101.88 458.44 100.96 459.75C99.37 462.01 97.75 464.12 96.63 466.67C97.54 466.79 98.46 466.91 99.37 467.03C99.07 465 98.95 462.97 98.76 460.93C98.63 459.57 96.71 458.73 95.96 460.17C95.34 461.37 95.01 462.45 94.73 463.78C95.71 463.91 96.69 464.05 97.68 464.18C97.34 461.57 96.66 459.23 95.39 456.92C94.69 455.64 92.51 456.18 92.59 457.68C92.76 460.76 92.29 463.74 93.14 466.75C93.6 468.38 96.09 468.06 96.09 466.35C96.08 464.01 95.32 461.97 94.54 459.78C94 458.27 91.48 458.39 91.59 460.18C91.73 462.31 92.14 464.39 92.48 466.5C93.44 466.23 94.41 465.97 95.37 465.7C94.45 462.62 91.91 460.21 91.12 457.2C90.21 457.58 89.29 457.97 88.38 458.36C89.13 459.23 89.39 460.23 89.18 461.35C90.16 461.22 91.14 461.08 92.13 460.95C91.9 460.32 91.67 459.68 91.46 459.03C90.85 457.21 87.95 457.99 88.57 459.83C88.78 460.47 89 461.11 89.24 461.75C89.82 463.36 92.06 463.07 92.19 461.35C92.31 459.67 91.98 458.21 90.99 456.84C90.03 455.51 87.79 456.26 88.25 458C89.07 461.1 91.55 463.35 92.5 466.5C93.07 468.39 95.69 467.58 95.39 465.7C95.1 463.86 94.74 462.05 94.61 460.18C93.63 460.31 92.65 460.45 91.66 460.58C92.35 462.5 93.1 464.27 93.11 466.35C94.09 466.22 95.07 466.08 96.06 465.95C95.28 463.21 95.76 460.48 95.61 457.68C94.68 457.93 93.75 458.18 92.81 458.44C93.86 460.35 94.41 462.03 94.69 464.18C94.89 465.72 97.24 466.38 97.64 464.58C97.8 463.57 98.11 462.61 98.57 461.69C97.64 461.44 96.71 461.19 95.77 460.93C95.99 463.24 96.15 465.53 96.49 467.83C96.68 469.08 98.73 469.33 99.23 468.19C100.35 465.65 101.97 463.54 103.56 461.27C102.65 460.89 101.73 460.5 100.82 460.11C99.71 463.46 99.55 466.97 98.57 470.36C99.53 470.36 100.5 470.36 101.46 470.36C100.5 467.26 99.96 464.06 98.79 461.03C98.1 459.24 95.5 459.91 95.9 461.83C96.51 464.74 98.26 467 100.12 469.24C101.04 470.35 102.58 469.34 102.68 468.18C102.81 466.63 103.04 463.68 104.75 462.96C104.12 462.48 103.48 462 102.85 461.51C102.52 462.6 101.95 463.53 101.12 464.28C100.45 465.02 100.59 466.09 101.42 466.64C103.79 468.2 107.02 468.01 109.74 468.41C113.6 468.97 117.44 469.48 121.34 469.68C121.34 468.68 121.34 467.68 121.34 466.68C115.5 466.68 109.01 465.8 103.27 466.98C102.23 467.19 101.74 468.79 102.61 469.49C108.56 474.26 117.99 468.6 124.65 468.66C135.68 468.77 146.72 468.68 157.75 468.68C168.61 468.68 179.48 468.68 190.34 468.64C201.3 468.6 212.68 467.62 223.58 468.68C223.33 467.75 223.08 466.82 222.82 465.89C220.64 466.82 216 466.97 213.98 466.41C214.28 467.14 214.58 467.88 214.88 468.61C215.59 467.48 217.55 467.6 218.67 467.52C218.42 466.59 218.17 465.66 217.91 464.73C215.47 466 212.51 466.94 211.29 469.6C210.93 470.37 211.14 471.66 212.19 471.8C215.28 472.24 218.03 471.22 220.6 469.48C222.05 468.5 221.12 466.44 219.44 466.74C216.61 467.24 214.1 468.64 211.27 469.16C211.76 470 212.24 470.83 212.73 471.67C214.03 470.37 214.61 469.53 214.67 467.69C214.7 466.77 213.68 465.91 212.77 466.24C210.05 467.23 207.39 468.31 204.6 469.07C202.74 469.58 203.52 472.46 205.4 471.96C206.81 471.5 208.26 471.27 209.75 471.26C209.62 470.28 209.48 469.3 209.35 468.31C203.03 469.6 196.58 469.65 190.52 472.06C188.73 472.77 189.39 475.31 191.32 474.95C198.05 473.71 205.69 473.11 212.51 473.75C212.38 472.77 212.24 471.79 212.11 470.8C207.26 472.04 202.31 472.33 197.34 472.74C192.74 473.12 188.13 474.56 183.51 474.08C183.64 475.06 183.78 476.04 183.91 477.03C189.72 474.81 195.82 473.64 201.74 471.78C203.61 471.2 202.83 468.53 200.94 468.89C193 470.38 184.47 471.37 176.76 473.75C172.64 475.03 167.3 474.05 163.05 473.94C158.92 473.82 154.8 474.06 150.67 473.92C150.67 474.92 150.67 475.92 150.67 476.92C160.81 475.59 171.28 476.79 181.5 476C183.46 475.85 183.4 473.22 181.5 473C171.39 471.85 161.24 472.3 151.08 472.33C149.15 472.34 149.15 475.33 151.08 475.33C157.83 475.33 164.58 475.33 171.33 475.33C177.39 475.33 183.73 474.78 189.75 475.5C189.75 474.5 189.75 473.5 189.75 472.5C176.93 473.3 163.85 472.5 151 472.5C149.06 472.5 149.07 475.47 151 475.5C162.42 475.65 173.83 475.59 185.25 475.58C187.19 475.58 187.18 472.61 185.25 472.58C176.88 472.47 168.53 472.22 160.16 472.45C153.58 472.63 144.68 472.36 138.58 475.11C137.25 475.71 137.89 477.43 138.94 477.85C143.1 479.53 147.59 479.57 152.01 479.82C158.2 480.18 164.31 480.64 170.51 480.07C172.07 479.93 172.7 477.41 170.91 477.12C163.96 475.99 156.95 475.5 149.93 475.07C142.38 474.61 134.92 473.66 127.35 473.74C125.4 473.76 125.43 476.64 127.35 476.74C132.08 477 136.78 477.24 141.52 476.91C143.21 476.79 143.56 474.5 141.92 473.96C131.13 470.44 119.53 469.92 108.42 467.63C108.29 468.61 108.15 469.59 108.02 470.58C109.07 470.55 109.68 470.91 108.97 471.91C109.65 471.73 110.34 471.55 111.02 471.37C107.24 469.19 103.48 466.69 100.02 464.04C98.47 462.86 96.98 465.47 98.49 466.63Z" fill="#54494B"/>
<path d="M90 457H87V462H90V457Z" fill="#54494B"/>
</g>
</svg>
