<svg width="181" height="182" viewBox="0 0 181 182" fill="none" xmlns="http://www.w3.org/2000/svg">
<path d="M90.39 181.16C140.311 181.16 180.78 140.691 180.78 90.77C180.78 40.849 140.311 0.380005 90.39 0.380005C40.469 0.380005 0 40.849 0 90.77C0 140.691 40.469 181.16 90.39 181.16Z" fill="#F1F7ED"/>
<path d="M129.79 109.28C125.76 108.83 122.89 106.63 121.04 102.99C116.44 111.76 105.11 111.17 101.11 102.76C99.24 106.49 96.37 108.86 92.22 109.28C88.07 109.7 84.78 107.99 82.2 104.62C81.94 105.05 81.75 105.37 81.55 105.69C79.42 109.02 76.39 110.81 72.43 110.94C70.37 111.01 68.31 110.95 66.17 110.95C66.17 111.99 66.17 112.92 66.17 113.92C68.73 114.31 71.32 114.64 73.89 115.11C77.85 115.83 81.69 116.94 85.31 118.74C87.6 119.88 89.71 121.29 91.36 123.29C92.92 125.18 93.78 127.33 93.81 129.91C93.39 129.94 93.03 129.96 92.57 129.99C92.17 124.61 88.6 121.84 84.27 119.78C78.55 117.06 72.39 116.01 66.15 115.39C65.73 115.35 65.31 115.31 64.75 115.25C64.75 113.82 64.75 112.46 64.75 110.96C64.14 110.96 63.68 110.96 63.22 110.96C59.43 110.96 55.63 111.04 51.84 110.92C49.75 110.85 47.6 110.7 45.63 110.09C44.38 109.7 43.4 108.4 42.32 107.48C41.91 107.13 41.58 106.7 41.07 106.15C40.96 106.64 40.86 106.88 40.86 107.12C40.87 111.34 40.74 115.58 40.93 119.79C41.35 129.12 44.27 137.67 49.51 145.4C54.87 153.3 61.96 159.16 70.7 162.97C76.64 165.56 82.81 166.97 89.37 166.91C94.97 166.85 100.46 166.55 105.8 164.74C110.64 163.1 115.21 160.91 119.34 157.91C126.89 152.43 132.62 145.43 136.26 136.8C138.78 130.83 140.18 124.61 140.1 118.09C140.06 114.3 140.09 110.5 140.09 106.71C140.09 106.29 140.09 105.87 140.09 105.45C139.97 105.33 139.84 105.21 139.72 105.1C137.09 108.21 133.79 109.73 129.79 109.28ZM100.54 30.55C100.53 26.55 98.56 23.56 95.09 21.82C89.28 18.9 82.32 23.05 81.84 29.56C81.8 30.07 81.81 30.59 81.81 31.11C81.81 49.05 81.81 66.98 81.81 84.92C81.81 85.18 81.88 85.46 81.79 85.69C81.65 86.06 81.41 86.4 81.21 86.74C80.89 86.45 80.36 86.22 80.27 85.87C79.66 83.72 79.19 81.54 78.6 79.38C76.97 73.45 75.3 67.53 73.66 61.6C72.04 55.75 70.44 49.9 68.83 44.06C67.65 39.79 66.49 35.51 65.26 31.26C63.89 26.53 58.63 23.55 54.09 24.86C48.96 26.34 46 31.31 47.37 36.28C49.74 44.91 52.18 53.51 54.57 62.14C56.92 70.64 59.26 79.14 61.58 87.65C61.87 88.72 62.4 89.23 63.58 89.2C66.21 89.13 68.84 89.23 71.47 89.17C79.61 88.98 84.32 96.22 82.96 102.25C82.86 102.71 83.09 103.34 83.36 103.77C85.55 107.18 89.74 108.74 93.64 107.66C97.63 106.56 100.48 103.08 100.54 98.97C100.62 93.24 100.57 87.5 100.57 81.77C100.57 76.04 100.57 70.3 100.57 64.57H100.56C100.55 53.23 100.57 41.89 100.54 30.55ZM120.48 68.47C120.45 64.03 117.68 60.33 113.62 59.19C107.79 57.56 101.82 61.84 101.73 68C101.58 78.26 101.6 88.52 101.73 98.78C101.8 104.13 106.12 108.12 111.25 108.01C116.51 107.89 120.46 103.79 120.49 98.35C120.52 93.39 120.5 88.43 120.5 83.47C120.49 78.48 120.51 73.48 120.48 68.47ZM140.15 68.32C140.33 63.04 135.86 58.95 131.07 58.82C125.99 58.68 121.58 62.81 121.53 68.06C121.43 78.4 121.44 88.75 121.53 99.09C121.57 103.84 125.44 107.61 130.3 108C134.51 108.33 139.1 104.86 140 100.64C140.12 100.06 140.12 99.44 140.12 98.84C140.13 93.71 140.12 88.58 140.12 83.45C140.11 78.41 139.98 73.36 140.15 68.32ZM50 90.8C43.32 90.83 38.82 98.12 41.83 104.09C43.6 107.6 46.44 109.6 50.47 109.61C57.75 109.63 65.03 109.66 72.31 109.6C76.64 109.56 80.23 106.8 81.38 102.81C82.54 98.81 81.07 94.44 77.54 92.3C75.98 91.35 74.23 90.68 72.23 90.76C68.62 90.9 64.99 90.8 61.37 90.8C57.59 90.8 53.8 90.78 50 90.8Z" fill="#56CED0"/>
<path d="M139.74 105.1C137.08 108.21 133.78 109.73 129.78 109.28C125.76 108.83 122.88 106.63 121.03 102.99C116.43 111.76 105.1 111.17 101.1 102.76C99.23 106.49 96.36 108.86 92.22 109.28C88.07 109.7 84.77 107.99 82.2 104.62C81.94 105.05 81.75 105.37 81.55 105.69C79.42 109.02 76.39 110.81 72.43 110.94C70.37 111.01 68.31 110.95 66.16 110.95C66.16 111.99 66.16 112.92 66.16 113.92C68.72 114.31 71.31 114.64 73.88 115.11C77.83 115.83 81.68 116.94 85.3 118.74C87.59 119.88 89.7 121.29 91.35 123.29C92.91 125.18 93.77 127.33 93.8 129.91C93.38 129.94 93.02 129.96 92.56 129.99C92.16 124.61 88.59 121.84 84.26 119.78C78.54 117.06 72.38 116.01 66.14 115.39C65.72 115.35 65.3 115.31 64.74 115.25C64.74 113.82 64.74 112.46 64.74 110.96C64.13 110.96 63.67 110.96 63.21 110.96C59.42 110.96 55.62 111.04 51.83 110.92C49.75 110.85 47.59 110.7 45.62 110.09C44.37 109.7 43.39 108.4 42.32 107.48C41.91 107.13 41.58 106.7 41.07 106.15C40.96 106.64 40.86 106.88 40.86 107.12C40.86 111.34 40.74 115.58 40.93 119.79C41.35 129.12 44.27 137.67 49.51 145.4C54.87 153.3 61.96 159.16 70.7 162.97C76.64 165.56 82.81 166.97 89.37 166.91C94.97 166.85 100.46 166.55 105.8 164.74C110.64 163.1 115.21 160.91 119.34 157.91C126.89 152.43 132.62 145.43 136.26 136.8C138.78 130.83 140.18 124.61 140.1 118.09C140.06 114.3 140.09 110.5 140.09 106.71C140.09 106.29 140.09 105.87 140.09 105.45C139.99 105.34 139.87 105.22 139.74 105.1Z" fill="#56CED0"/>
<path d="M100.55 64.57C100.55 53.23 100.57 41.89 100.54 30.55C100.53 26.55 98.56 23.56 95.09 21.82C89.28 18.9 82.32 23.05 81.84 29.56C81.8 30.07 81.81 30.59 81.81 31.11C81.81 49.05 81.81 66.98 81.81 84.92C81.81 85.18 81.88 85.46 81.79 85.69C81.65 86.06 81.41 86.4 81.21 86.74C80.89 86.45 80.36 86.22 80.27 85.87C79.66 83.72 79.19 81.54 78.6 79.38C76.97 73.45 75.3 67.53 73.66 61.6C72.04 55.75 70.44 49.9 68.83 44.06C67.65 39.79 66.49 35.51 65.26 31.26C63.89 26.53 58.63 23.55 54.09 24.86C48.96 26.34 46 31.31 47.37 36.28C49.74 44.91 52.18 53.51 54.57 62.14C56.92 70.64 59.26 79.14 61.58 87.65C61.87 88.72 62.4 89.23 63.58 89.2C66.21 89.13 68.84 89.23 71.47 89.17C79.61 88.98 84.32 96.22 82.96 102.25C82.86 102.71 83.09 103.34 83.36 103.77C85.56 107.18 89.74 108.74 93.64 107.66C97.63 106.56 100.48 103.08 100.54 98.97C100.62 93.24 100.57 87.5 100.57 81.77C100.55 76.04 100.55 70.31 100.55 64.57Z" fill="#56CED0"/>
<path d="M120.49 83.48C120.49 78.48 120.51 73.48 120.48 68.48C120.45 64.04 117.68 60.34 113.62 59.2C107.79 57.57 101.82 61.85 101.73 68.01C101.58 78.27 101.6 88.53 101.73 98.79C101.8 104.14 106.12 108.13 111.25 108.02C116.51 107.9 120.46 103.8 120.49 98.36C120.51 93.4 120.49 88.44 120.49 83.48Z" fill="#56CED0"/>
<path d="M140.11 83.45C140.11 78.41 139.98 73.36 140.15 68.32C140.32 63.04 135.86 58.95 131.06 58.82C125.98 58.68 121.57 62.81 121.52 68.06C121.42 78.4 121.43 88.75 121.53 99.09C121.57 103.84 125.44 107.61 130.29 108C134.5 108.33 139.09 104.86 139.99 100.64C140.11 100.06 140.1 99.44 140.11 98.84C140.11 93.71 140.11 88.58 140.11 83.45Z" fill="#56CED0"/>
<path d="M61.38 90.8C57.59 90.8 53.8 90.79 50.01 90.8C43.34 90.83 38.83 98.12 41.84 104.09C43.61 107.6 46.45 109.6 50.48 109.61C57.76 109.63 65.04 109.66 72.32 109.6C76.65 109.56 80.24 106.8 81.39 102.81C82.55 98.81 81.08 94.44 77.55 92.3C75.99 91.35 74.24 90.68 72.24 90.76C68.62 90.9 65 90.79 61.38 90.8Z" fill="#56CED0"/>
</svg>
