<svg width="716" height="259" viewBox="0 0 716 259" fill="none" xmlns="http://www.w3.org/2000/svg">
<g opacity="0.8">
<path d="M485.09 231.85C486.26 221.36 491.99 213.88 501.49 209.06C478.63 197.06 480.17 167.56 502.09 157.13C492.36 152.26 486.2 144.79 485.1 133.97C484 123.15 488.45 114.57 497.24 107.86C496.12 107.18 495.28 106.68 494.46 106.16C485.78 100.61 481.11 92.71 480.78 82.4C480.61 77.04 480.75 71.66 480.75 66.08C478.04 66.08 475.62 66.08 473.01 66.08C471.99 72.74 471.12 79.5 469.9 86.19C468.02 96.49 465.13 106.51 460.45 115.94C457.48 121.92 453.81 127.41 448.59 131.72C443.67 135.78 438.07 138.04 431.35 138.1C431.28 137.01 431.22 136.06 431.15 134.88C445.18 133.83 452.39 124.54 457.75 113.25C464.83 98.33 467.56 82.3 469.2 66.03C469.31 64.94 469.41 63.84 469.55 62.39C473.26 62.39 476.81 62.39 480.74 62.39C480.74 60.81 480.74 59.61 480.74 58.41C480.74 48.52 480.52 38.63 480.83 28.75C481 23.31 481.39 17.7 482.99 12.57C484.01 9.31001 487.38 6.75001 489.78 3.95001C490.69 2.89001 491.82 2.02001 493.24 0.700006C491.96 0.410006 491.33 0.150005 490.72 0.150005C479.71 0.160005 468.68 -0.169995 457.69 0.330005C433.37 1.42001 411.11 9.02 390.95 22.69C370.35 36.66 355.1 55.13 345.17 77.91C338.42 93.4 334.75 109.46 334.92 126.57C335.06 141.16 335.86 155.47 340.57 169.38C344.84 181.99 350.55 193.91 358.36 204.67C372.65 224.34 390.88 239.28 413.36 248.75C428.92 255.31 445.13 258.95 462.12 258.76C472 258.65 481.89 258.74 491.78 258.74C492.87 258.74 493.96 258.74 495.05 258.74C495.36 258.42 495.67 258.1 495.97 257.78C487.88 250.87 483.92 242.28 485.09 231.85ZM690.24 155.62C700.66 155.59 708.44 150.46 712.99 141.41C720.6 126.27 709.78 108.15 692.81 106.88C691.47 106.78 690.12 106.8 688.77 106.8C642.03 106.79 595.29 106.79 548.55 106.79C547.88 106.79 547.13 106.97 546.54 106.75C545.57 106.39 544.7 105.76 543.79 105.25C544.53 104.4 545.14 103.04 546.05 102.79C551.65 101.2 557.34 99.97 562.95 98.43C578.41 94.18 593.84 89.83 609.29 85.55C624.52 81.33 639.77 77.17 655 72.96C666.13 69.88 677.27 66.86 688.36 63.65C700.69 60.07 708.46 46.38 705.05 34.55C701.19 21.19 688.25 13.47 675.3 17.03C652.82 23.21 630.39 29.56 607.92 35.79C585.77 41.92 563.61 48.01 541.44 54.05C538.65 54.81 537.33 56.2 537.4 59.26C537.57 66.11 537.32 72.97 537.48 79.82C537.96 101.03 519.1 113.31 503.4 109.78C502.21 109.51 500.55 110.11 499.44 110.83C490.56 116.55 486.49 127.44 489.3 137.62C492.17 148.01 501.23 155.45 511.94 155.61C526.88 155.83 541.83 155.69 556.77 155.7C571.71 155.71 586.66 155.7 601.6 155.7V155.69C631.13 155.65 660.68 155.71 690.24 155.62ZM591.42 207.59C602.98 207.52 612.64 200.3 615.6 189.71C619.84 174.53 608.7 158.96 592.65 158.72C565.92 158.33 539.17 158.37 512.44 158.71C498.5 158.89 488.09 170.16 488.4 183.52C488.71 197.22 499.41 207.52 513.57 207.59C526.49 207.67 539.41 207.61 552.33 207.61C565.35 207.61 578.38 207.67 591.42 207.59ZM591.81 258.84C605.57 259.3 616.22 247.66 616.57 235.16C616.94 221.93 606.17 210.44 592.5 210.3C565.55 210.03 538.59 210.07 511.64 210.31C499.27 210.43 489.43 220.5 488.43 233.15C487.56 244.12 496.6 256.09 507.6 258.42C509.12 258.74 510.73 258.72 512.29 258.72C525.65 258.74 539.02 258.73 552.39 258.73C565.54 258.75 578.69 258.41 591.81 258.84ZM533.24 23.94C533.15 6.55 514.17 -5.19 498.62 2.65C489.47 7.26 484.25 14.67 484.22 25.17C484.16 44.14 484.1 63.12 484.26 82.09C484.36 93.36 491.56 102.72 501.94 105.73C512.36 108.76 523.76 104.91 529.34 95.72C531.8 91.66 533.57 87.09 533.36 81.87C532.98 72.45 533.26 63.01 533.26 53.58C533.25 43.7 533.29 33.82 533.24 23.94Z" fill="#6F443F"/>
<path d="M495.97 257.79C487.88 250.87 483.91 242.27 485.08 231.85C486.25 221.36 491.98 213.88 501.48 209.06C478.62 197.06 480.16 167.56 502.08 157.13C492.35 152.26 486.2 144.79 485.09 133.98C483.99 123.16 488.44 114.58 497.23 107.87C496.11 107.18 495.27 106.69 494.45 106.17C485.77 100.62 481.1 92.72 480.77 82.41C480.6 77.05 480.74 71.67 480.74 66.08C478.03 66.08 475.61 66.08 473 66.08C471.98 72.75 471.11 79.5 469.89 86.19C468 96.49 465.12 106.52 460.44 115.94C457.47 121.92 453.8 127.41 448.58 131.72C443.66 135.78 438.06 138.04 431.34 138.11C431.27 137.02 431.21 136.07 431.14 134.89C445.17 133.84 452.38 124.54 457.74 113.25C464.82 98.33 467.55 82.3 469.19 66.03C469.3 64.94 469.4 63.85 469.54 62.38C473.25 62.38 476.8 62.38 480.73 62.38C480.73 60.8 480.73 59.6 480.73 58.4C480.73 48.51 480.51 38.62 480.82 28.74C480.99 23.3 481.38 17.69 482.98 12.56C484 9.3 487.37 6.75 489.77 3.94C490.68 2.88 491.81 2.01 493.23 0.689996C491.95 0.399996 491.33 0.139995 490.71 0.139995C479.7 0.149995 468.67 -0.180005 457.68 0.319995C433.36 1.41 411.1 9.01 390.94 22.68C370.34 36.65 355.09 55.11 345.16 77.9C338.41 93.39 334.74 109.45 334.91 126.56C335.05 141.15 335.85 155.46 340.56 169.37C344.83 181.98 350.54 193.9 358.35 204.66C372.64 224.33 390.87 239.27 413.35 248.74C428.91 255.3 445.12 258.94 462.11 258.75C471.99 258.64 481.88 258.73 491.77 258.73C492.86 258.73 493.95 258.73 495.04 258.73C495.36 258.43 495.67 258.11 495.97 257.79Z" fill="#6F443F"/>
<path d="M601.58 155.65C631.13 155.65 660.68 155.7 690.23 155.62C700.65 155.59 708.43 150.46 712.98 141.41C720.59 126.27 709.77 108.15 692.8 106.88C691.46 106.78 690.11 106.8 688.76 106.8C642.02 106.79 595.28 106.79 548.54 106.79C547.87 106.79 547.12 106.97 546.53 106.75C545.57 106.39 544.69 105.76 543.78 105.25C544.52 104.4 545.13 103.04 546.04 102.79C551.64 101.21 557.33 99.97 562.94 98.43C578.4 94.18 593.83 89.83 609.28 85.55C624.51 81.33 639.76 77.17 654.99 72.96C666.12 69.88 677.26 66.86 688.35 63.65C700.68 60.07 708.45 46.38 705.04 34.55C701.18 21.19 688.24 13.47 675.29 17.03C652.81 23.21 630.38 29.56 607.91 35.79C585.76 41.92 563.6 48.01 541.43 54.05C538.64 54.81 537.32 56.2 537.39 59.26C537.56 66.11 537.31 72.97 537.47 79.82C537.95 101.03 519.09 113.31 503.39 109.77C502.2 109.5 500.54 110.11 499.43 110.82C490.55 116.54 486.48 127.43 489.29 137.61C492.16 148 501.22 155.44 511.93 155.59C526.87 155.81 541.82 155.67 556.76 155.68C571.7 155.69 586.65 155.68 601.59 155.68V155.65H601.58Z" fill="#6F443F"/>
<path d="M552.32 207.61C565.35 207.61 578.39 207.67 591.42 207.59C602.98 207.52 612.64 200.3 615.6 189.71C619.84 174.53 608.7 158.96 592.65 158.72C565.92 158.33 539.17 158.37 512.44 158.71C498.5 158.89 488.09 170.16 488.4 183.52C488.71 197.22 499.41 207.52 513.57 207.59C526.48 207.67 539.4 207.61 552.32 207.61Z" fill="#6F443F"/>
<path d="M552.4 258.75C565.54 258.75 578.69 258.41 591.82 258.84C605.58 259.3 616.23 247.66 616.58 235.16C616.95 221.93 606.18 210.44 592.51 210.3C565.56 210.03 538.6 210.07 511.65 210.32C499.27 210.43 489.44 220.51 488.44 233.16C487.57 244.13 496.61 256.1 507.61 258.43C509.13 258.75 510.74 258.73 512.3 258.73C525.67 258.76 539.03 258.75 552.4 258.75Z" fill="#6F443F"/>
<path d="M533.25 53.58C533.25 43.7 533.29 33.82 533.24 23.94C533.15 6.54997 514.17 -5.19003 498.62 2.64997C489.47 7.25997 484.25 14.67 484.22 25.17C484.16 44.14 484.1 63.12 484.26 82.09C484.36 93.36 491.56 102.72 501.94 105.73C512.36 108.76 523.76 104.91 529.34 95.72C531.8 91.66 533.57 87.09 533.36 81.87C532.98 72.45 533.26 63.01 533.25 53.58Z" fill="#6F443F"/>
<path d="M363.61 73.59C358.83 76.28 353.36 78.59 351.13 81.88C347.87 86.7 348.44 91.68 347.75 96.62C347.64 96.7 347.5 96.76 347.41 96.84C344.35 99.54 341.83 102.37 340.39 105.29C339.83 106.42 340.29 107.56 341.65 108.48C340.11 110.73 339.06 113.08 338.91 115.61C338.77 117.94 338.53 120.27 338.59 122.6C338.31 123.19 338.04 123.79 337.74 124.38C336.06 127.64 334.64 130.96 336.28 134.27C337.32 136.36 339.08 138.36 340.77 140.38C338.72 141.11 337.39 142.14 337.7 143.26C338.03 144.46 338.34 145.66 338.37 146.87C338.37 147.19 338.49 147.51 338.69 147.81C338.71 147.85 338.71 147.89 338.73 147.94C339.86 150.49 340.28 152.83 342.6 155.22C341.05 156.06 340.4 157.18 341.4 158.5C343.34 161.06 345.88 163.69 346.05 166.39C346.07 166.63 346.14 166.85 346.23 167.07C346.23 167.11 346.21 167.15 346.21 167.18C346.42 170.88 349.6 174.76 356.18 177.44C355.91 177.8 355.73 178.17 355.73 178.55C355.73 180.06 356.24 181.51 358.1 182.85C358.28 182.98 358.53 183.1 358.75 183.22H0V69.29H371.8C368.68 70.55 366.31 72.06 363.61 73.59Z" fill="#6F443F"/>
</g>
</svg>
