<svg width="120" height="120" viewBox="0 0 120 120" fill="none" xmlns="http://www.w3.org/2000/svg">
<path d="M60.0004 118.192C92.1388 118.192 118.192 92.1388 118.192 60.0004C118.192 27.8619 92.1388 1.80859 60.0004 1.80859C27.8619 1.80859 1.80859 27.8619 1.80859 60.0004C1.80859 92.1388 27.8619 118.192 60.0004 118.192Z" fill="#E95A29" stroke="#191432" stroke-width="2.5863"/>
<path d="M78.2196 50.5181C88.6565 60.9549 88.7929 77.7398 78.5244 88.0083C68.256 98.2768 51.471 98.1403 41.0342 87.7035" stroke="#191432" stroke-width="2.5863"/>
<path d="M42.6633 60.7759C44.5081 60.3027 45.2844 57.1151 44.3973 53.6561C43.5101 50.1971 41.2954 47.7766 39.4507 48.2497C37.6059 48.7229 36.8295 51.9105 37.7167 55.3695C38.6038 58.8285 40.8185 61.249 42.6633 60.7759Z" fill="#191432"/>
<path d="M52.759 55.2793C54.6038 54.8061 55.3801 51.6185 54.493 48.1595C53.6058 44.7005 51.3912 42.28 49.5464 42.7532C47.7016 43.2263 46.9252 46.4139 47.8124 49.8729C48.6995 53.3319 50.9142 55.7524 52.759 55.2793Z" fill="#191432"/>
</svg>
