<svg width="120" height="120" viewBox="0 0 120 120" fill="none" xmlns="http://www.w3.org/2000/svg">
<g clip-path="url(#clip0_91_717)">
<path d="M9.86237 89.354C25.9316 117.187 61.5211 126.723 89.3538 110.654C117.187 94.5844 126.723 58.9949 110.654 31.1622C94.5843 3.32947 58.9947 -6.20672 31.162 9.8625C3.32933 25.9317 -6.20685 61.5213 9.86237 89.354Z" stroke="#191432" stroke-width="2.5863"/>
<path d="M77.5795 71.2945C73.7593 85.5514 59.2914 94.0621 45.2644 90.3036C31.2374 86.545 22.9631 71.9406 26.7832 57.6836" stroke="#191432" stroke-width="2.5863"/>
<path d="M50.9195 45.6303C52.2516 46.9914 55.4004 46.0699 57.9524 43.5721C60.5044 41.0743 61.4932 37.9461 60.1611 36.585C58.8289 35.224 55.6802 36.1455 53.1282 38.6432C50.5762 41.141 49.5873 44.2692 50.9195 45.6303Z" fill="#191432"/>
<path d="M60.7261 51.6264C62.0583 52.9875 65.207 52.066 67.759 49.5682C70.311 47.0704 71.2999 43.9422 69.9677 42.5811C68.6356 41.2201 65.4869 42.1416 62.9349 44.6393C60.3829 47.1371 59.394 50.2653 60.7261 51.6264Z" fill="#191432"/>
</g>
<defs>
<clipPath id="clip0_91_717">
<rect width="120" height="120" fill="white"/>
</clipPath>
</defs>
</svg>
