<svg width="120" height="120" viewBox="0 0 120 120" fill="none" xmlns="http://www.w3.org/2000/svg">
<g clip-path="url(#clip0_90_703)">
<path d="M2.17361 55.1391C-0.593124 87.1583 23.1206 115.358 55.1398 118.125C87.1589 120.891 115.358 97.1775 118.125 65.1584C120.892 33.1393 97.1781 4.93973 65.159 2.17299C33.1399 -0.593745 4.94035 23.12 2.17361 55.1391Z" fill="#F89094" stroke="#191432" stroke-width="2.5863"/>
<path d="M68.0284 79.1177C56.7318 88.6173 39.9974 87.3083 30.651 76.1939C21.3047 65.0796 22.8856 48.3687 34.1822 38.8691" stroke="#191432" stroke-width="2.5863"/>
<path d="M65.2198 54.2305C64.1718 52.6403 65.7394 49.7582 68.7211 47.7933C71.7028 45.8283 74.9695 45.5245 76.0175 47.1148C77.0655 48.705 75.4979 51.5871 72.5162 53.552C69.5345 55.517 66.2678 55.8208 65.2198 54.2305Z" fill="#191432"/>
<path d="M60.838 44.8628C59.79 43.2726 61.3576 40.3906 64.3393 38.4256C67.321 36.4606 70.5877 36.1568 71.6357 37.7471C72.6836 39.3373 71.1161 42.2194 68.1344 44.1843C65.1527 46.1493 61.886 46.4531 60.838 44.8628Z" fill="#191432"/>
</g>
<defs>
<clipPath id="clip0_90_703">
<rect width="120" height="120" fill="white"/>
</clipPath>
</defs>
</svg>
