<svg width="120" height="120" viewBox="0 0 120 120" fill="none" xmlns="http://www.w3.org/2000/svg">
<g clip-path="url(#clip0_91_722)">
<path d="M114.299 80.8238C102.783 110.828 69.1235 125.815 39.1192 114.299C9.11501 102.783 -5.87239 69.1237 5.64394 39.1194C17.1603 9.11522 50.8193 -5.87218 80.8235 5.64415C110.828 17.1605 125.815 50.8195 114.299 80.8238Z" fill="#E2D081" stroke="#191432" stroke-width="2.5863"/>
<path d="M44.5894 73.5831C50.5933 87.0667 66.2147 93.2088 79.4808 87.3018C92.747 81.3947 98.6342 65.6755 92.6304 52.1919" stroke="#191432" stroke-width="2.5863"/>
<path d="M58.0002 52.4326C59.6381 51.4609 59.489 48.1835 57.667 45.1123C55.8451 42.0411 53.0403 40.3392 51.4023 41.3109C49.7643 42.2826 49.9135 45.56 51.7355 48.6312C53.5574 51.7023 56.3622 53.4043 58.0002 52.4326Z" fill="#191432"/>
<path d="M66.0392 45.9209C67.6772 44.9492 67.528 41.6718 65.7061 38.6006C63.8841 35.5294 61.0793 33.8275 59.4414 34.7992C57.8034 35.7709 57.9526 39.0483 59.7745 42.1194C61.5965 45.1906 64.4013 46.8926 66.0392 45.9209Z" fill="#191432"/>
</g>
<defs>
<clipPath id="clip0_91_722">
<rect width="120" height="120" fill="white"/>
</clipPath>
</defs>
</svg>
